<?xml version="1.0" encoding="utf-8"?>
<!-- Generator: Adobe Illustrator 23.0.3, SVG Export Plug-In . SVG Version: 6.00 Build 0)  -->
<svg version="1.1" id="Layer_1" xmlns="http://www.w3.org/2000/svg" xmlns:xlink="http://www.w3.org/1999/xlink" x="0px" y="0px"
	 viewBox="0 0 162 51" style="enable-background:new 0 0 162 51;" xml:space="preserve">
<style type="text/css">
	.st0{fill:#1B0088;}
	.st1{fill:#EC1650;}
</style>
<g>
	<path class="st0" d="M104.4,38.3v10.9h1.7V38.3H104.4z M134.3,38.3v10.9h8.8v-1.6H136v-3.4h6.2v-1.5H136v-3h6.8v-1.5H134.3z
		 M61.9,38.3v10.9h1.7V38.3H61.9z M90.2,49.2h8v-1.5h-6.3v-9.5h-1.7V49.2z M77.1,44.4c-1.3,0-2.5-0.3-3.3-0.8v-4.1h4.4
		c2.2,0,3,1.1,3,2.2C81.2,43.2,80.1,44.4,77.1,44.4z M50.7,44.9h-5l2.5-5.1L50.7,44.9z M116.2,49.2v-9l7.5,8.5
		c0.2,0.3,0.6,0.5,1,0.5h1V38.3h-1.6v8.7l-7.4-8.2c-0.2-0.3-0.5-0.5-1-0.5h-1.1v10.9H116.2z M73.8,49.2v-4c0.8,0.5,1.9,0.7,3.2,0.7
		c0.7,0,1.1,0,1.7-0.1l2.3,3.4h1.8l-2.5-3.9c1.6-0.7,2.6-2.1,2.6-3.6c0-2.1-1.7-3.5-4.8-3.5h-6v11.1H73.8z M52.7,49.2h1.7l-5.1-10.5
		c-0.2-0.3-0.5-0.5-0.8-0.5h-1.3l-5.4,10.9h1.7l1.4-2.8h6.4L52.7,49.2z M155.6,38c-3,0-4.9,1.3-4.9,3.2c0,1.8,1.5,2.5,3.9,3l1.1,0.2
		c1.7,0.3,2.6,0.9,2.6,1.8c0,0.9-0.9,1.6-3.2,1.6c-2.1,0-3.6-0.7-4.1-1l-0.5,1.6c0.5,0.2,2.1,0.9,4.4,0.9c3.2,0,5-1.3,5-3.2
		c0-1.8-1.6-2.7-4.1-3.2l-1.1-0.2c-1.8-0.3-2.4-0.7-2.4-1.6c0-0.9,1-1.6,3.1-1.6c1.7,0,3,0.3,3.5,0.6l0.3-1.4
		C158.7,38.5,157.4,38,155.6,38z"/>
</g>
<g>
	<path class="st0" d="M92.2,26.3H97V12.9l8.4-0.6V8.9H83.8v3.5l8.4,0.6V26.3z M57.5,26.3l2-4H47.8V8.9h-5v17.4H57.5z M76.1,19.6
		h-6.5l3.3-7L76.1,19.6z M119.5,19.6H113l3.3-7L119.5,19.6z M141.5,22.1c0.2,0.6,0.9,1,1.7,1h5l3.7-10.2l3.5,13.5h4.7l-3.9-15.4
		c-0.4-1.5-1.2-2-2.7-2h-4.9l-3.5,10.2l-2.8-8.6c-0.4-1.1-1-1.5-2.2-1.5h-5.5l-4.5,17.4h4.8l3.5-13.5L141.5,22.1z M122.8,26.3h5.2
		L119.8,10c-0.4-0.8-0.9-1.1-1.8-1.1h-4.6l-8.7,17.4h5.3l1.5-3.2h9.8L122.8,26.3z M79.3,26.3h5.3L76.3,10c-0.4-0.8-0.9-1.1-1.9-1.1
		h-4.6l-8.7,17.4h5.3l1.5-3.2h9.8L79.3,26.3z"/>
</g>
<g>
	<path class="st1" d="M25.1,11.7l-14.2-5C9.5,6.1,8.7,5.3,8.7,3.8V1.1c0-0.7,0.5-0.4,1.2-0.2c4.7,1.7,19.7,7.1,21,7.5
		c0.2,0.1,0.3,0.1,0.4,0.2c0.4,0.3,0,0.9-1.6,1.4C29.4,10.1,27.6,10.8,25.1,11.7 M25.1,20.4c2.4-0.9,4.2-1.5,4.6-1.7
		c1.8-0.6,2.1-1.3,1.3-1.6c0,0,0.1,0,0.1,0c-0.1,0-0.1-0.1-0.2-0.1c-0.3-0.1-1.4-0.5-3.1-1.1c-1.9,0.7-4.6,1.7-7.4,2.7L25.1,20.4z
		 M1.5,19.4c0,0.6,0.3,0.7,1,0.5c0.3-0.1,0.8-0.3,1.4-0.5c0.2-0.1,0.3-0.1,0.5-0.2l0,0c1-0.4,2.4-0.9,3.9-1.4
		c-2.5-0.9-4.7-1.7-6-2.2c-0.6-0.2-0.8-0.1-0.8,0.6v2.5V19.4z M3.7,12.7l9.3,3.4c2.4-0.9,5-1.8,7.4-2.7C13.5,10.9,5.3,7.9,2.6,7
		C2,6.7,1.5,6.5,1.5,7.1v2.7C1.5,11.3,2.3,12.2,3.7,12.7"/>
</g>
<g>
	<path class="st0" d="M30.7,23.8l-22.1,8v-5.3c0,0,20-7.2,21.1-7.6c1.8-0.6,2.1-1.3,1.3-1.6c0.8,0.3,0.8,0.4,0.8,2.7
		C31.8,22.5,31.7,23.4,30.7,23.8 M13.7,44.1c0-1.1,0.1-2.1-0.9-1.7l-4.3,1.6v5.3l4-1.4c1-0.4,1.1-1.1,1.1-2.2V44.1z M20.4,32.9
		c0-1.1,0.1-2.1-0.9-1.7L8.6,35.2v5.3l10.7-3.8c1-0.4,1.1-1.1,1.1-2.2V32.9z M31,8.5c0.8,0.3,0.5,0.9-1.3,1.6
		c-0.9,0.3-18.7,6.8-25.3,9.1v0c-0.2,0.1-0.3,0.1-0.5,0.2c-0.6,0.2-1.1,0.4-1.4,0.5c-0.7,0.2-1,0.1-1-0.5c0,0.4,0,1.2,0.7,1.5
		L8,22.9c0,0,0.4,0.1,0.8,0C9.3,22.8,30.7,15,30.7,15c1-0.4,1.1-1.3,1.1-3.8C31.8,8.9,31.8,8.8,31,8.5"/>
</g>
</svg>
