<?xml version="1.0" standalone="no"?>
<!DOCTYPE svg PUBLIC "-//W3C//DTD SVG 1.1//EN" "http://www.w3.org/Graphics/SVG/1.1/DTD/svg11.dtd" >
<svg xmlns="http://www.w3.org/2000/svg" xmlns:xlink="http://www.w3.org/1999/xlink" version="1.1">
<metadata>
Created by FontForge 20170910 at Fri Apr  1 19:44:13 2016
 By Jimmy Wärting
Copyright 2015 LATAM Airlines. All Rights Reserved.
</metadata>
<defs>
<font id="LatamSans-Bold" horiz-adv-x="336" >
  <font-face 
    font-family="Latam Sans"
    font-weight="600"
    font-stretch="normal"
    units-per-em="1000"
    panose-1="2 11 8 5 3 4 3 2 2 4"
    ascent="750"
    descent="-250"
    x-height="500"
    cap-height="700"
    bbox="-76 -328.02 1249 974"
    underline-thickness="0"
    underline-position="0"
    stemh="100"
    stemv="123"
    unicode-range="U+0020-FB04"
  />
<missing-glyph horiz-adv-x="600" 
 />
    <glyph glyph-name="fi" unicode="fi" horiz-adv-x="646" 
d="M516 569c-42 0 -75 33 -75 75s33 75 75 75s75 -33 75 -75s-33 -75 -75 -75zM107 0v404l-89 16v80h89v96c0 111 61 166 199 166c24 0 61 -4 87 -14l-15 -99c-15 5 -32 9 -63 9c-46 0 -84 -18 -84 -74v-84h139v-83l-139 -17v-400h-124zM454 0v500h124v-500h-124z" />
    <glyph glyph-name="fl" unicode="fl" horiz-adv-x="665" 
d="M591 -7c-92 0 -139 40 -139 129v628h124v-622c0 -22 10 -35 37 -35c11 0 21 2 28 6l14 -94c-18 -8 -47 -12 -64 -12zM107 0v404l-89 16v80h89v96c0 111 61 166 199 166c24 0 61 -4 87 -14l-15 -99c-15 5 -32 9 -63 9c-46 0 -84 -18 -84 -74v-84h139v-83l-139 -17v-400
h-124z" />
    <glyph glyph-name="ff" unicode="ff" horiz-adv-x="736" 
d="M107 0v409l-89 14v77h89v74c0 111 59 166 193 166c23 0 58 -4 83 -14l-15 -99c-14 5 -30 9 -59 9c-43 0 -78 -18 -78 -74v-62h220v96c0 111 61 166 199 166c24 0 61 -4 87 -14l-15 -99c-15 5 -32 9 -62 9c-47 0 -85 -18 -85 -74v-84h139v-81l-139 -12v-407h-124v405h-220
v-405h-124z" />
    <glyph glyph-name="ffi" unicode="ffi" horiz-adv-x="991" 
d="M861 573c-43 0 -76 33 -76 76c0 41 33 75 76 75c42 0 75 -34 75 -75c0 -43 -33 -76 -75 -76zM799 0v500h124v-500h-124zM107 0v409l-89 14v77h89v74c0 111 60 166 196 166c24 0 62 -4 87 -14l-15 -99c-14 5 -32 9 -62 9c-45 0 -82 -18 -82 -74v-62h220v96
c0 111 61 166 199 166c24 0 61 -4 87 -14l-15 -99c-15 5 -32 9 -62 9c-47 0 -85 -18 -85 -74v-84h139v-81l-139 -12v-407h-124v405h-220v-405h-124z" />
    <glyph glyph-name="ffl" unicode="ffl" horiz-adv-x="1006" 
d="M932 -7c-91 0 -138 40 -138 129v628h123v-622c0 -22 11 -35 38 -35c11 0 21 2 27 6l14 -94c-17 -8 -46 -12 -64 -12zM107 0v409l-89 14v77h89v74c0 111 59 166 193 166c23 0 58 -4 83 -14l-15 -99c-14 5 -30 9 -59 9c-43 0 -78 -18 -78 -74v-62h220v96
c0 111 61 166 199 166c24 0 61 -4 87 -14l-15 -99c-15 5 -32 9 -62 9c-47 0 -85 -18 -85 -74v-84h139v-81l-139 -12v-407h-124v405h-220v-405h-124z" />
    <glyph glyph-name="f_b" unicode="fb" horiz-adv-x="943" 
d="M645 -12c-90 0 -158 25 -197 47v715h119v-303c30 41 80 65 136 65c125 0 199 -96 199 -246c0 -180 -93 -278 -257 -278zM107 0v404l-89 16v80h89v96c0 111 61 166 199 166c24 0 61 -4 87 -14l-15 -99c-15 5 -32 9 -63 9c-46 0 -84 -18 -84 -74v-84h139v-83l-139 -17v-400
h-124zM655 90c90 0 124 77 124 171c0 83 -29 148 -101 148c-56 0 -106 -45 -106 -153v-149c16 -9 43 -17 83 -17z" />
    <glyph glyph-name="f_f_b" unicode="ffb" horiz-adv-x="1285" 
d="M987 -12c-90 0 -158 25 -197 47v715h119v-303c30 41 80 65 136 65c125 0 199 -96 199 -246c0 -180 -93 -278 -257 -278zM997 90c90 0 124 77 124 171c0 83 -29 148 -101 148c-56 0 -106 -45 -106 -153v-149c16 -9 43 -17 83 -17zM107 0v409l-89 14v77h89v72
c0 111 63 168 199 168c24 0 64 -4 90 -14l-15 -99c-15 5 -35 9 -65 9c-45 0 -85 -19 -85 -76v-60h215v96c0 110 69 166 207 166c24 0 61 -4 86 -14l-14 -99c-15 5 -32 9 -63 9c-46 0 -92 -18 -92 -74v-84h139v-81l-139 -12v-407h-124v405h-215v-405h-124z" />
    <glyph glyph-name="f_h" unicode="fh" horiz-adv-x="939" 
d="M107 0v404l-89 16v80h89v96c0 111 61 166 199 166c24 0 61 -4 87 -14l-15 -99c-15 5 -32 9 -63 9c-46 0 -84 -18 -84 -74v-84h139v-83l-139 -17v-400h-124zM572 306v-306h-124v750h119v-306c30 40 81 68 138 68c123 0 177 -77 177 -189v-323h-124v306
c0 74 -40 104 -92 104c-46 0 -94 -30 -94 -104z" />
    <glyph glyph-name="f_f_h" unicode="ffh" horiz-adv-x="1286" 
d="M919 306v-306h-124v750h119v-306c30 40 81 68 138 68c123 0 177 -77 177 -189v-323h-124v306c0 74 -40 104 -92 104c-46 0 -94 -30 -94 -104zM107 0v409l-89 14v77h89v74c0 111 60 166 196 166c24 0 62 -4 87 -14l-15 -99c-14 5 -32 9 -62 9c-45 0 -82 -18 -82 -74v-62
h220v96c0 111 63 166 203 166c24 0 61 -4 87 -14l-15 -99c-15 5 -32 9 -62 9c-49 0 -89 -18 -89 -74v-84h139v-81l-139 -12v-407h-124v405h-220v-405h-124z" />
    <glyph glyph-name="f_k" unicode="fk" horiz-adv-x="924" 
d="M107 0v404l-89 16v80h89v96c0 111 61 166 199 166c24 0 61 -4 87 -14l-15 -99c-15 5 -32 9 -63 9c-46 0 -84 -18 -84 -74v-84h139v-83l-139 -17v-400h-124zM560 29c-13 -19 -31 -29 -58 -29h-54v750h119v-557l195 307h126l-152 -218l166 -282h-122l-110 187z" />
    <glyph glyph-name="f_f_k" unicode="ffk" horiz-adv-x="1271" 
d="M107 0v409l-89 14v77h89v74c0 111 60 166 196 166c24 0 62 -4 87 -14l-15 -99c-14 5 -32 9 -62 9c-45 0 -82 -18 -82 -74v-62h220v96c0 111 63 166 203 166c24 0 61 -4 87 -14l-15 -99c-15 5 -32 9 -62 9c-49 0 -89 -18 -89 -74v-84h139v-81l-139 -12v-407h-124v405h-220
v-405h-124zM907 29c-13 -19 -31 -29 -58 -29h-53v750h118v-557l195 307h126l-152 -218l166 -282h-122l-110 187z" />
    <glyph glyph-name="f_j" unicode="fj" horiz-adv-x="645" 
d="M515 569c-42 0 -75 33 -75 75s33 75 75 75s75 -33 75 -75s-33 -75 -75 -75zM107 0v404l-89 16v80h89v96c0 111 61 166 199 166c24 0 61 -4 87 -14l-15 -99c-15 5 -32 9 -63 9c-46 0 -84 -18 -84 -74v-84h139v-83l-139 -17v-400h-124zM402 -252c-21 0 -56 4 -78 12l15 96
c9 -4 24 -8 40 -8c53 0 74 28 74 89v563h124v-573c0 -125 -60 -179 -175 -179z" />
    <glyph glyph-name="f_f_j" unicode="ffj" horiz-adv-x="991" 
d="M861 573c-43 0 -76 33 -76 76c0 41 33 75 76 75c42 0 75 -34 75 -75c0 -43 -33 -76 -75 -76zM107 0v409l-89 14v77h89v74c0 111 60 166 196 166c24 0 62 -4 87 -14l-15 -99c-14 5 -32 9 -62 9c-45 0 -82 -18 -82 -74v-62h220v96c0 111 61 166 199 166c24 0 61 -4 87 -14
l-15 -99c-15 5 -32 9 -62 9c-47 0 -85 -18 -85 -74v-84h139v-81l-139 -12v-407h-124v405h-220v-405h-124zM747 -252c-21 0 -56 4 -77 12l14 96c9 -4 24 -8 41 -8c52 0 74 28 74 89v563h124v-573c0 -125 -61 -179 -176 -179z" />
    <glyph glyph-name="f_idieresis" unicode="f&#xef;" horiz-adv-x="649" 
d="M606 574c-36 0 -63 29 -63 67c0 37 27 67 63 67s65 -30 65 -67c0 -38 -29 -67 -65 -67zM442 574c-36 0 -64 29 -64 67c0 37 28 67 64 67s64 -30 64 -67c0 -38 -28 -67 -64 -67zM107 0v404l-89 16v80h89v100c0 108 56 162 185 162c22 0 53 -4 75 -12l-23 -100
c-11 4 -22 8 -43 8c-39 0 -70 -17 -70 -69v-89h139v-83l-139 -17v-400h-124zM457 0v500h124v-500h-124z" />
    <glyph glyph-name=".notdef" horiz-adv-x="600" 
 />
    <glyph glyph-name="space" unicode=" " horiz-adv-x="238" 
 />
    <glyph glyph-name="A" unicode="A" horiz-adv-x="637" 
d="M397 291l-79 270l-79 -270h158zM481 0l-55 191h-216l-56 -191h-132l231 702h80c35 0 53 -12 64 -48l218 -654h-134z" />
    <glyph glyph-name="B" unicode="B" horiz-adv-x="614" 
d="M276 -12c-68 0 -159 13 -218 32v680h242c172 0 240 -80 240 -178c0 -75 -47 -130 -96 -151c75 -18 131 -86 131 -167c0 -153 -125 -216 -299 -216zM308 594h-129v-181h132c73 0 106 45 106 93c0 39 -21 88 -109 88zM282 96c104 0 163 39 163 111c0 63 -49 106 -133 106
h-133v-205c36 -7 71 -12 103 -12z" />
    <glyph glyph-name="C" unicode="C" horiz-adv-x="580" 
d="M372 -12c-210 0 -323 152 -323 362c0 204 114 355 322 355c70 0 126 -16 171 -43l-33 -105c-35 19 -75 33 -127 33c-132 0 -207 -96 -207 -240c0 -150 75 -247 208 -247c55 0 93 15 129 34l32 -106c-46 -28 -100 -43 -172 -43z" />
    <glyph glyph-name="D" unicode="D" horiz-adv-x="649" 
d="M249 -12c-83 0 -134 12 -191 31v681h226c154 0 319 -87 319 -324c0 -263 -157 -388 -354 -388zM254 104c143 0 221 92 221 263c0 138 -70 220 -188 220h-106v-475c24 -5 48 -8 73 -8z" />
    <glyph glyph-name="E" unicode="E" horiz-adv-x="564" 
d="M58 0v700h460v-113h-337v-168h306v-111h-306v-195h337v-113h-460z" />
    <glyph glyph-name="F" unicode="F" horiz-adv-x="522" 
d="M58 0v700h453v-113h-330v-174h286v-111h-286v-302h-123z" />
    <glyph glyph-name="G" unicode="G" horiz-adv-x="639" 
d="M591 46c-54 -32 -124 -58 -217 -58c-212 0 -325 154 -325 360s122 357 344 357c77 0 139 -19 191 -50l-34 -104c-42 24 -87 39 -147 39c-145 0 -228 -96 -228 -242s76 -245 210 -245c33 0 60 5 86 14v266h120v-337z" />
    <glyph glyph-name="H" unicode="H" horiz-adv-x="648" 
d="M58 0v700h123v-280h286v280h123v-700h-123v307h-286v-307h-123z" />
    <glyph glyph-name="I" unicode="I" horiz-adv-x="268" 
d="M72 0v700h124v-700h-124z" />
    <glyph glyph-name="J" unicode="J" horiz-adv-x="472" 
d="M186 -12c-66 0 -130 21 -179 72l91 79c26 -28 55 -39 88 -39c54 0 110 31 110 147v453h123v-461c0 -194 -129 -251 -233 -251z" />
    <glyph glyph-name="K" unicode="K" horiz-adv-x="605" 
d="M445 0l-265 333v-333h-122v700h122v-295l247 295h144l-275 -324l298 -376h-149z" />
    <glyph glyph-name="L" unicode="L" horiz-adv-x="488" 
d="M58 0v700h123v-587h284v-113h-407z" />
    <glyph glyph-name="M" unicode="M" horiz-adv-x="889" 
d="M372 181l-125 360l-102 -541h-123l139 701h112c23 0 33 -8 43 -36l131 -375l153 411h106c25 0 38 -10 43 -41l118 -660h-119l-95 544l-147 -399h-92c-22 0 -33 9 -42 36z" />
    <glyph glyph-name="N" unicode="N" horiz-adv-x="656" 
d="M467 37l-292 447l3 -484h-120v701h68c27 0 45 -9 59 -31l296 -453l-3 483h120v-700h-63c-32 0 -52 11 -68 37z" />
    <glyph glyph-name="O" unicode="O" horiz-adv-x="678" 
d="M339 -12c-202 0 -291 169 -291 362c0 189 89 355 291 355c203 0 291 -166 291 -355c0 -193 -89 -362 -291 -362zM339 100c107 0 166 99 166 250c0 146 -59 243 -166 243c-109 0 -165 -97 -165 -243c0 -151 56 -250 165 -250z" />
    <glyph glyph-name="P" unicode="P" horiz-adv-x="584" 
d="M263 301c138 0 167 93 167 160c0 54 -23 126 -126 126h-123v-273c27 -9 55 -13 82 -13zM271 191c-30 0 -61 4 -90 12v-203h-123v700h240c197 0 265 -115 265 -238c0 -142 -91 -271 -292 -271z" />
    <glyph glyph-name="Q" unicode="Q" horiz-adv-x="678" 
d="M607 -88c-184 1 -371 50 -462 152c-66 68 -97 173 -97 286c0 189 89 355 291 355c203 0 291 -166 291 -355c0 -161 -70 -303 -235 -328c61 -13 134 -19 223 -19zM339 100c107 0 166 99 166 250c0 146 -59 243 -166 243c-109 0 -165 -97 -165 -243
c0 -151 56 -250 165 -250z" />
    <glyph glyph-name="R" unicode="R" horiz-adv-x="609" 
d="M263 313c138 0 167 89 167 155c0 51 -23 119 -126 119h-123v-262c27 -8 55 -12 82 -12zM264 202c-28 0 -57 4 -83 12v-214h-123v700h240c197 0 265 -112 265 -231c0 -94 -38 -182 -128 -229l150 -240h-134l-127 206c-19 -2 -39 -4 -60 -4z" />
    <glyph glyph-name="S" unicode="S" horiz-adv-x="563" 
d="M245 -11c-92 0 -156 21 -203 48l38 104c47 -25 102 -42 164 -42c110 0 156 42 156 98c0 51 -32 79 -112 100l-66 18c-117 32 -175 89 -175 185c0 112 93 204 262 204c86 0 146 -18 190 -37l-32 -105c-43 18 -94 33 -154 33c-104 0 -144 -41 -144 -92
c0 -44 35 -70 101 -86l61 -16c125 -32 191 -92 191 -193c0 -117 -86 -219 -277 -219z" />
    <glyph glyph-name="T" unicode="T" horiz-adv-x="555" 
d="M216 0v583l-191 19v98h506v-98l-192 -19v-583h-123z" />
    <glyph glyph-name="U" unicode="U" horiz-adv-x="652" 
d="M326 -12c-120 0 -273 62 -273 279v433h123v-425c0 -139 77 -175 150 -175s150 36 150 175v425h123v-433c0 -217 -153 -279 -273 -279z" />
    <glyph glyph-name="V" unicode="V" horiz-adv-x="640" 
d="M385 -6h-82c-35 0 -51 16 -61 46l-218 660h72c42 0 64 -17 75 -54l149 -497l165 551h131z" />
    <glyph glyph-name="W" unicode="W" horiz-adv-x="988" 
d="M618 38l-121 525l-137 -567h-117c-32 0 -46 11 -51 41l-153 663h83c32 0 46 -15 52 -44l113 -533l135 573h101c42 0 56 -15 64 -51l114 -517l123 572h125l-163 -704h-117c-32 0 -45 12 -51 42z" />
    <glyph glyph-name="X" unicode="X" horiz-adv-x="616" 
d="M436 32l-128 221l-148 -253h-136l216 356l-205 344h95c29 0 43 -11 57 -33l121 -206l139 239h133l-204 -343l215 -357h-101c-25 0 -42 10 -54 32z" />
    <glyph glyph-name="Y" unicode="Y" horiz-adv-x="601" 
d="M235 0v247l-220 453h93c31 0 53 -15 66 -46l124 -284l148 330h140l-226 -453v-247h-125z" />
    <glyph glyph-name="Z" unicode="Z" horiz-adv-x="561" 
d="M527 0h-493v23c0 47 4 65 24 96l302 468h-300v113h452v-30c0 -37 -4 -57 -18 -79l-305 -478h338v-113z" />
    <glyph glyph-name="Agrave" unicode="&#xc0;" horiz-adv-x="637" 
d="M297 739l-126 121h102c26 0 46 -11 59 -31l60 -90h-95zM397 291l-79 270l-79 -270h158zM481 0l-55 191h-216l-56 -191h-132l231 702h80c35 0 53 -12 64 -48l218 -654h-134z" />
    <glyph glyph-name="Aacute" unicode="&#xc1;" horiz-adv-x="637" 
d="M235 742l110 116h149l-156 -116h-103zM397 291l-79 270l-79 -270h158zM481 0l-55 191h-216l-56 -191h-132l231 702h80c35 0 53 -12 64 -48l218 -654h-134z" />
    <glyph glyph-name="Acircumflex" unicode="&#xc2;" horiz-adv-x="637" 
d="M376 742l-54 60l-57 -60h-116l118 117h72c24 0 37 -5 55 -22l100 -95h-118zM397 291l-79 270l-79 -270h158zM481 0l-55 191h-216l-56 -191h-132l231 702h80c35 0 53 -12 64 -48l218 -654h-134z" />
    <glyph glyph-name="Atilde" unicode="&#xc3;" horiz-adv-x="637" 
d="M163 742c-5 5 -12 21 -12 43c0 46 33 89 93 89c71 0 87 -51 134 -51c30 0 40 36 40 55h58c5 -9 8 -24 8 -40c0 -58 -42 -103 -96 -103c-72 0 -85 50 -130 50c-29 0 -38 -26 -38 -43h-57zM397 291l-79 270l-79 -270h158zM481 0l-55 191h-216l-56 -191h-132l231 702h80
c35 0 53 -12 64 -48l218 -654h-134z" />
    <glyph glyph-name="Adieresis" unicode="&#xc4;" horiz-adv-x="637" 
d="M424 732c-40 0 -70 31 -70 72s30 73 70 73c38 0 69 -32 69 -73s-31 -72 -69 -72zM211 732c-39 0 -70 31 -70 72s31 73 70 73c38 0 70 -32 70 -73s-32 -72 -70 -72zM397 291l-79 270l-79 -270h158zM481 0l-55 191h-216l-56 -191h-132l231 702h80c35 0 53 -12 64 -48
l218 -654h-134z" />
    <glyph glyph-name="AE" unicode="&#xc6;" horiz-adv-x="935" 
d="M319 279h144v236zM12 0l451 700h427v-113h-304v-168h272v-111h-272v-195h304v-113h-427v179h-206l-110 -179h-135z" />
    <glyph glyph-name="Ccedilla" unicode="&#xc7;" horiz-adv-x="580" 
d="M323 -253c-90 0 -137 57 -137 57l32 61s38 -46 101 -46c38 0 58 18 58 42c0 25 -21 40 -49 40c-36 0 -53 -22 -53 -22l-42 18l55 100c-156 36 -239 174 -239 353c0 204 114 355 322 355c70 0 126 -16 171 -43l-33 -105c-35 19 -75 33 -127 33c-132 0 -207 -96 -207 -240
c0 -150 75 -247 208 -247c55 0 93 15 129 34l32 -106c-46 -28 -100 -43 -172 -43h-14l-19 -36c6 1 12 1 19 1c51 0 104 -27 104 -94c0 -69 -55 -112 -139 -112z" />
    <glyph glyph-name="Egrave" unicode="&#xc8;" horiz-adv-x="564" 
d="M261 739l-126 121h101c26 0 46 -11 59 -31l61 -90h-95zM58 0v700h460v-113h-337v-168h306v-111h-306v-195h337v-113h-460z" />
    <glyph glyph-name="Eacute" unicode="&#xc9;" horiz-adv-x="564" 
d="M199 742l110 116h148l-155 -116h-103zM58 0v700h460v-113h-337v-168h306v-111h-306v-195h337v-113h-460z" />
    <glyph glyph-name="Ecircumflex" unicode="&#xca;" horiz-adv-x="564" 
d="M340 742l-55 60l-56 -60h-117l119 117h71c24 0 38 -5 55 -22l100 -95h-117zM58 0v700h460v-113h-337v-168h306v-111h-306v-195h337v-113h-460z" />
    <glyph glyph-name="Edieresis" unicode="&#xcb;" horiz-adv-x="564" 
d="M387 732c-39 0 -70 31 -70 72s31 73 70 73s70 -32 70 -73s-31 -72 -70 -72zM174 732c-39 0 -70 31 -70 72s31 73 70 73s70 -32 70 -73s-31 -72 -70 -72zM58 0v700h460v-113h-337v-168h306v-111h-306v-195h337v-113h-460z" />
    <glyph glyph-name="Igrave" unicode="&#xcc;" horiz-adv-x="268" 
d="M113 739l-126 121h102c25 0 45 -11 59 -31l60 -90h-95zM72 0v700h124v-700h-124z" />
    <glyph glyph-name="Iacute" unicode="&#xcd;" horiz-adv-x="268" 
d="M51 742l110 116h149l-156 -116h-103zM72 0v700h124v-700h-124z" />
    <glyph glyph-name="Icircumflex" unicode="&#xce;" horiz-adv-x="268" 
d="M192 742l-55 60l-56 -60h-117l119 117h72c24 0 37 -5 54 -22l101 -95h-118zM72 0v700h124v-700h-124z" />
    <glyph glyph-name="Idieresis" unicode="&#xcf;" horiz-adv-x="268" 
d="M239 732c-39 0 -70 31 -70 72s31 73 70 73s70 -32 70 -73s-31 -72 -70 -72zM26 732c-39 0 -69 31 -69 72s30 73 69 73s70 -32 70 -73s-31 -72 -70 -72zM72 0v700h124v-700h-124z" />
    <glyph glyph-name="Ldot" unicode="&#x13f;" horiz-adv-x="488" 
d="M58 0v700h123v-587h284v-113h-407zM407 299c-44 0 -78 33 -78 78c0 44 34 78 78 78s79 -34 79 -78c0 -45 -35 -78 -79 -78z" />
    <glyph glyph-name="Ntilde" unicode="&#xd1;" horiz-adv-x="656" 
d="M161 742c-5 5 -12 21 -12 43c0 46 33 89 93 89c71 0 87 -51 134 -51c30 0 40 36 40 55h57c5 -9 9 -24 9 -40c0 -58 -42 -103 -96 -103c-73 0 -86 50 -130 50c-29 0 -38 -26 -38 -43h-57zM467 37l-292 447l3 -484h-120v701h68c27 0 45 -9 59 -31l296 -453l-3 483h120v-700
h-63c-32 0 -52 11 -68 37z" />
    <glyph glyph-name="Ograve" unicode="&#xd2;" horiz-adv-x="678" 
d="M318 739l-126 121h102c26 0 45 -11 59 -31l60 -90h-95zM339 -12c-202 0 -291 169 -291 362c0 189 89 355 291 355c203 0 291 -166 291 -355c0 -193 -89 -362 -291 -362zM339 100c107 0 166 99 166 250c0 146 -59 243 -166 243c-109 0 -165 -97 -165 -243
c0 -151 56 -250 165 -250z" />
    <glyph glyph-name="Oacute" unicode="&#xd3;" horiz-adv-x="678" 
d="M256 742l110 116h149l-156 -116h-103zM339 -12c-202 0 -291 169 -291 362c0 189 89 355 291 355c203 0 291 -166 291 -355c0 -193 -89 -362 -291 -362zM339 100c107 0 166 99 166 250c0 146 -59 243 -166 243c-109 0 -165 -97 -165 -243c0 -151 56 -250 165 -250z" />
    <glyph glyph-name="Ocircumflex" unicode="&#xd4;" horiz-adv-x="678" 
d="M397 742l-55 60l-56 -60h-117l119 117h72c24 0 37 -5 54 -22l101 -95h-118zM339 -12c-202 0 -291 169 -291 362c0 189 89 355 291 355c203 0 291 -166 291 -355c0 -193 -89 -362 -291 -362zM339 100c107 0 166 99 166 250c0 146 -59 243 -166 243
c-109 0 -165 -97 -165 -243c0 -151 56 -250 165 -250z" />
    <glyph glyph-name="Otilde" unicode="&#xd5;" horiz-adv-x="678" 
d="M184 742c-5 5 -12 21 -12 43c0 46 33 89 93 89c71 0 87 -51 134 -51c30 0 40 36 40 55h57c5 -9 9 -24 9 -40c0 -58 -42 -103 -96 -103c-73 0 -86 50 -130 50c-29 0 -38 -26 -38 -43h-57zM339 -12c-202 0 -291 169 -291 362c0 189 89 355 291 355c203 0 291 -166 291 -355
c0 -193 -89 -362 -291 -362zM339 100c107 0 166 99 166 250c0 146 -59 243 -166 243c-109 0 -165 -97 -165 -243c0 -151 56 -250 165 -250z" />
    <glyph glyph-name="Odieresis" unicode="&#xd6;" horiz-adv-x="678" 
d="M444 732c-39 0 -69 31 -69 72s30 73 69 73s70 -32 70 -73s-31 -72 -70 -72zM232 732c-40 0 -70 31 -70 72s30 73 70 73c38 0 69 -32 69 -73s-31 -72 -69 -72zM339 -12c-202 0 -291 169 -291 362c0 189 89 355 291 355c203 0 291 -166 291 -355c0 -193 -89 -362 -291 -362
zM339 100c107 0 166 99 166 250c0 146 -59 243 -166 243c-109 0 -165 -97 -165 -243c0 -151 56 -250 165 -250z" />
    <glyph glyph-name="OE" unicode="&#x152;" horiz-adv-x="846" 
d="M398 0c-248 0 -350 163 -350 350c0 186 102 350 350 350h403v-113h-280v-168h248v-111h-248v-195h280v-113h-403zM398 112v476c-153 0 -224 -94 -224 -238s71 -238 224 -238z" />
    <glyph glyph-name="Ugrave" unicode="&#xd9;" horiz-adv-x="652" 
d="M305 739l-126 121h101c26 0 46 -11 59 -31l61 -90h-95zM326 -12c-120 0 -273 62 -273 279v433h123v-425c0 -139 77 -175 150 -175s150 36 150 175v425h123v-433c0 -217 -153 -279 -273 -279z" />
    <glyph glyph-name="Uacute" unicode="&#xda;" horiz-adv-x="652" 
d="M243 742l110 116h148l-155 -116h-103zM326 -12c-120 0 -273 62 -273 279v433h123v-425c0 -139 77 -175 150 -175s150 36 150 175v425h123v-433c0 -217 -153 -279 -273 -279z" />
    <glyph glyph-name="Ucircumflex" unicode="&#xdb;" horiz-adv-x="652" 
d="M384 742l-55 60l-56 -60h-117l119 117h71c24 0 38 -5 55 -22l100 -95h-117zM326 -12c-120 0 -273 62 -273 279v433h123v-425c0 -139 77 -175 150 -175s150 36 150 175v425h123v-433c0 -217 -153 -279 -273 -279z" />
    <glyph glyph-name="Udieresis" unicode="&#xdc;" horiz-adv-x="652" 
d="M431 732c-39 0 -70 31 -70 72s31 73 70 73s70 -32 70 -73s-31 -72 -70 -72zM218 732c-39 0 -70 31 -70 72s31 73 70 73s70 -32 70 -73s-31 -72 -70 -72zM326 -12c-120 0 -273 62 -273 279v433h123v-425c0 -139 77 -175 150 -175s150 36 150 175v425h123v-433
c0 -217 -153 -279 -273 -279z" />
    <glyph glyph-name="Ydieresis" unicode="&#x178;" horiz-adv-x="601" 
d="M407 732c-39 0 -70 31 -70 72s31 73 70 73s70 -32 70 -73s-31 -72 -70 -72zM194 732c-39 0 -69 31 -69 72s30 73 69 73s70 -32 70 -73s-31 -72 -70 -72zM235 0v247l-220 453h93c31 0 53 -15 66 -46l124 -284l148 330h140l-226 -453v-247h-125z" />
    <glyph glyph-name="a" unicode="a" horiz-adv-x="515" 
d="M253 78c34 0 72 14 92 40c0 69 -40 118 -101 118c-46 0 -85 -31 -85 -79c0 -47 38 -79 94 -79zM360 0l-10 56c-20 -35 -71 -68 -141 -68c-104 0 -172 70 -172 161c0 106 80 171 180 171c65 0 106 -27 128 -60v32c0 66 -24 116 -117 116c-55 0 -95 -17 -128 -35l-26 104
c46 23 114 35 167 35c163 0 217 -84 217 -204v-308h-98z" />
    <glyph glyph-name="b" unicode="b" horiz-adv-x="556" 
d="M259 -12c-90 0 -158 25 -197 47v715h119v-303c30 41 80 65 136 65c125 0 198 -96 198 -246c0 -180 -93 -278 -256 -278zM269 90c89 0 123 77 123 171c0 83 -29 148 -101 148c-55 0 -105 -45 -105 -153v-149c15 -9 42 -17 83 -17z" />
    <glyph glyph-name="c" unicode="c" horiz-adv-x="446" 
d="M292 -12c-165 0 -251 112 -251 262s86 262 251 262c49 0 92 -9 126 -26l-25 -101c-26 11 -55 20 -95 20c-86 0 -134 -62 -134 -155s48 -155 134 -155c40 0 69 9 96 21l24 -101c-35 -17 -77 -27 -126 -27z" />
    <glyph glyph-name="d" unicode="d" horiz-adv-x="556" 
d="M273 90c48 0 97 33 97 106v165c-13 21 -47 48 -93 48c-74 0 -113 -69 -113 -160c0 -86 31 -159 109 -159zM378 65c-27 -44 -82 -77 -143 -77c-118 0 -194 95 -194 258c0 158 82 266 214 266c51 0 93 -19 120 -45v283h119v-750h-106z" />
    <glyph glyph-name="e" unicode="e" horiz-adv-x="518" 
d="M266 411c-56 0 -87 -40 -97 -106h186c-1 53 -26 106 -89 106zM471 30c-50 -26 -102 -42 -178 -42c-174 0 -252 121 -252 262c0 139 68 262 225 262c153 0 209 -110 209 -252v-34h-309c5 -85 41 -137 136 -137c61 0 104 13 138 32z" />
    <glyph glyph-name="f" unicode="f" horiz-adv-x="392" 
d="M107 0v404l-89 16v80h89v96c0 111 61 166 199 166c24 0 61 -4 87 -14l-15 -99c-15 5 -32 9 -63 9c-46 0 -84 -18 -84 -74v-84h139v-83l-139 -17v-400h-124z" />
    <glyph glyph-name="g" unicode="g" horiz-adv-x="530" 
d="M236 -260c-127 -1 -219 49 -219 148c0 63 45 113 117 138c-19 14 -29 33 -29 54c0 43 33 72 89 88c-92 10 -159 72 -159 163c0 100 85 181 213 181c38 0 72 -7 100 -19l149 32l18 -81l-38 -9l-50 -3c22 -29 34 -65 34 -101c0 -107 -79 -160 -178 -184l-26 -7
c-20 -5 -28 -14 -28 -26c0 -13 11 -21 28 -24l74 -12c111 -19 165 -65 165 -145c0 -129 -127 -192 -260 -193zM250 234c56 0 93 36 93 92c0 47 -32 92 -96 92c-58 0 -95 -37 -95 -92c0 -52 35 -92 98 -92zM254 -163c58 0 117 25 117 84c0 33 -24 60 -82 67l-78 10l-11 2
c-39 -15 -66 -46 -66 -83c0 -54 52 -80 120 -80z" />
    <glyph glyph-name="h" unicode="h" horiz-adv-x="552" 
d="M186 306v-306h-124v750h119v-306c29 40 81 68 138 68c122 0 177 -77 177 -189v-323h-124v306c0 74 -40 104 -92 104c-46 0 -94 -30 -94 -104z" />
    <glyph glyph-name="i" unicode="i" horiz-adv-x="260" 
d="M130 569c-43 0 -75 33 -75 75s32 75 75 75c42 0 75 -33 75 -75s-33 -75 -75 -75zM68 0v500h124v-500h-124z" />
    <glyph glyph-name="j" unicode="j" horiz-adv-x="259" 
d="M129 569c-43 0 -75 33 -75 75s32 75 75 75c42 0 75 -33 75 -75s-33 -75 -75 -75zM16 -252c-22 0 -57 4 -78 12l14 96c9 -4 25 -8 41 -8c53 0 74 28 74 89v563h124v-573c0 -125 -61 -179 -175 -179z" />
    <glyph glyph-name="k" unicode="k" horiz-adv-x="537" 
d="M173 29c-13 -19 -31 -29 -58 -29h-53v750h118v-557l195 307h126l-151 -218l166 -282h-123l-110 187z" />
    <glyph glyph-name="l" unicode="l" horiz-adv-x="278" 
d="M205 -7c-92 0 -139 40 -139 129v628h123v-622c0 -22 11 -35 38 -35c11 0 21 2 27 6l14 -94c-17 -8 -46 -12 -63 -12z" />
    <glyph glyph-name="m" unicode="m" horiz-adv-x="859" 
d="M186 306v-306h-124v500h68c18 0 25 -5 30 -21l9 -40c30 43 86 73 148 73c79 0 131 -31 156 -84c27 51 89 84 153 84c122 0 176 -77 176 -189v-323h-124v306c0 74 -39 104 -90 104c-45 0 -92 -30 -92 -104v-306h-124v306c0 74 -40 104 -92 104c-46 0 -94 -30 -94 -104z
" />
    <glyph glyph-name="n" unicode="n" horiz-adv-x="552" 
d="M186 306v-306h-124v500h68c18 0 25 -5 30 -21l9 -40c30 43 86 73 148 73c124 0 179 -77 179 -189v-323h-124v306c0 74 -40 104 -92 104c-46 0 -94 -30 -94 -104z" />
    <glyph glyph-name="o" unicode="o" horiz-adv-x="532" 
d="M266 -12c-157 0 -225 123 -225 262s68 262 225 262s225 -123 225 -262s-68 -262 -225 -262zM266 89c70 0 101 64 101 161s-31 161 -101 161c-71 0 -101 -64 -101 -161s30 -161 101 -161z" />
    <glyph glyph-name="p" unicode="p" horiz-adv-x="556" 
d="M275 90c85 0 117 76 117 170c0 84 -29 149 -101 149c-55 0 -105 -45 -105 -153v-139c14 -9 45 -27 89 -27zM186 21v-271h-124v750h68c18 0 25 -5 29 -21l11 -49c28 51 84 82 147 82c125 0 198 -97 198 -248c0 -170 -78 -276 -216 -276c-43 0 -82 10 -113 33z" />
    <glyph glyph-name="q" unicode="q" horiz-adv-x="556" 
d="M494 -250h-124v300c-23 -33 -77 -62 -135 -62c-118 0 -194 95 -194 258c0 158 82 266 214 266c55 0 100 -22 126 -51l14 39h99v-750zM273 90c48 0 97 33 97 106v165c-13 21 -47 48 -93 48c-74 0 -113 -69 -113 -160c0 -86 31 -159 109 -159z" />
    <glyph glyph-name="r" unicode="r" horiz-adv-x="361" 
d="M186 274v-274h-124v500h68c18 0 25 -5 30 -21l12 -52c24 51 73 85 136 85c16 0 33 -3 46 -8l-27 -119c-11 5 -28 10 -46 10c-49 0 -95 -34 -95 -121z" />
    <glyph glyph-name="s" unicode="s" horiz-adv-x="472" 
d="M214 -12c-76 0 -134 19 -173 37l31 96c42 -16 87 -31 140 -31c75 0 96 28 96 54c0 31 -23 48 -69 58l-22 4c-116 21 -170 68 -170 149c0 69 60 157 205 157c75 0 122 -13 158 -29l-26 -98c-36 12 -75 25 -123 25c-68 0 -93 -22 -93 -50c0 -30 23 -43 68 -52l22 -5
c115 -22 171 -69 171 -149c0 -87 -64 -166 -215 -166z" />
    <glyph glyph-name="t" unicode="t" horiz-adv-x="392" 
d="M279 -8c-115 0 -175 54 -175 179v232l-89 17v80h89v145h124v-145h136v-87l-136 -16v-216c0 -61 21 -89 74 -89c17 0 34 5 45 10l15 -95c-23 -10 -59 -15 -83 -15z" />
    <glyph glyph-name="u" unicode="u" horiz-adv-x="552" 
d="M395 0l-10 71c-28 -47 -86 -83 -152 -83c-120 0 -173 77 -173 189v323h124v-306c0 -74 40 -104 91 -104c46 0 95 30 95 104v306h124v-500h-99z" />
    <glyph glyph-name="v" unicode="v" horiz-adv-x="512" 
d="M307 -9h-64c-30 0 -41 9 -52 38l-176 471h90c29 0 44 -11 52 -36l99 -312l111 348h130z" />
    <glyph glyph-name="w" unicode="w" horiz-adv-x="716" 
d="M568 -10h-65c-31 0 -46 10 -54 43l-87 338l-99 -380h-66c-32 0 -45 9 -54 41l-128 468h89c23 0 35 -10 40 -34l68 -316l94 350h80c24 0 34 -8 40 -29l86 -325l79 354h110z" />
    <glyph glyph-name="x" unicode="x" horiz-adv-x="512" 
d="M342 29l-84 135l-105 -164h-139l174 256l-164 244h103c27 0 39 -8 51 -26l78 -124l95 150h138l-164 -243l174 -257h-103c-23 0 -42 10 -54 29z" />
    <glyph glyph-name="y" unicode="y" horiz-adv-x="542" 
d="M256 -255c-65 0 -130 22 -167 52l26 96c33 -22 74 -44 132 -44c97 0 122 58 122 132v80c-29 -43 -82 -73 -141 -73c-117 0 -168 77 -168 189v323h124v-306c0 -74 38 -104 86 -104c44 0 90 30 90 104v306h124v-529c0 -132 -61 -226 -228 -226z" />
    <glyph glyph-name="z" unicode="z" horiz-adv-x="455" 
d="M424 0h-391v29c0 47 7 65 31 96l200 268l-212 -2v109h361v-31c0 -42 -6 -63 -28 -91l-204 -271l243 2v-109z" />
    <glyph glyph-name="agrave" unicode="&#xe0;" horiz-adv-x="515" 
d="M242 574l-116 151h93c26 0 45 -12 56 -32l58 -119h-91zM253 78c34 0 72 14 92 40c0 69 -40 118 -101 118c-46 0 -85 -31 -85 -79c0 -47 38 -79 94 -79zM360 0l-10 56c-20 -35 -71 -68 -141 -68c-104 0 -172 70 -172 161c0 106 80 171 180 171c65 0 106 -27 128 -60v32
c0 66 -24 116 -117 116c-55 0 -95 -17 -128 -35l-26 104c46 23 114 35 167 35c163 0 217 -84 217 -204v-308h-98z" />
    <glyph glyph-name="aacute" unicode="&#xe1;" horiz-adv-x="515" 
d="M179 574l100 151h135l-140 -151h-95zM253 78c34 0 72 14 92 40c0 69 -40 118 -101 118c-46 0 -85 -31 -85 -79c0 -47 38 -79 94 -79zM360 0l-10 56c-20 -35 -71 -68 -141 -68c-104 0 -172 70 -172 161c0 106 80 171 180 171c65 0 106 -27 128 -60v32
c0 66 -24 116 -117 116c-55 0 -95 -17 -128 -35l-26 104c46 23 114 35 167 35c163 0 217 -84 217 -204v-308h-98z" />
    <glyph glyph-name="acircumflex" unicode="&#xe2;" horiz-adv-x="515" 
d="M311 574l-49 82l-50 -82h-106l105 151h65c31 0 46 -10 62 -34l79 -117h-106zM253 78c34 0 72 14 92 40c0 69 -40 118 -101 118c-46 0 -85 -31 -85 -79c0 -47 38 -79 94 -79zM360 0l-10 56c-20 -35 -71 -68 -141 -68c-104 0 -172 70 -172 161c0 106 80 171 180 171
c65 0 106 -27 128 -60v32c0 66 -24 116 -117 116c-55 0 -95 -17 -128 -35l-26 104c46 23 114 35 167 35c163 0 217 -84 217 -204v-308h-98z" />
    <glyph glyph-name="atilde" unicode="&#xe3;" horiz-adv-x="515" 
d="M118 577c-4 5 -10 22 -10 44c0 47 30 91 85 91c64 0 80 -53 122 -53c28 0 36 38 36 57h54c4 -9 7 -24 7 -40c0 -60 -38 -107 -87 -107c-67 0 -79 53 -120 53c-26 0 -33 -27 -33 -45h-54zM253 78c34 0 72 14 92 40c0 69 -40 118 -101 118c-46 0 -85 -31 -85 -79
c0 -47 38 -79 94 -79zM360 0l-10 56c-20 -35 -71 -68 -141 -68c-104 0 -172 70 -172 161c0 106 80 171 180 171c65 0 106 -27 128 -60v32c0 66 -24 116 -117 116c-55 0 -95 -17 -128 -35l-26 104c46 23 114 35 167 35c163 0 217 -84 217 -204v-308h-98z" />
    <glyph glyph-name="adieresis" unicode="&#xe4;" horiz-adv-x="515" 
d="M359 568c-39 0 -70 32 -70 73c0 40 31 73 70 73s70 -33 70 -73c0 -41 -31 -73 -70 -73zM161 568c-39 0 -70 32 -70 73c0 40 31 73 70 73s70 -33 70 -73c0 -41 -31 -73 -70 -73zM253 78c34 0 72 14 92 40c0 69 -40 118 -101 118c-46 0 -85 -31 -85 -79
c0 -47 38 -79 94 -79zM360 0l-10 56c-20 -35 -71 -68 -141 -68c-104 0 -172 70 -172 161c0 106 80 171 180 171c65 0 106 -27 128 -60v32c0 66 -24 116 -117 116c-55 0 -95 -17 -128 -35l-26 104c46 23 114 35 167 35c163 0 217 -84 217 -204v-308h-98z" />
    <glyph glyph-name="ae" unicode="&#xe6;" horiz-adv-x="826" 
d="M476 307h186v6c0 50 -28 98 -89 98c-58 0 -87 -41 -97 -104zM219 -12c-110 0 -181 71 -181 162c0 105 81 170 182 170c61 0 100 -18 126 -41v23c0 61 -29 106 -117 106c-56 0 -95 -17 -129 -35l-25 104c46 23 114 35 167 35c86 0 141 -24 174 -65c36 40 88 65 157 65
c153 0 210 -110 210 -252v-32h-310c0 -8 2 -19 3 -26c10 -71 48 -113 134 -113c61 0 103 13 138 32l30 -91c-50 -26 -102 -42 -178 -42c-93 0 -157 32 -195 86c-28 -39 -94 -86 -186 -86zM256 78c44 0 94 26 108 69c-4 13 -8 27 -11 42c-23 28 -58 47 -104 47
c-48 0 -89 -30 -89 -78s39 -80 96 -80z" />
    <glyph glyph-name="ccedilla" unicode="&#xe7;" horiz-adv-x="446" 
d="M247 -253c-90 0 -138 57 -138 57l32 61s39 -46 101 -46c39 0 59 18 59 42c0 25 -21 40 -50 40c-35 0 -53 -22 -53 -22l-41 18l55 101c-113 30 -171 129 -171 252c0 150 86 262 251 262c49 0 92 -9 126 -26l-25 -101c-26 11 -55 20 -95 20c-86 0 -134 -62 -134 -155
s48 -155 134 -155c40 0 69 9 96 21l24 -101c-35 -17 -77 -27 -126 -27h-10l-19 -36c6 1 12 1 19 1c51 0 104 -27 104 -94c0 -69 -56 -112 -139 -112z" />
    <glyph glyph-name="egrave" unicode="&#xe8;" horiz-adv-x="518" 
d="M231 574l-116 151h93c26 0 45 -12 56 -32l58 -119h-91zM266 411c-56 0 -87 -40 -97 -106h186c-1 53 -26 106 -89 106zM471 30c-50 -26 -102 -42 -178 -42c-174 0 -252 121 -252 262c0 139 68 262 225 262c153 0 209 -110 209 -252v-34h-309c5 -85 41 -137 136 -137
c61 0 104 13 138 32z" />
    <glyph glyph-name="eacute" unicode="&#xe9;" horiz-adv-x="518" 
d="M180 574l101 151h135l-140 -151h-96zM266 411c-56 0 -87 -40 -97 -106h186c-1 53 -26 106 -89 106zM471 30c-50 -26 -102 -42 -178 -42c-174 0 -252 121 -252 262c0 139 68 262 225 262c153 0 209 -110 209 -252v-34h-309c5 -85 41 -137 136 -137c61 0 104 13 138 32z
" />
    <glyph glyph-name="ecircumflex" unicode="&#xea;" horiz-adv-x="518" 
d="M312 574l-49 82l-49 -82h-107l106 151h65c30 0 45 -10 61 -34l80 -117h-107zM266 411c-56 0 -87 -40 -97 -106h186c-1 53 -26 106 -89 106zM471 30c-50 -26 -102 -42 -178 -42c-174 0 -252 121 -252 262c0 139 68 262 225 262c153 0 209 -110 209 -252v-34h-309
c5 -85 41 -137 136 -137c61 0 104 13 138 32z" />
    <glyph glyph-name="edieresis" unicode="&#xeb;" horiz-adv-x="518" 
d="M361 568c-40 0 -70 32 -70 73c0 40 30 73 70 73c38 0 69 -33 69 -73c0 -41 -31 -73 -69 -73zM163 568c-40 0 -70 32 -70 73c0 40 30 73 70 73c38 0 69 -33 69 -73c0 -41 -31 -73 -69 -73zM266 411c-56 0 -87 -40 -97 -106h186c-1 53 -26 106 -89 106zM471 30
c-50 -26 -102 -42 -178 -42c-174 0 -252 121 -252 262c0 139 68 262 225 262c153 0 209 -110 209 -252v-34h-309c5 -85 41 -137 136 -137c61 0 104 13 138 32z" />
    <glyph glyph-name="igrave" unicode="&#xec;" horiz-adv-x="260" 
d="M21 726h94c24 0 41 -12 47 -33l35 -119h-93zM68 0v500h124v-500h-124z" />
    <glyph glyph-name="iacute" unicode="&#xed;" horiz-adv-x="260" 
d="M72 574l60 151h130l-97 -151h-93zM68 0v500h124v-500h-124z" />
    <glyph glyph-name="icircumflex" unicode="&#xee;" horiz-adv-x="260" 
d="M173 566l-43 87l-43 -87h-100l90 158h69c30 0 47 -10 60 -33l66 -125h-99zM68 0v500h124v-500h-124z" />
    <glyph glyph-name="idieresis" unicode="&#xef;" horiz-adv-x="260" 
d="M217 574c-36 0 -64 29 -64 67c0 37 28 67 64 67s65 -30 65 -67c0 -38 -29 -67 -65 -67zM53 574c-36 0 -65 29 -65 67c0 37 29 67 65 67c35 0 64 -30 64 -67c0 -38 -29 -67 -64 -67zM68 0v500h124v-500h-124z" />
    <glyph glyph-name="dotlessi" unicode="&#x131;" horiz-adv-x="259" 
d="M68 0v500h124v-500h-124z" />
    <glyph glyph-name="ldot" unicode="&#x140;" horiz-adv-x="486" 
d="M205 -7c-91 0 -138 40 -138 129v628h123v-622c0 -22 11 -35 38 -35c11 0 21 2 27 6l14 -94c-17 -8 -46 -12 -64 -12zM376 212c-44 0 -78 34 -78 79c0 43 34 78 78 78s79 -35 79 -78c0 -45 -35 -79 -79 -79z" />
    <glyph glyph-name="ntilde" unicode="&#xf1;" horiz-adv-x="552" 
d="M137 577c-5 5 -11 22 -11 44c0 47 30 91 85 91c65 0 80 -53 123 -53c27 0 36 38 36 57h54c3 -9 7 -24 7 -40c0 -60 -38 -107 -88 -107c-66 0 -78 53 -120 53c-25 0 -33 -27 -33 -45h-53zM186 306v-306h-124v500h68c18 0 25 -5 30 -21l9 -40c30 43 86 73 148 73
c124 0 179 -77 179 -189v-323h-124v306c0 74 -40 104 -92 104c-46 0 -94 -30 -94 -104z" />
    <glyph glyph-name="ograve" unicode="&#xf2;" horiz-adv-x="532" 
d="M238 574l-116 151h93c26 0 45 -12 55 -32l59 -119h-91zM266 -12c-157 0 -225 123 -225 262s68 262 225 262s225 -123 225 -262s-68 -262 -225 -262zM266 89c70 0 101 64 101 161s-31 161 -101 161c-71 0 -101 -64 -101 -161s30 -161 101 -161z" />
    <glyph glyph-name="oacute" unicode="&#xf3;" horiz-adv-x="532" 
d="M187 574l100 151h135l-139 -151h-96zM266 -12c-157 0 -225 123 -225 262s68 262 225 262s225 -123 225 -262s-68 -262 -225 -262zM266 89c70 0 101 64 101 161s-31 161 -101 161c-71 0 -101 -64 -101 -161s30 -161 101 -161z" />
    <glyph glyph-name="ocircumflex" unicode="&#xf4;" horiz-adv-x="532" 
d="M319 574l-49 82l-50 -82h-106l105 151h66c30 0 45 -10 61 -34l79 -117h-106zM266 -12c-157 0 -225 123 -225 262s68 262 225 262s225 -123 225 -262s-68 -262 -225 -262zM266 89c70 0 101 64 101 161s-31 161 -101 161c-71 0 -101 -64 -101 -161s30 -161 101 -161z" />
    <glyph glyph-name="otilde" unicode="&#xf5;" horiz-adv-x="532" 
d="M126 577c-4 5 -10 22 -10 44c0 47 30 91 85 91c65 0 80 -53 123 -53c27 0 35 38 35 57h55c3 -9 7 -24 7 -40c0 -60 -39 -107 -88 -107c-67 0 -79 53 -120 53c-26 0 -33 -27 -33 -45h-54zM266 -12c-157 0 -225 123 -225 262s68 262 225 262s225 -123 225 -262
s-68 -262 -225 -262zM266 89c70 0 101 64 101 161s-31 161 -101 161c-71 0 -101 -64 -101 -161s30 -161 101 -161z" />
    <glyph glyph-name="odieresis" unicode="&#xf6;" horiz-adv-x="532" 
d="M367 568c-39 0 -70 32 -70 73c0 40 31 73 70 73s70 -33 70 -73c0 -41 -31 -73 -70 -73zM169 568c-39 0 -70 32 -70 73c0 40 31 73 70 73s70 -33 70 -73c0 -41 -31 -73 -70 -73zM266 -12c-157 0 -225 123 -225 262s68 262 225 262s225 -123 225 -262s-68 -262 -225 -262z
M266 89c70 0 101 64 101 161s-31 161 -101 161c-71 0 -101 -64 -101 -161s30 -161 101 -161z" />
    <glyph glyph-name="oe" unicode="&#x153;" horiz-adv-x="848" 
d="M267 -12c-157 0 -225 123 -225 262s68 262 225 262c74 0 128 -29 164 -74c36 45 90 74 164 74c153 0 209 -110 209 -252v-32h-309c0 -8 1 -16 2 -24c10 -71 48 -115 134 -115c61 0 104 13 138 32l31 -91c-50 -26 -102 -42 -178 -42c-85 0 -148 31 -188 78
c-35 -47 -90 -78 -167 -78zM498 306h186v8c0 51 -27 97 -86 97c-60 0 -90 -43 -100 -105zM267 89c70 0 101 64 101 161s-31 161 -101 161c-71 0 -101 -64 -101 -161s30 -161 101 -161z" />
    <glyph glyph-name="germandbls" unicode="&#xdf;" horiz-adv-x="619" 
d="M402 -12c-65 0 -115 14 -150 28l28 97c34 -12 74 -24 118 -24c56 0 81 26 81 56c0 33 -21 47 -65 66l-73 31c-49 19 -86 58 -86 115c0 53 31 94 69 121l48 34c26 19 44 39 44 70c0 40 -42 71 -96 71c-83 0 -133 -60 -133 -152v-501h-124v503c0 164 120 252 254 252
c138 0 218 -81 218 -165c0 -59 -30 -102 -72 -131l-47 -34c-20 -15 -39 -32 -39 -56s18 -40 41 -49l52 -22c95 -36 129 -86 129 -152c0 -82 -62 -158 -197 -158z" />
    <glyph glyph-name="ugrave" unicode="&#xf9;" horiz-adv-x="552" 
d="M246 574l-116 151h93c26 0 45 -12 56 -32l58 -119h-91zM395 0l-10 71c-28 -47 -86 -83 -152 -83c-120 0 -173 77 -173 189v323h124v-306c0 -74 40 -104 91 -104c46 0 95 30 95 104v306h124v-500h-99z" />
    <glyph glyph-name="uacute" unicode="&#xfa;" horiz-adv-x="552" 
d="M195 574l100 151h136l-140 -151h-96zM395 0l-10 71c-28 -47 -86 -83 -152 -83c-120 0 -173 77 -173 189v323h124v-306c0 -74 40 -104 91 -104c46 0 95 30 95 104v306h124v-500h-99z" />
    <glyph glyph-name="ucircumflex" unicode="&#xfb;" horiz-adv-x="552" 
d="M327 574l-49 82l-50 -82h-106l105 151h66c30 0 45 -10 61 -34l80 -117h-107zM395 0l-10 71c-28 -47 -86 -83 -152 -83c-120 0 -173 77 -173 189v323h124v-306c0 -74 40 -104 91 -104c46 0 95 30 95 104v306h124v-500h-99z" />
    <glyph glyph-name="udieresis" unicode="&#xfc;" horiz-adv-x="552" 
d="M375 568c-39 0 -69 32 -69 73c0 40 30 73 69 73s70 -33 70 -73c0 -41 -31 -73 -70 -73zM177 568c-39 0 -69 32 -69 73c0 40 30 73 69 73s70 -33 70 -73c0 -41 -31 -73 -70 -73zM395 0l-10 71c-28 -47 -86 -83 -152 -83c-120 0 -173 77 -173 189v323h124v-306
c0 -74 40 -104 91 -104c46 0 95 30 95 104v306h124v-500h-99z" />
    <glyph glyph-name="ydieresis" unicode="&#xff;" horiz-adv-x="542" 
d="M375 568c-39 0 -69 32 -69 73c0 40 30 73 69 73s70 -33 70 -73c0 -41 -31 -73 -70 -73zM177 568c-39 0 -69 32 -69 73c0 40 30 73 69 73s70 -33 70 -73c0 -41 -31 -73 -70 -73zM256 -255c-65 0 -130 22 -167 52l26 96c33 -22 74 -44 132 -44c97 0 122 58 122 132v80
c-29 -43 -82 -73 -141 -73c-117 0 -168 77 -168 189v323h124v-306c0 -74 38 -104 86 -104c44 0 90 30 90 104v306h124v-529c0 -132 -61 -226 -228 -226z" />
    <glyph glyph-name="onehalf" unicode="&#xbd;" horiz-adv-x="844" 
d="M118 0l500 700h108l-501 -700h-107zM297 329h-257v80h84v190l-79 -34v85l86 40c19 9 37 14 58 14h24v-295h84v-80zM552 0v72c0 57 45 82 83 107l31 18c28 18 44 34 44 58c0 25 -21 44 -59 44c-26 0 -56 -8 -82 -22l-22 71c31 14 71 27 114 27c86 0 140 -43 140 -107
c0 -57 -39 -94 -82 -121l-29 -18c-22 -14 -39 -28 -39 -39v-9h153v-81h-252z" />
    <glyph glyph-name="onethird" unicode="&#x2153;" horiz-adv-x="821" 
d="M114 0l500 700h107l-500 -700h-107zM297 329h-257v80h84v190l-79 -34v85l86 40c19 9 37 14 58 14h24v-295h84v-80zM627 -8c-41 0 -77 8 -106 21l27 74c22 -9 44 -14 73 -14c43 0 55 21 55 42c0 25 -19 39 -56 39h-44v73h43c28 0 46 13 46 37c0 20 -12 36 -49 36
c-27 0 -49 -7 -73 -15l-20 70c23 11 71 20 106 20c89 0 127 -42 127 -95c0 -36 -23 -72 -47 -85c31 -10 58 -43 58 -83c0 -67 -41 -120 -140 -120z" />
    <glyph glyph-name="onequarter" unicode="&#xbc;" horiz-adv-x="742" 
d="M105 0l501 700h107l-500 -700h-108zM297 329h-257v80h84v190l-79 -34v85l86 40c19 9 37 14 58 14h24v-295h84v-80zM590 151v143l-85 -143h85zM714 79h-41v-79h-83v79h-162v68l142 225h103v-221h41v-72z" />
    <glyph glyph-name="onefifth" horiz-adv-x="816" 
d="M110 0l500 700h107l-500 -700h-107zM297 329h-257v80h84v190l-79 -34v85l86 40c19 9 37 14 58 14h24v-295h84v-80zM615 -8c-38 0 -75 7 -98 20l28 76c17 -7 47 -15 72 -15c48 0 76 21 76 57c0 25 -20 46 -58 46c-19 0 -36 -6 -47 -13l-46 11v198h223v-81h-145v-56
c14 5 30 8 47 8c60 0 113 -35 113 -109c0 -84 -56 -142 -165 -142z" />
    <glyph glyph-name="onesixth" horiz-adv-x="757" 
d="M91 0l500 700h107l-500 -700h-107zM297 329h-257v80h84v190l-79 -34v85l86 40c19 9 37 14 58 14h24v-295h84v-80zM732 129c0 -77 -54 -137 -135 -137c-88 0 -151 70 -151 183v13c0 139 93 187 175 187c48 0 73 -12 84 -19l-15 -74c-14 8 -39 16 -71 16
c-46 -1 -79 -22 -83 -94c19 21 47 36 83 36c73 0 113 -55 113 -111zM594 73c28 0 48 22 48 50c0 25 -15 50 -48 50c-24 0 -47 -14 -58 -37c6 -36 27 -63 58 -63z" />
    <glyph glyph-name="uni2150" unicode="&#x2150;" horiz-adv-x="815" 
d="M98 0l501 700h107l-500 -700h-108zM297 329h-257v80h84v190l-79 -34v85l86 40c19 9 37 14 58 14h24v-295h84v-80zM658 0h-99c14 118 71 221 127 291h-169v81h259l2 -58c-49 -65 -107 -183 -120 -314z" />
    <glyph glyph-name="oneeighth" unicode="&#x215b;" horiz-adv-x="791" 
d="M116 0l500 700h108l-501 -700h-107zM297 329h-257v80h84v190l-79 -34v85l86 40c19 9 37 14 58 14h24v-295h84v-80zM620 -8c-81 0 -136 40 -136 103c0 38 22 73 72 88c-38 19 -59 46 -59 89c0 59 50 103 126 103s126 -39 126 -92c0 -40 -22 -65 -56 -78
c48 -21 69 -55 69 -98c0 -71 -57 -115 -142 -115zM632 223l4 -1c19 11 28 27 28 44c0 24 -17 40 -41 40c-23 0 -41 -15 -41 -38c0 -21 16 -38 50 -45zM623 63c31 0 54 20 54 49c0 25 -16 39 -49 47l-11 3c-34 -7 -48 -30 -48 -50c0 -29 23 -49 54 -49z" />
    <glyph glyph-name="uni2151" unicode="&#x2151;" horiz-adv-x="800" 
d="M112 0l501 700h107l-501 -700h-107zM297 329h-257v80h84v190l-79 -34v85l86 40c19 9 37 14 58 14h24v-295h84v-80zM636 188c22 0 39 7 50 16v18c0 41 -18 73 -57 73c-31 0 -51 -23 -51 -52c0 -30 21 -55 58 -55zM611 -8c-44 0 -83 15 -99 30l17 73c17 -14 47 -24 85 -24
c39 0 68 19 72 77c-17 -13 -40 -23 -72 -23c-81 0 -126 51 -126 118c0 75 57 132 142 132c89 0 146 -64 146 -169v-28c0 -141 -75 -186 -165 -186z" />
    <glyph glyph-name="twothirds" unicode="&#x2154;" horiz-adv-x="799" 
d="M43 329v71c0 57 45 83 84 107l30 19c29 17 45 33 45 58c0 24 -22 44 -59 44c-26 0 -56 -8 -82 -22l-22 71c31 14 70 26 114 26c85 0 140 -43 140 -107c0 -56 -39 -93 -82 -121l-29 -17c-23 -14 -39 -29 -39 -40v-9h152v-80h-252zM98 0l500 700h107l-500 -700h-107z
M605 -8c-41 0 -76 8 -106 21l27 74c23 -9 44 -14 73 -14c43 0 56 21 56 42c0 25 -20 39 -56 39h-44v73h42c29 0 46 13 46 37c0 20 -11 36 -48 36c-27 0 -49 -7 -74 -15l-20 70c24 11 71 20 106 20c89 0 127 -42 127 -95c0 -36 -23 -72 -47 -85c32 -10 59 -43 59 -83
c0 -67 -42 -120 -141 -120z" />
    <glyph glyph-name="twofifths" horiz-adv-x="789" 
d="M43 329v71c0 57 45 83 84 107l30 19c29 17 45 33 45 58c0 24 -22 44 -59 44c-26 0 -56 -8 -82 -22l-22 71c31 14 70 26 114 26c85 0 140 -43 140 -107c0 -56 -39 -93 -82 -121l-29 -17c-23 -14 -39 -29 -39 -40v-9h152v-80h-252zM93 0l501 700h107l-501 -700h-107z
M588 -8c-38 0 -75 7 -98 20l28 76c17 -7 47 -15 72 -15c48 0 76 21 76 57c0 25 -20 46 -58 46c-19 0 -36 -6 -47 -13l-46 11v198h223v-81h-145v-56c14 5 30 8 47 8c60 0 113 -35 113 -109c0 -84 -56 -142 -165 -142z" />
    <glyph glyph-name="threequarters" unicode="&#xbe;" horiz-adv-x="699" 
d="M60 0l501 700h107l-500 -700h-108zM142 321c-42 0 -77 7 -107 20l27 75c23 -10 44 -14 73 -14c43 0 56 21 56 41c0 26 -20 40 -56 40h-44v73h42c29 0 46 13 46 36c0 21 -11 37 -48 37c-27 0 -49 -7 -74 -16l-20 71c24 10 71 19 107 19c88 0 126 -41 126 -94
c0 -36 -23 -72 -46 -86c31 -9 58 -42 58 -82c0 -67 -41 -120 -140 -120zM546 151v143l-85 -143h85zM671 79h-42v-79h-83v79h-161v68l142 225h102v-221h42v-72z" />
    <glyph glyph-name="threefifths" horiz-adv-x="763" 
d="M60 0l501 700h107l-500 -700h-108zM142 321c-42 0 -77 7 -107 20l27 75c23 -10 44 -14 73 -14c43 0 56 21 56 41c0 26 -20 40 -56 40h-44v73h42c29 0 46 13 46 36c0 21 -11 37 -48 37c-27 0 -49 -7 -74 -16l-20 71c24 10 71 19 107 19c88 0 126 -41 126 -94
c0 -36 -23 -72 -46 -86c31 -9 58 -42 58 -82c0 -67 -41 -120 -140 -120zM561 -8c-38 0 -75 7 -98 20l29 76c16 -7 46 -15 71 -15c49 0 76 21 76 57c0 25 -20 46 -58 46c-18 0 -36 -6 -47 -13l-46 11v198h223v-81h-144v-56c13 5 29 8 47 8c59 0 112 -35 112 -109
c0 -84 -56 -142 -165 -142z" />
    <glyph glyph-name="fourfifths" horiz-adv-x="781" 
d="M89 0l500 700h107l-500 -700h-107zM188 479v144l-85 -144h85zM312 408h-41v-79h-83v79h-162v67l142 225h103v-221h41v-71zM580 -8c-39 0 -76 7 -98 20l28 76c17 -7 46 -15 72 -15c48 0 76 21 76 57c0 25 -21 46 -58 46c-19 0 -37 -6 -47 -13l-46 11v198h222v-81h-144v-56
c13 5 29 8 47 8c59 0 113 -35 113 -109c0 -84 -56 -142 -165 -142z" />
    <glyph glyph-name="zero" unicode="0" horiz-adv-x="580" 
d="M289 -12c-178 0 -256 169 -256 362c0 187 78 352 256 352c180 0 258 -165 258 -352c0 -193 -78 -362 -258 -362zM289 100c86 0 133 99 133 250c0 144 -47 240 -133 240s-131 -96 -131 -240c0 -151 45 -250 131 -250z" />
    <glyph glyph-name="one" unicode="1" horiz-adv-x="580" 
d="M524 0h-466v113h171v447l-162 -68v120l160 70c32 14 61 21 92 21h34v-590h171v-113z" />
    <glyph glyph-name="two" unicode="2" horiz-adv-x="580" 
d="M62 0v112c0 105 82 156 160 204l68 42c59 36 100 76 100 134c0 59 -48 106 -139 106c-52 0 -108 -15 -155 -38l-32 100c51 23 118 45 198 45c166 0 257 -87 257 -197c0 -109 -77 -176 -161 -227l-65 -40c-53 -32 -93 -66 -93 -106v-21h320v-114h-458z" />
    <glyph glyph-name="three" unicode="3" horiz-adv-x="580" 
d="M248 -12c-76 0 -142 14 -190 34l38 104c39 -16 85 -27 146 -27c113 0 146 55 146 109c0 68 -49 103 -140 103h-81v102h79c79 0 118 44 118 95c0 50 -29 91 -125 91c-56 0 -103 -12 -146 -29l-28 100c44 19 126 35 188 35c167 0 238 -79 238 -176
c0 -68 -42 -132 -102 -161c73 -19 125 -82 125 -162c0 -121 -76 -218 -266 -218z" />
    <glyph glyph-name="four" unicode="4" horiz-adv-x="580" 
d="M348 271v293l-187 -293h187zM552 165h-84v-165h-120v165h-311v99l285 436h146v-429h84v-106z" />
    <glyph glyph-name="five" unicode="5" horiz-adv-x="580" 
d="M224 -12c-70 0 -132 14 -171 34l40 107c30 -14 82 -29 135 -29c103 0 175 51 175 145c0 73 -57 121 -143 121c-42 0 -83 -10 -109 -24l-66 21v337h413v-112h-290v-131c27 8 57 13 91 13c118 0 227 -68 227 -218c0 -163 -116 -264 -302 -264z" />
    <glyph glyph-name="six" unicode="6" horiz-adv-x="580" 
d="M545 243c0 -141 -95 -255 -239 -255c-155 0 -261 129 -261 332v25c0 269 160 360 304 360c84 0 128 -22 150 -35l-24 -107c-27 14 -71 30 -129 29c-91 -1 -163 -52 -174 -209c37 46 91 80 162 80c141 0 211 -108 211 -220zM303 99c71 0 116 61 116 133
c0 60 -36 125 -117 125c-58 0 -109 -38 -132 -86c3 -80 47 -172 133 -172z" />
    <glyph glyph-name="seven" unicode="7" horiz-adv-x="580" 
d="M281 0h-138c31 252 155 458 261 588h-351v112h477l6 -84c-92 -119 -227 -348 -255 -616z" />
    <glyph glyph-name="eight" unicode="8" horiz-adv-x="580" 
d="M288 -12c-150 0 -250 77 -250 199c0 77 44 143 129 174c-65 35 -101 83 -101 158c0 106 90 186 224 186s225 -78 225 -182c0 -72 -40 -120 -95 -145c83 -39 122 -101 122 -182c0 -128 -102 -208 -254 -208zM296 416l27 -7c45 23 67 59 67 99c0 60 -42 98 -101 98
c-57 0 -99 -36 -99 -93c0 -52 38 -80 106 -97zM289 90c78 0 133 45 133 111c0 55 -38 87 -109 108l-47 14c-69 -21 -106 -67 -106 -121c0 -66 54 -112 129 -112z" />
    <glyph glyph-name="nine" unicode="9" horiz-adv-x="580" 
d="M290 335c54 0 96 22 121 45v30c0 96 -38 183 -130 183c-74 0 -121 -54 -121 -128c0 -66 41 -130 130 -130zM251 -12c-84 0 -147 25 -175 49l27 102c32 -22 83 -41 150 -41c85 0 146 43 156 183c-34 -29 -81 -51 -146 -51c-152 0 -229 105 -229 231c0 139 100 244 249 244
c158 0 253 -119 253 -311v-60c0 -268 -132 -346 -285 -346z" />
    <glyph glyph-name="dollar" unicode="$" horiz-adv-x="569" 
d="M163 504c0 -43 31 -69 87 -85v173c-61 -14 -87 -49 -87 -88zM410 197c0 45 -24 72 -79 92v-183c55 17 79 51 79 91zM331 -117h-81v105h-2c-89 0 -149 18 -196 43l36 102c45 -22 98 -37 158 -37h4v214l-24 6c-121 29 -183 87 -183 182c0 96 71 182 207 202v89h81v-84
c73 -2 126 -16 167 -33l-30 -103c-41 14 -86 27 -137 29v-197l2 -1c128 -29 197 -89 197 -191c0 -96 -60 -188 -199 -214v-112z" />
    <glyph glyph-name="cent" unicode="&#xa2;" horiz-adv-x="486" 
d="M416 110c-30 -14 -65 -24 -105 -26v-96h-93v103c-118 27 -180 127 -180 254s62 227 180 255v105h93v-98c40 -2 75 -11 104 -26l-25 -101c-26 12 -55 20 -95 20c-85 0 -134 -62 -134 -155s49 -155 134 -155c40 0 70 9 96 21z" />
    <glyph glyph-name="sterling" unicode="&#xa3;" horiz-adv-x="584" 
d="M543 112v-112h-495v112h37c86 0 137 45 137 117c0 8 0 16 -1 23h-146v90h87l-23 21c-46 40 -83 85 -83 150c0 113 101 192 250 192c84 0 154 -21 205 -45l-32 -100c-49 24 -107 38 -162 38c-82 0 -134 -39 -134 -97c0 -34 19 -60 41 -81l53 -51c9 -8 17 -17 24 -27h164
v-90h-131c1 -6 1 -13 1 -20c0 -49 -22 -92 -53 -120h261z" />
    <glyph glyph-name="uni0192" unicode="&#x192;" horiz-adv-x="465" 
d="M1 -250c-22 0 -56 5 -77 13l25 96c8 -3 24 -8 40 -8c53 0 77 28 83 89l41 418h-103l11 89h97l7 72c13 121 85 186 229 186c34 0 85 -9 108 -20l-34 -96c-17 6 -36 11 -71 11c-55 0 -102 -24 -110 -93l-6 -60h154l-10 -91h-150l-41 -428c-12 -124 -78 -178 -193 -178z" />
    <glyph glyph-name="yen" unicode="&#xa5;" horiz-adv-x="601" 
d="M493 81h-133v-81h-125v81h-132v77h132v47h-132v78h132v29l-220 388h140l143 -272l148 272h140l-226 -388v-29h133v-78h-133v-47h133v-77z" />
    <glyph glyph-name="Euro" unicode="&#x20ac;" horiz-adv-x="559" 
d="M444 6c-27 -12 -62 -18 -102 -18c-154 0 -250 98 -281 248h-69l20 86h39c-1 9 -1 19 -1 28s0 18 1 26h-59l20 87h50c31 146 127 242 279 242c65 0 112 -16 155 -37l-26 -105c-32 14 -71 27 -118 27c-80 0 -135 -47 -160 -127h229l-21 -87h-223c-1 -8 -1 -17 -1 -26
c0 -10 0 -19 1 -28h208l-20 -86h-174c25 -85 81 -133 162 -133c49 0 87 11 119 27z" />
    <glyph glyph-name="zero.sups" 
d="M167 417c-101 0 -145 92 -145 193c0 99 44 187 145 187c102 0 146 -88 146 -187c0 -101 -44 -193 -146 -193zM167 498c33 0 57 36 57 112c0 73 -24 107 -57 107s-55 -34 -55 -107c0 -76 22 -112 55 -112z" />
    <glyph glyph-name="one.sups" 
d="M297 425h-257v81h84v189l-79 -34v86l86 40c19 8 37 13 58 13h24v-294h84v-81z" />
    <glyph glyph-name="two.sups" 
d="M43 425v72c0 57 45 82 84 107l30 18c29 18 45 34 45 58c0 25 -22 44 -59 44c-26 0 -56 -8 -82 -22l-22 71c31 14 70 27 114 27c85 0 140 -43 140 -107c0 -57 -39 -94 -82 -121l-29 -18c-23 -14 -39 -28 -39 -39v-9h152v-81h-252z" />
    <glyph glyph-name="three.sups" horiz-adv-x="327" 
d="M142 417c-42 0 -77 8 -107 21l27 74c23 -9 44 -14 73 -14c43 0 56 21 56 42c0 25 -20 39 -56 39h-44v73h42c29 0 46 13 46 37c0 20 -11 36 -48 36c-27 0 -49 -7 -74 -15l-20 70c24 11 71 20 107 20c88 0 126 -42 126 -95c0 -36 -23 -72 -46 -85c31 -10 58 -43 58 -83
c0 -67 -41 -120 -140 -120z" />
    <glyph glyph-name="four.sups" 
d="M188 576v143l-85 -143h85zM312 504h-41v-79h-83v79h-162v68l142 225h103v-221h41v-72z" />
    <glyph glyph-name="five.sups" 
d="M134 417c-38 0 -75 7 -98 20l29 76c16 -7 46 -15 71 -15c49 0 76 21 76 57c0 25 -20 46 -58 46c-18 0 -36 -6 -47 -13l-46 11v198h223v-81h-144v-56c13 5 29 8 47 8c59 0 112 -35 112 -109c0 -84 -56 -142 -165 -142z" />
    <glyph glyph-name="six.sups" 
d="M311 554c0 -77 -55 -137 -135 -137c-88 0 -151 70 -151 183v13c0 139 93 187 175 187c47 0 72 -12 84 -19l-15 -74c-14 8 -39 16 -71 16c-46 -1 -79 -22 -83 -94c19 21 47 36 82 36c73 0 114 -55 114 -111zM173 498c28 0 48 22 48 50c0 25 -16 50 -48 50
c-24 0 -47 -14 -58 -37c5 -36 26 -63 58 -63z" />
    <glyph glyph-name="seven.sups" 
d="M178 425h-98c13 118 71 221 126 291h-168v81h259l1 -58c-48 -65 -106 -183 -120 -314z" />
    <glyph glyph-name="eight.sups" 
d="M165 417c-82 0 -136 40 -136 103c0 38 22 73 72 88c-39 19 -59 46 -59 89c0 59 50 103 126 103c75 0 126 -39 126 -92c0 -40 -22 -65 -56 -78c48 -21 69 -55 69 -98c0 -71 -57 -115 -142 -115zM177 648l4 -1c19 11 28 27 28 44c0 24 -17 40 -41 40c-23 0 -42 -15 -42 -38
c0 -21 17 -38 51 -45zM168 488c31 0 54 20 54 49c0 25 -16 39 -49 47l-11 3c-34 -7 -48 -30 -48 -50c0 -29 23 -49 54 -49z" />
    <glyph glyph-name="nine.sups" 
d="M172 613c22 0 39 7 50 16v18c0 41 -18 73 -57 73c-31 0 -52 -23 -52 -52c0 -30 22 -55 59 -55zM147 417c-44 0 -83 15 -99 30l16 73c18 -14 47 -24 85 -24c40 0 69 19 73 77c-17 -13 -40 -23 -72 -23c-81 0 -126 51 -126 118c0 75 57 132 142 132c89 0 146 -64 146 -169
v-28c0 -141 -75 -186 -165 -186z" />
    <glyph glyph-name="a.sups" horiz-adv-x="385" 
d="M192 488c19 0 42 8 56 22v3c-2 46 -29 78 -67 78c-28 0 -52 -19 -52 -50s26 -53 63 -53zM261 425l-8 40c-15 -25 -50 -49 -101 -49c-75 0 -122 53 -122 117c0 76 57 121 130 121c47 0 74 -18 89 -42v14c0 49 -17 86 -81 86c-40 0 -68 -13 -92 -27l-20 83
c34 18 86 26 124 26c120 0 161 -62 161 -151v-218h-80z" />
    <glyph glyph-name="b.sups" horiz-adv-x="416" 
d="M196 416c-68 0 -120 19 -148 35v514h97v-214c22 27 56 43 95 43c88 0 143 -67 143 -178c0 -135 -70 -200 -187 -200zM203 498c58 0 80 49 80 113c0 59 -20 100 -65 100c-37 0 -69 -32 -69 -103v-98c10 -6 27 -12 54 -12z" />
    <glyph glyph-name="c.sups" horiz-adv-x="337" 
d="M218 416c-120 0 -186 79 -186 189s66 189 186 189c36 0 66 -6 90 -18l-19 -82c-19 7 -39 13 -66 13c-55 0 -90 -38 -90 -102s35 -102 90 -102c27 0 48 6 66 14l19 -82c-24 -12 -54 -19 -90 -19z" />
    <glyph glyph-name="d.sups" horiz-adv-x="416" 
d="M204 499c31 0 63 21 63 68v111c-9 14 -31 33 -62 33c-46 0 -72 -44 -72 -106c0 -60 20 -106 71 -106zM273 471c-20 -32 -60 -55 -102 -55c-83 0 -139 64 -139 187c0 115 60 191 155 191c36 0 65 -13 84 -31v202h97v-540h-87z" />
    <glyph glyph-name="e.sups" horiz-adv-x="387" 
d="M200 715c-36 0 -56 -24 -63 -71h122c-1 36 -17 71 -59 71zM350 446c-37 -18 -75 -30 -131 -30c-129 0 -187 87 -187 189c0 100 51 189 166 189c113 0 154 -80 154 -186v-24h-217c4 -57 28 -87 92 -87c44 0 73 10 98 23z" />
    <glyph glyph-name="f.sups" horiz-adv-x="297" 
d="M80 425v283l-62 12v65h62v67c0 82 45 122 147 122c18 0 46 -3 65 -11l-12 -80c-10 3 -21 7 -44 7c-30 0 -55 -12 -55 -48v-57h96v-67l-96 -14v-279h-101z" />
    <glyph glyph-name="g.sups" horiz-adv-x="400" 
d="M177 238c-94 -1 -160 35 -160 105c0 44 29 80 80 97c-14 10 -22 24 -22 40c0 33 26 54 68 67c-64 7 -113 50 -113 116c0 73 63 131 157 131c28 0 53 -5 74 -13l108 22l15 -64l-27 -6l-34 -2c14 -20 21 -44 21 -68c0 -79 -58 -116 -134 -135l-15 -3c-14 -4 -18 -9 -18 -18
c0 -8 7 -13 18 -15l52 -8c83 -14 122 -48 122 -105c0 -95 -95 -141 -192 -141zM188 598c38 0 60 24 60 60c0 32 -21 61 -62 61c-37 0 -61 -24 -61 -61c0 -34 23 -60 63 -60zM192 316c37 0 75 15 75 53c0 21 -17 38 -55 43l-57 7l-7 1c-22 -10 -37 -28 -37 -51
c0 -36 36 -53 81 -53z" />
    <glyph glyph-name="h.sups" horiz-adv-x="415" 
d="M149 643v-218h-101v540h97v-219c21 28 57 48 99 48c90 0 127 -57 127 -137v-232h-102v218c0 48 -26 68 -59 68c-30 0 -61 -19 -61 -68z" />
    <glyph glyph-name="i.sups" horiz-adv-x="204" 
d="M102 828c-36 0 -64 27 -64 64c0 36 28 64 64 64s64 -28 64 -64c0 -37 -28 -64 -64 -64zM51 425v360h102v-360h-102z" />
    <glyph glyph-name="j.sups" horiz-adv-x="203" 
d="M102 828c-37 0 -65 27 -65 64c0 36 28 64 65 64c36 0 64 -28 64 -64c0 -37 -28 -64 -64 -64zM20 243c-16 0 -43 4 -59 9l11 78c6 -1 17 -5 29 -5c37 0 50 20 50 59v401h101v-409c0 -91 -42 -133 -132 -133z" />
    <glyph glyph-name="k.sups" horiz-adv-x="397" 
d="M132 447c-10 -15 -22 -22 -43 -22h-41v540h96v-373l139 208h101l-119 -167l128 -208h-104l-80 129z" />
    <glyph glyph-name="l.sups" horiz-adv-x="219" 
d="M159 419c-73 0 -108 32 -108 101v445h100v-439c0 -15 8 -24 27 -24c7 0 14 0 18 3l11 -77c-13 -5 -35 -9 -48 -9z" />
    <glyph glyph-name="m.sups" horiz-adv-x="634" 
d="M149 643v-218h-101v360h57c14 0 19 -4 23 -16l7 -26c22 29 61 51 107 51c56 0 92 -21 111 -57c21 34 63 57 110 57c90 0 127 -57 127 -137v-232h-101v218c0 48 -26 68 -58 68c-30 0 -60 -19 -60 -68v-218h-102v218c0 48 -26 68 -59 68c-30 0 -61 -19 -61 -68z" />
    <glyph glyph-name="n.sups" horiz-adv-x="415" 
d="M149 643v-218h-101v360h57c14 0 19 -4 23 -16l7 -26c22 29 61 51 107 51c91 0 129 -57 129 -137v-232h-102v218c0 48 -26 68 -59 68c-30 0 -61 -19 -61 -68z" />
    <glyph glyph-name="o.sups" horiz-adv-x="396" 
d="M198 416c-116 0 -166 89 -166 189s50 189 166 189s165 -89 165 -189s-49 -189 -165 -189zM198 498c43 0 64 39 64 107s-21 107 -64 107c-44 0 -64 -39 -64 -107s20 -107 64 -107z" />
    <glyph glyph-name="p.sups" horiz-adv-x="416" 
d="M206 498c55 0 77 48 77 113c0 58 -20 100 -65 100c-37 0 -69 -32 -69 -103v-92c7 -3 28 -18 57 -18zM149 439v-194h-101v540h56c14 0 20 -4 23 -16l8 -32c21 35 59 57 105 57c88 0 143 -67 143 -179c0 -126 -58 -199 -155 -199c-31 0 -58 8 -79 23z" />
    <glyph glyph-name="q.sups" horiz-adv-x="416" 
d="M368 245h-101v213c-17 -23 -56 -42 -96 -42c-83 0 -139 64 -139 187c0 115 60 191 155 191c40 0 71 -16 90 -36l10 27h81v-540zM204 499c31 0 63 21 63 68v111c-9 14 -31 33 -62 33c-46 0 -72 -44 -72 -106c0 -60 20 -106 71 -106z" />
    <glyph glyph-name="r.sups" horiz-adv-x="279" 
d="M149 618v-193h-101v360h57c14 0 19 -4 23 -16l9 -35c17 35 52 60 98 60c11 0 23 -2 32 -6l-22 -96c-8 4 -20 7 -33 7c-33 0 -63 -23 -63 -81z" />
    <glyph glyph-name="s.sups" horiz-adv-x="356" 
d="M161 416c-54 0 -100 16 -128 28l25 78c33 -13 65 -24 103 -24c47 0 60 16 60 33c0 19 -13 30 -44 34c-97 12 -139 48 -139 110c0 51 43 119 151 119c57 0 92 -10 118 -21l-21 -79c-27 8 -56 18 -89 18c-44 0 -60 -13 -60 -32s15 -28 46 -32c94 -12 137 -48 137 -109
c0 -64 -48 -123 -159 -123z" />
    <glyph glyph-name="t.sups" horiz-adv-x="298" 
d="M209 416c-90 0 -132 41 -132 132v158l-62 14v65h62v104h102v-104h94v-71l-94 -12v-146c0 -39 12 -59 49 -59c13 0 24 4 31 7l12 -78c-17 -7 -44 -10 -62 -10z" />
    <glyph glyph-name="u.sups" horiz-adv-x="415" 
d="M289 425l-7 51c-20 -33 -61 -60 -112 -60c-86 0 -123 57 -123 137v232h101v-218c0 -49 26 -68 60 -68c30 0 60 19 60 67v219h102v-360h-81z" />
    <glyph glyph-name="v.sups" horiz-adv-x="389" 
d="M237 419h-54c-24 0 -33 7 -41 29l-127 337h107l72 -235l73 235h106z" />
    <glyph glyph-name="w.sups" horiz-adv-x="514" 
d="M312 451l-52 221l-61 -253h-54c-24 0 -35 6 -41 31l-89 335h101l43 -229l56 229h71c14 0 19 -5 22 -17l51 -207l47 224h92l-91 -366h-54c-25 0 -35 7 -41 32z" />
    <glyph glyph-name="x.sups" horiz-adv-x="395" 
d="M252 444l-53 90l-67 -109h-113l124 183l-117 177h89c18 0 26 -5 32 -16l51 -84l60 100h111l-115 -175l123 -185h-88c-16 0 -29 6 -37 19z" />
    <glyph glyph-name="y.sups" horiz-adv-x="415" 
d="M198 241c-50 0 -100 16 -127 38l20 78c24 -17 56 -31 99 -31c69 0 86 40 86 92v50c-22 -30 -60 -52 -106 -52c-86 0 -123 57 -123 137v232h101v-218c0 -48 26 -68 60 -68c30 0 60 19 60 68v218h102v-375c0 -99 -46 -169 -172 -169z" />
    <glyph glyph-name="z.sups" horiz-adv-x="346" 
d="M318 425h-289v25c0 37 5 51 24 75l131 173l-140 -2v89h265v-27c0 -34 -5 -50 -21 -72l-134 -174l164 2v-89z" />
    <glyph glyph-name="period.sups" horiz-adv-x="208" 
d="M104 416c-37 0 -65 28 -65 64s28 64 65 64c36 0 64 -28 64 -64s-28 -64 -64 -64z" />
    <glyph glyph-name="comma.sups" horiz-adv-x="204" 
d="M38 322l-18 28c31 20 52 54 52 88c0 25 -16 44 -30 51c0 30 25 55 59 55c43 0 64 -34 64 -71c0 -79 -78 -137 -127 -151z" />
    <glyph glyph-name="hyphen.sups" horiz-adv-x="454" 
d="M66 563v91h322v-91h-322z" />
    <glyph glyph-name="parenleft.sups" horiz-adv-x="278" 
d="M190 301c-53 55 -127 188 -127 359c0 127 40 232 82 301h95c-41 -73 -78 -178 -78 -301c0 -161 64 -292 118 -359h-90z" />
    <glyph glyph-name="parenright.sups" horiz-adv-x="278" 
d="M-3 301c54 67 119 198 119 359c0 123 -37 227 -78 301h94c42 -70 82 -174 82 -301c0 -171 -73 -304 -127 -359h-90z" />
    <glyph glyph-name="plus.sups" horiz-adv-x="454" 
d="M388 601h-115v-115h-92v115h-115v92h115v115h92v-115h115v-92z" />
    <glyph glyph-name="minus.sups" horiz-adv-x="454" 
d="M66 601v92h322v-92h-322z" />
    <glyph glyph-name="multiply.sups" horiz-adv-x="454" 
d="M309 501l-82 81l-81 -82l-65 66l81 81l-81 82l65 64l81 -81l82 82l64 -65l-81 -82l81 -81z" />
    <glyph glyph-name="equal.sups" horiz-adv-x="454" 
d="M66 667v87h322v-87h-322zM66 527v86h322v-86h-322z" />
    <glyph glyph-name="divide.sups" horiz-adv-x="454" 
d="M227 726c-34 0 -59 25 -59 59c0 33 25 59 59 59c33 0 60 -26 60 -59c0 -34 -27 -59 -60 -59zM66 605v84h322v-84h-322zM227 449c-33 0 -59 25 -59 59c0 33 25 60 59 60c33 0 60 -27 60 -60c0 -34 -28 -59 -60 -59z" />
    <glyph glyph-name="dollar.sups" horiz-adv-x="324" 
d="M192 363h-58v54c-46 1 -77 12 -101 25l26 72c26 -13 54 -20 81 -20c50 0 71 15 71 39s-18 33 -52 41l-36 9c-62 16 -95 49 -95 100c0 53 38 97 104 112v49h58v-44c46 -1 72 -10 91 -18l-20 -72c-24 7 -51 14 -76 14c-49 0 -71 -15 -71 -36c0 -19 17 -31 47 -37l31 -7
c65 -14 106 -45 106 -102c0 -54 -33 -104 -106 -120v-59z" />
    <glyph glyph-name="cent.sups" horiz-adv-x="276" 
d="M230 482c-14 -7 -30 -11 -49 -13v-52h-63v57c-62 16 -96 66 -96 134c0 69 34 119 96 135v57h63v-52c20 -1 36 -6 50 -12l-17 -72c-13 5 -26 8 -44 8c-33 0 -60 -19 -60 -64c0 -44 27 -63 60 -63c18 0 31 3 44 9z" />
    <glyph glyph-name="sterling.sups" horiz-adv-x="332" 
d="M304 506v-81h-274v81h24c46 0 72 15 72 46v7h-91v45h54l-5 4c-28 25 -49 51 -49 89c0 61 58 103 143 103c42 0 83 -13 113 -27l-22 -71c-25 14 -59 22 -85 22c-40 0 -61 -20 -61 -44c0 -15 11 -29 20 -37l32 -29c3 -4 6 -7 9 -10h82v-45h-67v-1c0 -22 -11 -40 -28 -52
h133z" />
    <glyph glyph-name="florin.sups" horiz-adv-x="270" 
d="M16 292c-12 0 -34 2 -47 7l16 68c4 -1 12 -4 21 -4c26 0 35 14 37 38l18 199h-49l7 63h46l3 34c7 68 47 103 129 103c19 0 52 -7 65 -14l-24 -68c-8 4 -17 8 -37 8c-22 0 -43 -10 -46 -39l-3 -24h76l-7 -64h-72l-18 -206c-6 -68 -40 -101 -115 -101z" />
    <glyph glyph-name="yen.sups" horiz-adv-x="389" 
d="M305 475h-66v-50h-87v50h-68v42h68v24h-68v43h68v18l-137 183h97l83 -122l90 122h88l-134 -183v-18h66v-43h-66v-24h66v-42z" />
    <glyph glyph-name="Euro.sups" horiz-adv-x="320" 
d="M229 619h-226l10 48h28c17 80 72 133 157 133c34 0 58 -7 82 -19l-17 -76c-17 8 -37 12 -56 12c-33 0 -59 -17 -72 -50h105zM248 426c-13 -6 -31 -9 -50 -9c-81 0 -136 50 -154 127h-41l10 49h210l-11 -49h-72c14 -29 38 -43 69 -43c20 0 39 4 56 12z" />
    <glyph glyph-name="zero.subs" 
d="M167 -148c-101 0 -145 92 -145 193c0 98 44 187 145 187c102 0 146 -89 146 -187c0 -101 -44 -193 -146 -193zM167 -67c33 0 57 35 57 112c0 73 -24 106 -57 106s-55 -33 -55 -106c0 -76 22 -112 55 -112z" />
    <glyph glyph-name="one.subs" 
d="M297 -140h-257v80h84v190l-79 -34v85l86 40c19 9 37 14 58 14h24v-295h84v-80z" />
    <glyph glyph-name="two.subs" 
d="M43 -140v71c0 57 45 83 84 107l30 19c29 17 45 33 45 58c0 24 -22 44 -59 44c-26 0 -56 -8 -82 -22l-22 71c31 14 70 26 114 26c85 0 140 -43 140 -107c0 -56 -39 -93 -82 -121l-29 -17c-23 -14 -39 -29 -39 -40v-9h152v-80h-252z" />
    <glyph glyph-name="three.subs" 
d="M142 -148c-42 0 -77 7 -107 20l27 75c23 -10 44 -14 73 -14c43 0 56 21 56 41c0 26 -20 40 -56 40h-44v73h42c29 0 46 13 46 36c0 21 -11 37 -48 37c-27 0 -49 -7 -74 -16l-20 71c24 10 71 19 107 19c88 0 126 -41 126 -94c0 -36 -23 -72 -46 -86c31 -9 58 -42 58 -82
c0 -67 -41 -120 -140 -120z" />
    <glyph glyph-name="four.subs" 
d="M188 10v144l-85 -144h85zM312 -61h-41v-79h-83v79h-162v67l142 225h103v-221h41v-71z" />
    <glyph glyph-name="five.subs" 
d="M134 -148c-38 0 -75 7 -98 20l29 76c16 -7 46 -15 71 -15c49 0 76 21 76 56c0 25 -20 46 -58 46c-18 0 -36 -5 -47 -13l-46 12v197h223v-80h-144v-56c13 4 29 8 47 8c59 0 112 -35 112 -109c0 -85 -56 -142 -165 -142z" />
    <glyph glyph-name="six.subs" 
d="M311 -12c0 -76 -55 -136 -135 -136c-88 0 -151 70 -151 183v12c0 140 93 187 175 187c47 0 72 -12 84 -18l-15 -74c-14 7 -39 15 -71 15c-46 -1 -79 -21 -83 -93c19 21 47 35 82 35c73 0 114 -55 114 -111zM173 -67c28 0 48 21 48 49c0 26 -16 51 -48 51
c-24 0 -47 -14 -58 -38c5 -35 26 -62 58 -62z" />
    <glyph glyph-name="seven.subs" 
d="M178 -140h-98c13 117 71 220 126 291h-168v80h259l1 -57c-48 -65 -106 -184 -120 -314z" />
    <glyph glyph-name="eight.subs" 
d="M165 -148c-82 0 -136 40 -136 103c0 38 22 73 72 88c-39 19 -59 46 -59 88c0 60 50 103 126 103c75 0 126 -38 126 -91c0 -40 -22 -65 -56 -78c48 -21 69 -55 69 -99c0 -70 -57 -114 -142 -114zM177 82l4 -1c19 11 28 28 28 45c0 24 -17 40 -41 40c-23 0 -42 -16 -42 -38
s17 -39 51 -46zM168 -77c31 0 54 20 54 49c0 25 -16 38 -49 47l-11 3c-34 -7 -48 -31 -48 -50c0 -29 23 -49 54 -49z" />
    <glyph glyph-name="nine.subs" 
d="M172 48c22 0 39 7 50 15v18c0 41 -18 73 -57 73c-31 0 -52 -22 -52 -52c0 -29 22 -54 59 -54zM147 -148c-44 0 -83 15 -99 29l16 74c18 -15 47 -25 85 -25c40 0 69 19 73 78c-17 -13 -40 -23 -72 -23c-81 0 -126 51 -126 117c0 76 57 132 142 132c89 0 146 -64 146 -168
v-28c0 -141 -75 -186 -165 -186z" />
    <glyph glyph-name="a.subs" horiz-adv-x="385" 
d="M192 -78c19 0 42 8 56 23v2c-2 47 -29 78 -67 78c-28 0 -52 -19 -52 -50s26 -53 63 -53zM261 -141l-8 40c-15 -25 -50 -49 -101 -49c-75 0 -122 53 -122 117c0 76 57 121 130 121c47 0 74 -18 89 -41v13c0 50 -17 86 -81 86c-40 0 -68 -13 -92 -26l-20 82
c34 18 86 26 124 26c120 0 161 -62 161 -151v-218h-80z" />
    <glyph glyph-name="b.subs" horiz-adv-x="416" 
d="M196 -150c-68 0 -120 19 -148 35v514h97v-214c22 27 56 43 95 43c88 0 143 -67 143 -178c0 -134 -70 -200 -187 -200zM203 -68c58 0 80 49 80 114c0 58 -20 99 -65 99c-37 0 -69 -31 -69 -103v-98c10 -6 27 -12 54 -12z" />
    <glyph glyph-name="c.subs" horiz-adv-x="337" 
d="M218 -150c-120 0 -186 79 -186 189s66 189 186 189c36 0 66 -6 90 -18l-19 -82c-19 8 -39 13 -66 13c-55 0 -90 -37 -90 -102c0 -64 35 -102 90 -102c27 0 48 6 66 14l19 -82c-24 -12 -54 -19 -90 -19z" />
    <glyph glyph-name="d.subs" horiz-adv-x="416" 
d="M204 -67c31 0 63 21 63 68v111c-9 14 -31 33 -62 33c-46 0 -72 -44 -72 -106c0 -59 20 -106 71 -106zM273 -95c-20 -32 -60 -55 -102 -55c-83 0 -139 65 -139 187c0 115 60 191 155 191c36 0 65 -13 84 -31v202h97v-540h-87z" />
    <glyph glyph-name="e.subs" horiz-adv-x="387" 
d="M200 150c-36 0 -56 -25 -63 -71h122c-1 35 -17 71 -59 71zM350 -120c-37 -18 -75 -30 -131 -30c-129 0 -187 87 -187 189c0 100 51 189 166 189c113 0 154 -80 154 -186v-24h-217c4 -56 28 -87 92 -87c44 0 73 10 98 23z" />
    <glyph glyph-name="f.subs" horiz-adv-x="297" 
d="M80 -141v283l-62 12v65h62v68c0 82 45 122 147 122c18 0 46 -3 65 -12l-12 -80c-10 3 -21 7 -44 7c-30 0 -55 -11 -55 -48v-57h96v-67l-96 -14v-279h-101z" />
    <glyph glyph-name="g.subs" horiz-adv-x="400" 
d="M177 -328c-94 -1 -160 35 -160 105c0 44 29 80 80 97c-14 10 -22 24 -22 40c0 33 26 54 68 67c-64 7 -113 50 -113 116c0 73 63 131 157 131c28 0 53 -5 74 -13l108 22l15 -64l-27 -6l-34 -1c14 -21 21 -45 21 -69c0 -78 -58 -116 -134 -135l-15 -3
c-14 -3 -18 -9 -18 -18c0 -8 7 -13 18 -14l52 -9c83 -14 122 -47 122 -105c0 -95 -95 -140 -192 -141zM188 33c38 0 60 24 60 60c0 31 -21 60 -62 60c-37 0 -61 -24 -61 -60c0 -35 23 -60 63 -60zM192 -249c37 0 75 14 75 52c0 21 -17 39 -55 43l-57 7l-7 1
c-22 -10 -37 -28 -37 -50c0 -37 36 -53 81 -53z" />
    <glyph glyph-name="h.subs" horiz-adv-x="415" 
d="M149 77v-218h-101v540h97v-219c21 28 57 48 99 48c90 0 127 -57 127 -137v-232h-102v218c0 48 -26 68 -59 68c-30 0 -61 -19 -61 -68z" />
    <glyph glyph-name="i.subs" horiz-adv-x="204" 
d="M102 262c-36 0 -64 27 -64 64c0 36 28 65 64 65s64 -29 64 -65c0 -37 -28 -64 -64 -64zM51 -141v360h102v-360h-102z" />
    <glyph glyph-name="j.subs" horiz-adv-x="203" 
d="M102 262c-37 0 -65 27 -65 64c0 36 28 65 65 65c36 0 64 -29 64 -65c0 -37 -28 -64 -64 -64zM20 -322c-16 0 -43 3 -59 9l11 78c6 -2 17 -6 29 -6c37 0 50 20 50 60v400h101v-408c0 -92 -42 -133 -132 -133z" />
    <glyph glyph-name="k.subs" horiz-adv-x="407" 
d="M132 -119c-10 -15 -22 -22 -43 -22h-41v540h96v-373l139 208h101l-119 -167l128 -208h-104l-80 129z" />
    <glyph glyph-name="l.subs" horiz-adv-x="219" 
d="M159 -146c-73 0 -108 32 -108 100v445h100v-439c0 -15 8 -24 27 -24c7 0 14 0 18 3l11 -76c-13 -6 -35 -9 -48 -9z" />
    <glyph glyph-name="m.subs" horiz-adv-x="634" 
d="M149 77v-218h-101v360h57c14 0 19 -4 23 -16l7 -26c22 29 61 51 107 51c56 0 92 -21 111 -57c21 34 63 57 110 57c90 0 127 -57 127 -137v-232h-101v218c0 48 -26 68 -58 68c-30 0 -60 -19 -60 -68v-218h-102v218c0 48 -26 68 -59 68c-30 0 -61 -19 -61 -68z" />
    <glyph glyph-name="n.subs" horiz-adv-x="415" 
d="M149 77v-218h-101v360h57c14 0 19 -4 23 -16l7 -26c22 29 61 51 107 51c91 0 129 -57 129 -137v-232h-102v218c0 48 -26 68 -59 68c-30 0 -61 -19 -61 -68z" />
    <glyph glyph-name="o.subs" horiz-adv-x="396" 
d="M198 -150c-116 0 -166 89 -166 189s50 189 166 189s165 -89 165 -189s-49 -189 -165 -189zM198 -68c43 0 64 39 64 107s-21 107 -64 107c-44 0 -64 -39 -64 -107s20 -107 64 -107z" />
    <glyph glyph-name="p.subs" horiz-adv-x="416" 
d="M206 -68c55 0 77 49 77 113c0 58 -20 100 -65 100c-37 0 -69 -31 -69 -103v-92c7 -3 28 -18 57 -18zM149 -127v-194h-101v540h56c14 0 20 -4 23 -16l8 -32c21 35 59 57 105 57c88 0 143 -67 143 -179c0 -126 -58 -199 -155 -199c-31 0 -58 8 -79 23z" />
    <glyph glyph-name="q.subs" horiz-adv-x="416" 
d="M368 -321h-101v213c-17 -23 -56 -42 -96 -42c-83 0 -139 65 -139 187c0 115 60 191 155 191c40 0 71 -16 90 -36l10 27h81v-540zM204 -67c31 0 63 21 63 68v111c-9 14 -31 33 -62 33c-46 0 -72 -44 -72 -106c0 -59 20 -106 71 -106z" />
    <glyph glyph-name="r.subs" horiz-adv-x="279" 
d="M149 52v-193h-101v360h57c14 0 19 -4 23 -16l9 -35c17 36 52 60 98 60c11 0 23 -2 32 -6l-22 -96c-8 5 -20 8 -33 8c-33 0 -63 -24 -63 -82z" />
    <glyph glyph-name="s.subs" horiz-adv-x="356" 
d="M161 -149c-54 0 -100 15 -128 27l25 78c33 -12 65 -24 103 -24c47 0 60 16 60 33c0 19 -13 30 -44 34c-97 12 -139 49 -139 110c0 51 43 119 151 119c57 0 92 -9 118 -21l-21 -79c-27 9 -56 18 -89 18c-44 0 -60 -13 -60 -32s15 -27 46 -31c94 -13 137 -49 137 -110
c0 -64 -48 -122 -159 -122z" />
    <glyph glyph-name="t.subs" horiz-adv-x="298" 
d="M209 -150c-90 0 -132 42 -132 133v157l-62 14v65h62v105h102v-105h94v-71l-94 -12v-145c0 -40 12 -59 49 -59c13 0 24 3 31 6l12 -78c-17 -7 -44 -10 -62 -10z" />
    <glyph glyph-name="u.subs" horiz-adv-x="415" 
d="M289 -141l-7 51c-20 -33 -61 -60 -112 -60c-86 0 -123 57 -123 137v232h101v-218c0 -48 26 -68 60 -68c30 0 60 20 60 67v219h102v-360h-81z" />
    <glyph glyph-name="v.subs" horiz-adv-x="389" 
d="M237 -147h-54c-24 0 -33 7 -41 29l-127 337h107l72 -234l73 234h106z" />
    <glyph glyph-name="w.subs" horiz-adv-x="514" 
d="M312 -115l-52 221l-61 -253h-54c-24 0 -35 6 -41 32l-89 334h101l43 -229l56 229h71c14 0 19 -5 22 -17l51 -207l47 224h92l-91 -366h-54c-25 0 -35 7 -41 32z" />
    <glyph glyph-name="x.subs" horiz-adv-x="395" 
d="M252 -121l-53 89l-67 -109h-113l124 183l-117 177h89c18 0 26 -5 32 -16l51 -83l60 99h111l-115 -175l123 -185h-88c-16 0 -29 7 -37 20z" />
    <glyph glyph-name="y.subs" horiz-adv-x="415" 
d="M198 -325c-50 0 -100 16 -127 38l20 78c24 -17 56 -31 99 -31c69 0 86 40 86 92v50c-22 -29 -60 -52 -106 -52c-86 0 -123 57 -123 137v232h101v-217c0 -49 26 -69 60 -69c30 0 60 20 60 68v218h102v-375c0 -99 -46 -169 -172 -169z" />
    <glyph glyph-name="z.subs" horiz-adv-x="346" 
d="M318 -141h-289v25c0 37 5 52 24 76l131 172l-140 -2v89h265v-27c0 -34 -5 -50 -21 -72l-134 -173l164 1v-89z" />
    <glyph glyph-name="period.subs" horiz-adv-x="208" 
d="M104 -150c-37 0 -65 28 -65 65c0 35 28 64 65 64c36 0 64 -29 64 -64c0 -37 -28 -65 -64 -65z" />
    <glyph glyph-name="comma.subs" horiz-adv-x="204" 
d="M38 -244l-18 29c31 20 52 54 52 88c0 24 -16 43 -30 50c0 30 25 56 59 56c43 0 64 -34 64 -72c0 -78 -78 -137 -127 -151z" />
    <glyph glyph-name="hyphen.subs" horiz-adv-x="454" 
d="M66 -3v91h322v-91h-322z" />
    <glyph glyph-name="parenleft.subs" horiz-adv-x="278" 
d="M190 -264c-53 55 -127 187 -127 359c0 127 40 231 82 300h95c-41 -73 -78 -177 -78 -300c0 -161 64 -293 118 -359h-90z" />
    <glyph glyph-name="parenright.subs" horiz-adv-x="278" 
d="M-3 -264c54 66 119 198 119 359c0 123 -37 227 -78 300h94c42 -69 82 -174 82 -300c0 -172 -73 -304 -127 -359h-90z" />
    <glyph glyph-name="plus.subs" horiz-adv-x="454" 
d="M388 36h-115v-116h-92v116h-115v91h115v116h92v-116h115v-91z" />
    <glyph glyph-name="minus.subs" horiz-adv-x="454" 
d="M66 36v91h322v-91h-322z" />
    <glyph glyph-name="multiply.subs" horiz-adv-x="454" 
d="M309 -65l-82 82l-81 -82l-65 65l81 82l-81 81l65 65l81 -82l82 82l64 -65l-81 -81l81 -82z" />
    <glyph glyph-name="equal.subs" horiz-adv-x="454" 
d="M66 102v87h322v-87h-322zM66 -39v87h322v-87h-322z" />
    <glyph glyph-name="divide.subs" horiz-adv-x="454" 
d="M227 161c-34 0 -59 25 -59 58c0 34 25 60 59 60c33 0 60 -26 60 -60c0 -33 -27 -58 -60 -58zM66 40v83h322v-83h-322zM227 -116c-33 0 -59 25 -59 59c0 33 25 59 59 59c33 0 60 -26 60 -59c0 -34 -28 -59 -60 -59z" />
    <glyph glyph-name="dollar.subs" horiz-adv-x="324" 
d="M192 -203h-58v55c-46 1 -77 11 -101 24l26 72c26 -13 54 -19 81 -19c50 0 71 15 71 38c0 24 -18 34 -52 42l-36 9c-62 15 -95 48 -95 99c0 53 38 98 104 112v49h58v-44c46 -1 72 -10 91 -17l-20 -73c-24 8 -51 14 -76 14c-49 0 -71 -14 -71 -36c0 -19 17 -30 47 -36
l31 -7c65 -14 106 -46 106 -103c0 -53 -33 -103 -106 -119v-60z" />
    <glyph glyph-name="cent.subs" horiz-adv-x="276" 
d="M230 -84c-14 -7 -30 -11 -49 -12v-52h-63v57c-62 16 -96 66 -96 134s34 118 96 135v56h63v-51c20 -2 36 -6 50 -13l-17 -72c-13 5 -26 9 -44 9c-33 0 -60 -19 -60 -64s27 -64 60 -64c18 0 31 4 44 10z" />
    <glyph glyph-name="sterling.subs" horiz-adv-x="332" 
d="M304 -60v-81h-274v81h24c46 0 72 16 72 46v7h-91v45h54l-5 4c-28 26 -49 51 -49 89c0 61 58 103 143 103c42 0 83 -12 113 -27l-22 -71c-25 14 -59 22 -85 22c-40 0 -61 -19 -61 -43c0 -15 11 -29 20 -37l32 -30c3 -3 6 -6 9 -10h82v-45h-67v-1c0 -21 -11 -40 -28 -52
h133z" />
    <glyph glyph-name="florin.subs" horiz-adv-x="270" 
d="M16 -274c-12 0 -34 3 -47 8l16 68c4 -2 12 -4 21 -4c26 0 35 13 37 37l18 200h-49l7 63h46l3 33c7 68 47 103 129 103c19 0 52 -7 65 -14l-24 -67c-8 3 -17 7 -37 7c-22 0 -43 -9 -46 -38l-3 -24h76l-7 -64h-72l-18 -206c-6 -68 -40 -102 -115 -102z" />
    <glyph glyph-name="yen.subs" horiz-adv-x="351" 
d="M305 -91h-66v-50h-87v50h-68v43h68v23h-68v44h68v17l-137 183h97l83 -122l90 122h88l-134 -183v-17h66v-44h-66v-23h66v-43z" />
    <glyph glyph-name="Euro.subs" horiz-adv-x="320" 
 />
    <glyph glyph-name="zero.numr" 
d="M167 321c-101 0 -145 92 -145 193c0 98 44 187 145 187c102 0 146 -89 146 -187c0 -101 -44 -193 -146 -193zM167 402c33 0 57 35 57 112c0 73 -24 106 -57 106s-55 -33 -55 -106c0 -76 22 -112 55 -112z" />
    <glyph glyph-name="one.numr" 
d="M297 329h-257v80h84v190l-79 -34v85l86 40c19 9 37 14 58 14h24v-295h84v-80z" />
    <glyph glyph-name="two.numr" 
d="M43 329v71c0 57 45 83 84 107l30 19c29 17 45 33 45 58c0 24 -22 44 -59 44c-26 0 -56 -8 -82 -22l-22 71c31 14 70 26 114 26c85 0 140 -43 140 -107c0 -56 -39 -93 -82 -121l-29 -17c-23 -14 -39 -29 -39 -40v-9h152v-80h-252z" />
    <glyph glyph-name="three.numr" 
d="M142 321c-42 0 -77 7 -107 20l27 75c23 -10 44 -14 73 -14c43 0 56 21 56 41c0 26 -20 40 -56 40h-44v73h42c29 0 46 13 46 36c0 21 -11 37 -48 37c-27 0 -49 -7 -74 -16l-20 71c24 10 71 19 107 19c88 0 126 -41 126 -94c0 -36 -23 -72 -46 -86c31 -9 58 -42 58 -82
c0 -67 -41 -120 -140 -120z" />
    <glyph glyph-name="four.numr" 
d="M188 479v144l-85 -144h85zM312 408h-41v-79h-83v79h-162v67l142 225h103v-221h41v-71z" />
    <glyph glyph-name="five.numr" 
d="M134 321c-38 0 -75 6 -98 19l29 77c16 -8 46 -16 71 -16c49 0 76 22 76 57c0 25 -20 46 -58 46c-18 0 -36 -6 -47 -13l-46 11v198h223v-81h-144v-55c13 4 29 7 47 7c59 0 112 -34 112 -108c0 -85 -56 -142 -165 -142z" />
    <glyph glyph-name="six.numr" 
d="M311 457c0 -76 -55 -136 -135 -136c-88 0 -151 70 -151 183v12c0 140 93 187 175 187c47 0 72 -12 84 -18l-15 -74c-14 7 -39 15 -71 15c-46 -1 -79 -21 -83 -93c19 21 47 35 82 35c73 0 114 -55 114 -111zM173 402c28 0 48 21 48 49c0 26 -16 51 -48 51
c-24 0 -47 -14 -58 -38c5 -35 26 -62 58 -62z" />
    <glyph glyph-name="seven.numr" 
d="M178 329h-98c13 117 71 220 126 291h-168v80h259l1 -57c-48 -65 -106 -184 -120 -314z" />
    <glyph glyph-name="eight.numr" 
d="M165 321c-82 0 -136 40 -136 103c0 38 22 73 72 88c-39 19 -59 46 -59 88c0 60 50 103 126 103c75 0 126 -38 126 -91c0 -40 -22 -65 -56 -78c48 -21 69 -55 69 -99c0 -70 -57 -114 -142 -114zM177 551l4 -1c19 11 28 28 28 45c0 24 -17 40 -41 40c-23 0 -42 -16 -42 -38
s17 -39 51 -46zM168 392c31 0 54 20 54 49c0 25 -16 38 -49 47l-11 3c-34 -7 -48 -31 -48 -50c0 -29 23 -49 54 -49z" />
    <glyph glyph-name="nine.numr" 
d="M172 517c22 0 39 7 50 15v18c0 41 -18 73 -57 73c-31 0 -52 -22 -52 -52c0 -29 22 -54 59 -54zM147 321c-44 0 -83 15 -99 29l16 74c18 -15 47 -25 85 -25c40 0 69 19 73 78c-17 -13 -40 -23 -72 -23c-81 0 -126 51 -126 117c0 76 57 132 142 132c89 0 146 -64 146 -168
v-28c0 -141 -75 -186 -165 -186z" />
    <glyph glyph-name="dollar.numr" horiz-adv-x="324" 
d="M192 266h-58v55c-46 1 -77 11 -101 24l26 72c26 -13 54 -19 81 -19c50 0 71 15 71 38c0 24 -18 34 -52 42l-36 9c-62 15 -95 48 -95 99c0 54 38 98 104 112v49h58v-44c46 -1 72 -10 91 -17l-20 -73c-24 8 -51 14 -76 14c-49 0 -71 -14 -71 -36c0 -19 17 -30 47 -36l31 -7
c65 -14 106 -46 106 -103c0 -53 -33 -103 -106 -119v-60z" />
    <glyph glyph-name="parenleft.numr" horiz-adv-x="278" 
d="M190 205c-53 55 -127 187 -127 359c0 127 40 231 82 300h95c-41 -73 -78 -177 -78 -300c0 -161 64 -293 118 -359h-90z" />
    <glyph glyph-name="parenright.numr" horiz-adv-x="278" 
d="M-3 205c54 66 119 198 119 359c0 123 -37 227 -78 300h94c42 -69 82 -174 82 -300c0 -172 -73 -304 -127 -359h-90z" />
    <glyph glyph-name="hyphen.numr" horiz-adv-x="454" 
d="M66 466v91h322v-91h-322z" />
    <glyph glyph-name="zero.dnom" 
d="M167 -8c-101 0 -145 92 -145 193c0 99 44 187 145 187c102 0 146 -88 146 -187c0 -101 -44 -193 -146 -193zM167 73c33 0 57 36 57 112c0 73 -24 107 -57 107s-55 -34 -55 -107c0 -76 22 -112 55 -112z" />
    <glyph glyph-name="one.dnom" 
d="M297 0h-257v81h84v189l-79 -34v86l86 40c19 8 37 13 58 13h24v-294h84v-81z" />
    <glyph glyph-name="two.dnom" 
d="M43 0v72c0 57 45 82 84 107l30 18c29 18 45 34 45 58c0 25 -22 44 -59 44c-26 0 -56 -8 -82 -22l-22 71c31 14 70 27 114 27c85 0 140 -43 140 -107c0 -57 -39 -94 -82 -121l-29 -18c-23 -14 -39 -28 -39 -39v-9h152v-81h-252z" />
    <glyph glyph-name="three.dnom" 
d="M142 -8c-42 0 -77 8 -107 21l27 74c23 -9 44 -14 73 -14c43 0 56 21 56 42c0 25 -20 39 -56 39h-44v73h42c29 0 46 13 46 37c0 20 -11 36 -48 36c-27 0 -49 -7 -74 -15l-20 70c24 11 71 20 107 20c88 0 126 -42 126 -95c0 -36 -23 -72 -46 -85c31 -10 58 -43 58 -83
c0 -67 -41 -120 -140 -120z" />
    <glyph glyph-name="four.dnom" 
d="M188 151v143l-85 -143h85zM312 79h-41v-79h-83v79h-162v68l142 225h103v-221h41v-72z" />
    <glyph glyph-name="five.dnom" 
d="M134 -8c-38 0 -75 7 -98 20l29 76c16 -7 46 -15 71 -15c49 0 76 21 76 57c0 25 -20 46 -58 46c-18 0 -36 -6 -47 -13l-46 11v198h223v-81h-144v-56c13 5 29 8 47 8c59 0 112 -35 112 -109c0 -84 -56 -142 -165 -142z" />
    <glyph glyph-name="six.dnom" 
d="M311 129c0 -77 -55 -137 -135 -137c-88 0 -151 70 -151 183v13c0 139 93 187 175 187c47 0 72 -12 84 -19l-15 -74c-14 8 -39 16 -71 16c-46 -1 -79 -22 -83 -94c19 21 47 36 82 36c73 0 114 -55 114 -111zM173 73c28 0 48 22 48 50c0 25 -16 50 -48 50
c-24 0 -47 -14 -58 -37c5 -36 26 -63 58 -63z" />
    <glyph glyph-name="seven.dnom" 
d="M178 0h-98c13 118 71 221 126 291h-168v81h259l1 -58c-48 -65 -106 -183 -120 -314z" />
    <glyph glyph-name="eight.dnom" 
d="M165 -8c-82 0 -136 40 -136 103c0 38 22 73 72 88c-39 19 -59 46 -59 89c0 59 50 103 126 103c75 0 126 -39 126 -92c0 -40 -22 -65 -56 -78c48 -21 69 -55 69 -98c0 -71 -57 -115 -142 -115zM177 223l4 -1c19 11 28 27 28 44c0 24 -17 40 -41 40c-23 0 -42 -15 -42 -38
c0 -21 17 -38 51 -45zM168 63c31 0 54 20 54 49c0 25 -16 39 -49 47l-11 3c-34 -7 -48 -30 -48 -50c0 -29 23 -49 54 -49z" />
    <glyph glyph-name="nine.dnom" 
d="M172 188c22 0 39 7 50 16v18c0 41 -18 73 -57 73c-31 0 -52 -23 -52 -52c0 -30 22 -55 59 -55zM147 -8c-44 0 -83 15 -99 30l16 73c18 -14 47 -24 85 -24c40 0 69 19 73 77c-17 -13 -40 -23 -72 -23c-81 0 -126 51 -126 118c0 75 57 132 142 132c89 0 146 -64 146 -169
v-28c0 -141 -75 -186 -165 -186z" />
    <glyph glyph-name="dollar.dnom" horiz-adv-x="324" 
d="M192 -62h-58v54c-46 1 -77 12 -101 25l26 72c26 -13 54 -20 81 -20c50 0 71 15 71 39s-18 33 -52 41l-36 9c-62 16 -95 49 -95 100c0 53 38 97 104 112v49h58v-44c46 -1 72 -10 91 -18l-20 -72c-24 7 -51 14 -76 14c-49 0 -71 -15 -71 -36c0 -19 17 -31 47 -37l31 -7
c65 -14 106 -45 106 -102c0 -54 -33 -104 -106 -120v-59z" />
    <glyph glyph-name="parenleft.dnom" horiz-adv-x="278" 
d="M190 -124c-53 55 -127 188 -127 359c0 127 40 232 82 301h95c-41 -73 -78 -178 -78 -301c0 -161 64 -292 118 -359h-90z" />
    <glyph glyph-name="parenright.dnom" horiz-adv-x="278" 
d="M-3 -124c54 67 119 198 119 359c0 123 -37 227 -78 301h94c42 -70 82 -174 82 -301c0 -171 -73 -304 -127 -359h-90z" />
    <glyph glyph-name="hyphen.dnom" horiz-adv-x="454" 
d="M66 138v91h322v-91h-322z" />
    <glyph glyph-name="guilsinglleft" unicode="&#x2039;" horiz-adv-x="387" 
d="M212 32l-168 200v7l168 200h131l-170 -203l170 -204h-131z" />
    <glyph glyph-name="guilsinglright" unicode="&#x203a;" horiz-adv-x="387" 
d="M44 32l170 204l-170 203h131l168 -200v-7l-168 -200h-131z" />
    <glyph glyph-name="guillemotleft" unicode="&#xab;" horiz-adv-x="582" 
d="M212 32l-168 200v7l168 200h131l-170 -203l170 -204h-131zM413 32l-168 200v7l168 200h131l-170 -203l170 -204h-131z" />
    <glyph glyph-name="guillemotright" unicode="&#xbb;" horiz-adv-x="582" 
d="M44 32l170 204l-170 203h131l168 -200v-7l-168 -200h-131zM245 32l170 204l-170 203h131l168 -200v-7l-168 -200h-131z" />
    <glyph glyph-name="hyphen" unicode="-" horiz-adv-x="478" 
d="M79 210v112h320v-112h-320z" />
    <glyph glyph-name="endash" unicode="&#x2013;" horiz-adv-x="741" 
d="M90 210v112h561v-112h-561z" />
    <glyph glyph-name="emdash" unicode="&#x2014;" horiz-adv-x="1195" 
d="M164 210v112h867v-112h-867z" />
    <glyph glyph-name="underscore" unicode="_" horiz-adv-x="590" 
d="M79 -113v113h432v-113h-432z" />
    <glyph glyph-name="brokenbar" unicode="&#xa6;" horiz-adv-x="616" 
d="M246 403v386h124v-386h-124zM246 -117v386h124v-386h-124z" />
    <glyph glyph-name="plus" unicode="+" horiz-adv-x="590" 
d="M511 253h-159v-159h-113v159h-160v113h160v159h113v-159h159v-113z" />
    <glyph glyph-name="minus" unicode="&#x2212;" horiz-adv-x="590" 
d="M79 253v113h432v-113h-432z" />
    <glyph glyph-name="plusminus" unicode="&#xb1;" horiz-adv-x="590" 
d="M483 379h-139v-142h-97v142h-140v87h140v146h97v-146h139v-87zM107 101v88h376v-88h-376z" />
    <glyph glyph-name="multiply" unicode="&#xd7;" horiz-adv-x="590" 
d="M408 117l-113 113l-113 -113l-79 79l113 113l-113 113l79 80l113 -113l113 113l80 -80l-113 -113l113 -113z" />
    <glyph glyph-name="equal" unicode="=" horiz-adv-x="590" 
d="M79 343v107h432v-107h-432zM79 154v107h432v-107h-432z" />
    <glyph glyph-name="notequal" unicode="&#x2260;" horiz-adv-x="590" 
d="M511 162h-190l-21 -104h-108l21 104h-134v98h154l17 84h-171v98h190l22 107h108l-22 -107h134v-98h-153l-17 -84h170v-98z" />
    <glyph glyph-name="divide" unicode="&#xf7;" horiz-adv-x="590" 
d="M295 419c-42 0 -74 32 -74 74c0 41 32 75 74 75s75 -34 75 -75c0 -42 -33 -74 -75 -74zM79 258v103h432v-103h-432zM295 51c-41 0 -74 31 -74 74c0 41 32 74 74 74s75 -33 75 -74c0 -43 -34 -74 -75 -74z" />
    <glyph glyph-name="numbersign" unicode="#" horiz-adv-x="631" 
d="M366 292l8 116h-103l-8 -116h103zM346 0l14 198h-104l-13 -198h-105l14 198h-78v94h84l8 116h-92v94h99l13 198h105l-14 -198h104l13 198h105l-14 -198h78v-94h-84l-8 -116h92v-94h-99l-13 -198h-105z" />
    <glyph glyph-name="percent" unicode="%" horiz-adv-x="755" 
d="M205 0h-124l411 601c-17 -4 -36 -7 -54 -7c-40 0 -72 6 -102 13c6 -16 9 -34 9 -52c0 -83 -66 -149 -149 -149s-150 66 -150 149s67 150 150 150h2c86 0 142 -31 249 -31c72 0 143 13 205 29v-22c0 -20 -6 -36 -17 -53zM196 499c31 0 54 24 54 56s-23 56 -54 56
s-55 -24 -55 -56s24 -56 55 -56zM559 -10c-82 0 -150 67 -150 150c0 82 68 149 150 149c83 0 150 -67 150 -149c0 -83 -67 -150 -150 -150zM559 84c31 0 54 24 54 56s-23 56 -54 56s-55 -24 -55 -56s24 -56 55 -56z" />
    <glyph glyph-name="ampersand" unicode="&#x26;" horiz-adv-x="725" 
d="M633 -9c-40 15 -88 37 -139 67c-61 -43 -133 -66 -211 -66c-155 0 -253 88 -253 200c0 106 72 163 156 200c-12 34 -18 69 -18 106c0 124 78 207 193 207c98 0 167 -64 167 -146c0 -113 -96 -171 -194 -208c38 -62 96 -116 157 -160c42 47 77 110 100 187l92 -38
c-24 -80 -60 -149 -105 -204c37 -21 71 -37 100 -48zM288 503c0 -25 3 -48 10 -71c64 25 114 60 114 123c0 36 -23 57 -51 57c-44 0 -73 -42 -73 -109zM286 96c39 0 77 9 112 26c-67 51 -130 113 -173 185c-44 -26 -75 -60 -75 -109c0 -63 62 -102 136 -102z" />
    <glyph glyph-name="parenleft" unicode="(" horiz-adv-x="349" 
d="M248 -171c-73 78 -172 261 -172 497c0 237 98 418 172 498h113c-76 -93 -164 -275 -164 -498c0 -222 89 -405 164 -497h-113z" />
    <glyph glyph-name="parenright" unicode=")" horiz-adv-x="349" 
d="M-12 -171c75 92 164 275 164 497c0 223 -88 404 -164 498h112c75 -80 173 -261 173 -498c0 -236 -99 -419 -173 -497h-112z" />
    <glyph glyph-name="asterisk" unicode="*" horiz-adv-x="359" 
d="M292 440l-88 56l5 -105h-62l8 106l-90 -57l-29 51l97 47l-95 49l27 49l91 -58l-6 104h62l-7 -103l92 55l26 -48l-94 -48l94 -48z" />
    <glyph glyph-name="slash" unicode="/" horiz-adv-x="584" 
d="M100 -117l259 906h125l-259 -906h-125z" />
    <glyph glyph-name="fraction" unicode="&#x2044;" horiz-adv-x="620" 
d="M6 0l501 700h107l-501 -700h-107z" />
    <glyph glyph-name="less" unicode="&#x3c;" horiz-adv-x="599" 
d="M517 104l-437 169v99l437 168v-108l-289 -108l289 -109v-111z" />
    <glyph glyph-name="greater" unicode="&#x3e;" horiz-adv-x="599" 
d="M80 104v111l289 109l-289 108v108l437 -168v-99z" />
    <glyph glyph-name="lessequal" unicode="&#x2264;" horiz-adv-x="599" 
d="M517 175l-437 154v103l437 153v-106l-295 -97l295 -97v-110zM517 22l-437 154v100l437 -150v-104z" />
    <glyph glyph-name="greaterequal" unicode="&#x2265;" horiz-adv-x="599" 
d="M80 175v110l295 97l-295 97v106l437 -153v-103zM80 22v104l437 150v-100z" />
    <glyph glyph-name="at" unicode="@" horiz-adv-x="1016" 
d="M448 -202c-229 0 -391 172 -391 429c0 285 198 478 461 478c252 0 441 -173 441 -435c0 -199 -100 -281 -195 -281c-92 0 -148 70 -149 163v3c-26 -110 -96 -166 -174 -166c-104 0 -183 85 -183 232c0 165 107 291 271 291c49 0 91 -13 121 -29l47 18l17 -5v-341
c0 -55 28 -83 68 -83c46 0 96 52 96 198c0 222 -154 363 -360 363c-219 0 -380 -158 -380 -406c0 -217 127 -355 310 -355c45 0 89 9 116 19l20 -71c-38 -13 -86 -22 -136 -22zM467 97c55 0 128 81 128 280v33c-19 8 -41 14 -64 14c-83 0 -145 -77 -145 -198
c0 -80 33 -129 81 -129z" />
    <glyph glyph-name="bracketleft" unicode="[" horiz-adv-x="328" 
d="M280 -90v-94h-196v1039h196v-94h-72v-851h72z" />
    <glyph glyph-name="backslash" unicode="\" horiz-adv-x="584" 
d="M359 -117l-259 906h125l259 -906h-125z" />
    <glyph glyph-name="bracketright" unicode="]" horiz-adv-x="328" 
d="M244 -184h-196v94h72v851h-72v94h196v-1039z" />
    <glyph glyph-name="braceleft" unicode="{" horiz-adv-x="363" 
d="M264 -189c-86 0 -164 42 -164 165c0 79 23 160 23 235c0 45 -23 76 -66 76h-11v92h11c43 0 66 31 66 76c0 74 -23 156 -23 234c0 124 78 165 164 165c28 0 49 -3 62 -6l1 -88c-47 0 -104 -16 -104 -89c0 -76 20 -141 20 -216c0 -79 -36 -116 -75 -121v-3
c39 -6 75 -42 75 -120c0 -75 -20 -140 -20 -217c0 -72 57 -89 104 -89l-1 -88c-13 -3 -34 -6 -62 -6z" />
    <glyph glyph-name="bar" unicode="|" horiz-adv-x="616" 
d="M246 -117v906h124v-906h-124z" />
    <glyph glyph-name="braceright" unicode="}" horiz-adv-x="363" 
d="M99 -189c-28 0 -49 3 -62 6l-1 88c47 0 104 17 104 89c0 77 -20 142 -20 217c0 78 36 114 75 120v3c-39 5 -75 42 -75 121c0 75 20 140 20 216c0 73 -57 89 -104 89l1 88c13 3 34 6 62 6c86 0 164 -41 164 -165c0 -78 -23 -160 -23 -234c0 -45 23 -76 66 -76h11v-92h-11
c-43 0 -66 -31 -66 -76c0 -75 23 -156 23 -235c0 -123 -78 -165 -164 -165z" />
    <glyph glyph-name="dagger" unicode="&#x2020;" horiz-adv-x="534" 
d="M224 0l-26 401h-150v99h149l12 120l10 35h89l11 -35l13 -120h154v-99h-155l-26 -401h-81z" />
    <glyph glyph-name="daggerdbl" unicode="&#x2021;" horiz-adv-x="534" 
d="M224 0l-10 35l-11 120h-155v97h155v151h-155v97h155l11 120l9 35h81l11 -35l10 -120h161v-97h-160v-151h160v-97h-161l-10 -120l-11 -35h-80z" />
    <glyph glyph-name="degree" unicode="&#xb0;" horiz-adv-x="338" 
d="M169 491c-60 0 -137 41 -137 134c0 94 77 134 137 134c59 0 137 -40 137 -134c0 -93 -78 -134 -137 -134zM169 561c34 0 63 23 63 64s-29 64 -63 64s-63 -23 -63 -64s29 -64 63 -64z" />
    <glyph glyph-name="section" unicode="&#xa7;" horiz-adv-x="644" 
d="M337 171c40 -36 70 -71 89 -110c14 18 20 41 20 64c0 62 -32 102 -78 142l-86 74c-22 20 -42 43 -57 67c-18 -15 -26 -38 -26 -63c0 -40 22 -72 47 -95zM256 -253c-51 0 -100 22 -130 51l32 96c20 -21 52 -40 92 -40c60 0 84 45 84 93c0 61 -33 101 -78 141l-86 74
c-55 49 -92 107 -92 180c0 63 36 133 115 161v20c0 87 61 182 196 182c42 0 94 -15 125 -44l-48 -87c-18 16 -41 31 -74 31c-55 0 -81 -39 -81 -81c0 -41 22 -72 48 -95l90 -79c77 -68 117 -134 117 -218c0 -72 -34 -151 -115 -183c-3 -97 -60 -202 -195 -202z" />
    <glyph glyph-name="bullet" unicode="&#x2022;" horiz-adv-x="488" 
d="M244 176c-69 0 -124 53 -124 123c0 69 55 124 124 124s124 -55 124 -124c0 -70 -55 -123 -124 -123z" />
    <glyph glyph-name="paragraph" unicode="&#xb6;" horiz-adv-x="788" 
d="M501 -250v868h-75v-868h-106v490h-19c-148 0 -255 88 -255 226c0 134 79 234 269 234h381v-82h-89v-868h-106z" />
    <glyph glyph-name="registered" unicode="&#xae;" horiz-adv-x="621" 
d="M310 206c-149 0 -263 112 -263 259s114 259 263 259s264 -112 264 -259s-115 -259 -264 -259zM310 266c112 0 197 85 197 199s-85 198 -197 198s-196 -84 -196 -198s84 -199 196 -199zM300 457c56 0 67 34 67 59c0 19 -9 43 -50 43h-50v-98c11 -3 22 -4 33 -4zM301 409
c-12 0 -23 1 -34 4v-85h-54v280h101c83 0 111 -45 111 -92c0 -38 -16 -73 -53 -92l62 -96h-60l-52 82c-7 -1 -14 -1 -21 -1z" />
    <glyph glyph-name="copyright" unicode="&#xa9;" horiz-adv-x="879" 
d="M440 -22c-219 0 -386 164 -386 379c0 216 167 380 386 380s385 -164 385 -380c0 -215 -166 -379 -385 -379zM440 63c167 0 292 126 292 294c0 170 -125 296 -292 296s-293 -126 -293 -296c0 -168 126 -294 293 -294zM446 136c-140 0 -215 95 -215 223
c0 124 75 218 214 218c47 0 84 -10 115 -27l-22 -70c-24 12 -51 20 -85 20c-85 0 -132 -58 -132 -141c0 -88 47 -146 132 -146c37 0 63 10 87 21l21 -71c-31 -17 -67 -27 -115 -27z" />
    <glyph glyph-name="uni24C5" unicode="&#x24c5;" horiz-adv-x="879" 
d="M440 -22c-219 0 -386 164 -386 379c0 216 167 380 386 380s385 -164 385 -380c0 -215 -166 -379 -385 -379zM440 63c167 0 292 126 292 294c0 170 -125 296 -292 296s-293 -126 -293 -296c0 -168 126 -294 293 -294zM440 345c78 0 93 48 93 83c0 26 -12 61 -69 61h-70
v-138c15 -4 31 -6 46 -6zM440 277c-15 0 -31 2 -46 6v-126h-76v401h141c116 0 155 -63 155 -130c0 -79 -49 -151 -174 -151z" />
    <glyph glyph-name="trademark" unicode="&#x2122;" horiz-adv-x="616" 
d="M101 471v205l-67 8v47h195v-47l-66 -8v-205h-62zM383 538l-39 111l-34 -178h-59l51 260h55c9 0 14 -3 17 -14l43 -122l50 136h53c10 0 15 -4 16 -15l44 -245h-57l-32 179l-46 -126h-46c-9 0 -13 4 -16 14z" />
    <glyph glyph-name="uni2120" unicode="&#x2120;" horiz-adv-x="616" 
d="M383 538l-39 111l-35 -178h-58l51 260h55c9 0 14 -3 17 -14l42 -121l50 135h54c10 0 15 -4 16 -15l44 -245h-58l-31 179l-46 -126h-46c-9 0 -13 4 -16 14zM107 470c-36 0 -59 6 -79 16l14 49c20 -8 45 -14 69 -14c38 0 53 12 53 28s-11 24 -37 29l-29 5
c-47 9 -70 35 -70 71c0 42 39 80 110 80c33 0 56 -5 73 -12l-12 -49c-21 6 -41 10 -65 10c-35 0 -49 -9 -49 -26c0 -12 10 -21 29 -25l30 -6c50 -9 77 -33 77 -71c0 -45 -34 -85 -114 -85z" />
    <glyph glyph-name="infinity" unicode="&#x221e;" horiz-adv-x="794" 
d="M572 169c54 0 90 42 90 90c0 49 -36 93 -90 93c-41 0 -72 -33 -88 -50l-37 -43l38 -41c20 -20 50 -49 87 -49zM223 166c39 0 72 32 89 51l38 41l-41 43c-21 21 -50 48 -86 48c-56 0 -90 -43 -90 -90c0 -49 34 -93 90 -93zM358 172c-30 -30 -79 -71 -144 -71
c-108 0 -160 75 -160 158c0 81 52 153 160 153c59 0 110 -36 140 -66l43 -42l38 42c28 29 76 69 145 69c104 0 160 -74 160 -156c0 -85 -56 -155 -160 -155c-61 0 -113 40 -142 68l-40 41z" />
    <glyph glyph-name="pi" unicode="&#x3c0;" horiz-adv-x="745" 
d="M624 4c-18 -8 -47 -12 -64 -12c-92 0 -139 40 -139 129v266h-100v-387h-123v387h-108v113h565v-113h-110v-259c0 -22 10 -35 37 -35c11 0 21 1 28 5z" />
    <glyph glyph-name="currency" unicode="&#xa4;" horiz-adv-x="691" 
d="M494 379l-65 65l85 85l65 -64zM198 378l-86 86l65 65l85 -85zM345 112c-18 0 -35 19 -49 55c-14 37 -21 83 -21 129s8 92 22 128c15 36 33 55 51 55c17 0 34 -19 48 -55c14 -37 20 -83 20 -130c0 -45 -7 -91 -21 -127c-15 -36 -33 -55 -50 -55zM176 62l-64 65l85 85
l65 -65zM515 61l-86 86l66 64l85 -85z" />
    <glyph glyph-name="exclam" unicode="!" horiz-adv-x="259" 
d="M94 215l-31 485h137l-31 -485h-75zM132 -12c-45 0 -79 35 -79 78c0 45 34 79 79 79c43 0 78 -34 78 -79c0 -43 -35 -78 -78 -78z" />
    <glyph glyph-name="exclamdown" unicode="&#xa1;" horiz-adv-x="255" 
d="M128 347c-45 0 -79 34 -79 79c0 43 34 78 79 78c43 0 78 -35 78 -78c0 -45 -35 -79 -78 -79zM59 -250l31 525h75l31 -525h-137z" />
    <glyph glyph-name="question" unicode="?" horiz-adv-x="444" 
d="M196 215h-85l-8 159c93 0 202 27 202 125c0 56 -34 102 -121 102c-54 0 -92 -17 -124 -35l-26 104c45 22 112 35 164 35c158 0 229 -89 229 -192c0 -140 -107 -203 -224 -213zM155 -12c-44 0 -78 35 -78 78c0 45 34 79 78 79s79 -34 79 -79c0 -43 -35 -78 -79 -78z" />
    <glyph glyph-name="questiondown" unicode="&#xbf;" horiz-adv-x="440" 
d="M298 355c-44 0 -79 34 -79 79c0 43 35 78 79 78s79 -35 79 -78c0 -45 -35 -79 -79 -79zM256 -255c-158 0 -230 90 -230 192c0 135 108 202 224 213l7 135h85l8 -209c-94 0 -202 -28 -202 -125c0 -56 33 -102 122 -102c53 0 91 17 124 35l25 -104
c-45 -22 -112 -35 -163 -35z" />
    <glyph glyph-name="quotedbl" unicode="&#x22;" horiz-adv-x="357" 
d="M231 472l-27 207v21h118v-21l-30 -207h-61zM62 472l-27 207v21h118v-21l-30 -207h-61z" />
    <glyph glyph-name="quotesingle" unicode="'" horiz-adv-x="189" 
d="M62 472l-27 207v21h119v-21l-30 -207h-62z" />
    <glyph glyph-name="quotedblleft" unicode="&#x201c;" horiz-adv-x="462" 
d="M328 432c-53 0 -79 42 -79 90c0 98 95 171 157 188l22 -34c-40 -26 -66 -67 -66 -111c0 -31 20 -54 38 -64c0 -37 -30 -69 -72 -69zM136 432c-54 0 -80 42 -80 90c0 98 95 171 157 188l23 -34c-40 -26 -67 -67 -67 -111c0 -31 20 -54 38 -64c0 -37 -31 -69 -71 -69z" />
    <glyph glyph-name="quotedblright" unicode="&#x201d;" horiz-adv-x="462" 
d="M249 427l-23 35c40 25 67 67 67 111c0 30 -20 54 -38 64c0 37 31 68 72 68c53 0 79 -42 79 -89c0 -98 -95 -172 -157 -189zM57 427l-23 35c40 25 66 67 66 111c0 30 -19 54 -38 64c0 37 30 68 72 68c53 0 79 -42 79 -89c0 -98 -95 -172 -156 -189z" />
    <glyph glyph-name="quoteleft" unicode="&#x2018;" horiz-adv-x="259" 
d="M130 432c-54 0 -79 42 -79 90c0 98 94 171 157 188l22 -34c-40 -26 -66 -67 -66 -111c0 -31 20 -54 38 -64c0 -37 -31 -69 -72 -69z" />
    <glyph glyph-name="quoteright" unicode="&#x2019;" horiz-adv-x="259" 
d="M51 427l-23 35c40 25 66 67 66 111c0 30 -19 54 -37 64c0 37 30 68 72 68c53 0 79 -42 79 -89c0 -98 -95 -172 -157 -189z" />
    <glyph glyph-name="comma" unicode="," horiz-adv-x="277" 
d="M69 -169l-22 38c39 28 64 74 64 123c0 33 -18 59 -36 70c0 40 29 75 70 75c52 0 77 -46 77 -98c0 -108 -93 -189 -153 -208z" />
    <glyph glyph-name="quotesinglbase" unicode="&#x201a;" horiz-adv-x="277" 
d="M69 -169l-22 38c39 28 64 74 64 123c0 33 -18 59 -36 70c0 40 29 75 70 75c52 0 77 -46 77 -98c0 -108 -93 -189 -153 -208z" />
    <glyph glyph-name="quotedblbase" unicode="&#x201e;" horiz-adv-x="487" 
d="M69 -169l-22 38c39 28 64 74 64 123c0 33 -18 59 -36 70c0 40 29 75 70 75c52 0 77 -46 77 -98c0 -108 -93 -189 -153 -208zM279 -169l-22 38c39 28 64 74 64 123c0 33 -18 59 -36 70c0 40 29 75 70 75c52 0 77 -46 77 -98c0 -108 -93 -189 -153 -208z" />
    <glyph glyph-name="period" unicode="." horiz-adv-x="280" 
d="M146 -12c-45 0 -80 35 -80 80c0 44 35 80 80 80s80 -36 80 -80c0 -45 -35 -80 -80 -80z" />
    <glyph glyph-name="periodcentered" unicode="&#xb7;" horiz-adv-x="257" 
d="M129 212c-45 0 -79 34 -79 79c0 43 34 78 79 78c43 0 78 -35 78 -78c0 -45 -35 -79 -78 -79z" />
    <glyph glyph-name="ellipsis" unicode="&#x2026;" horiz-adv-x="739" 
d="M146 -12c-45 0 -80 35 -80 80c0 44 35 80 80 80s80 -36 80 -80c0 -45 -35 -80 -80 -80zM611 -12c-46 0 -81 35 -81 80c0 44 35 80 81 80c44 0 80 -36 80 -80c0 -45 -36 -80 -80 -80zM378 -12c-45 0 -80 35 -80 80c0 44 35 80 80 80s81 -36 81 -80c0 -45 -36 -80 -81 -80z
" />
    <glyph glyph-name="colon" unicode=":" horiz-adv-x="297" 
d="M149 299c-45 0 -79 34 -79 78s34 79 79 79c43 0 78 -35 78 -79s-35 -78 -78 -78zM149 40c-45 0 -79 33 -79 78c0 44 34 78 79 78c43 0 78 -34 78 -78c0 -45 -35 -78 -78 -78z" />
    <glyph glyph-name="semicolon" unicode=";" horiz-adv-x="297" 
d="M149 299c-45 0 -79 34 -79 78s34 79 79 79c43 0 78 -35 78 -79s-35 -78 -78 -78zM73 -141l-22 35c40 25 66 67 66 111c0 30 -20 54 -38 64c0 36 31 68 72 68c54 0 79 -42 79 -89c0 -98 -95 -172 -157 -189z" />
    <glyph glyph-name="IJ" unicode="&#x132;" horiz-adv-x="740" 
d="M72 0v700h124v-700h-124zM454 -12c-65 0 -130 21 -178 72l90 79c26 -28 56 -39 88 -39c55 0 111 31 111 147v453h123v-461c0 -194 -130 -251 -234 -251z" />
    <glyph glyph-name="IJacute" horiz-adv-x="740" 
d="M543 740l110 117h149l-156 -117h-103zM51 739l110 117h149l-156 -117h-103zM69 0v700h124v-700h-124zM451 -12c-66 0 -131 21 -179 72l91 79c25 -28 55 -39 87 -39c55 0 111 31 111 147v453h123v-461c0 -194 -130 -251 -233 -251z" />
    <glyph glyph-name="ij" unicode="&#x133;" horiz-adv-x="513" 
d="M383 569c-42 0 -75 33 -75 75s33 75 75 75s75 -33 75 -75s-33 -75 -75 -75zM130 569c-43 0 -75 33 -75 75s32 75 75 75c42 0 75 -33 75 -75s-33 -75 -75 -75zM68 0v500h124v-500h-124zM270 -252c-21 0 -56 4 -78 12l15 96c9 -4 24 -8 40 -8c53 0 74 28 74 89v563h124
v-573c0 -125 -60 -179 -175 -179z" />
    <glyph glyph-name="ijacute" horiz-adv-x="513" 
d="M327 572l60 153h130l-96 -153h-94zM72 572l60 153h130l-97 -153h-93zM68 0v500h124v-500h-124zM270 -252c-22 0 -57 4 -78 12l14 96c9 -4 25 -8 41 -8c53 0 74 28 74 89v563h124v-573c0 -125 -61 -179 -175 -179z" />
    <glyph glyph-name="ordfeminine" unicode="&#xaa;" horiz-adv-x="385" 
d="M192 488c19 0 42 8 56 22v3c-2 46 -29 78 -67 78c-28 0 -52 -19 -52 -50s26 -53 63 -53zM261 425l-8 40c-15 -25 -50 -49 -101 -49c-75 0 -122 53 -122 117c0 76 57 121 130 121c47 0 74 -18 89 -42v14c0 49 -17 86 -81 86c-40 0 -68 -13 -92 -27l-20 83
c34 18 86 26 124 26c120 0 161 -62 161 -151v-218h-80zM51 261v90h286v-90h-286z" />
    <glyph glyph-name="ordmasculine" unicode="&#xba;" horiz-adv-x="396" 
d="M198 416c-116 0 -166 89 -166 189s50 189 166 189s165 -89 165 -189s-49 -189 -165 -189zM198 498c43 0 64 39 64 107s-21 107 -64 107c-44 0 -64 -39 -64 -107s20 -107 64 -107zM59 261v90h278v-90h-278z" />
    <glyph glyph-name="gravecomb" unicode="&#x300;" horiz-adv-x="404" 
d="M207 574l-116 151h93c26 0 45 -12 56 -32l58 -119h-91z" />
    <glyph glyph-name="acutecomb" unicode="&#x301;" horiz-adv-x="431" 
d="M106 574l100 151h135l-139 -151h-96z" />
    <glyph glyph-name="dieresiscomb" unicode="&#x308;" horiz-adv-x="542" 
d="M366 568c-39 0 -70 32 -70 73c0 40 31 73 70 73s70 -33 70 -73c0 -41 -31 -73 -70 -73zM168 568c-39 0 -70 32 -70 73c0 40 31 73 70 73s70 -33 70 -73c0 -41 -31 -73 -70 -73z" />
    <glyph glyph-name="circumflexcomb" unicode="&#x302;" horiz-adv-x="555" 
d="M326 574l-49 82l-49 -82h-106l105 151h65c31 0 46 -10 61 -34l80 -117h-107z" />
    <glyph glyph-name="tildecomb" unicode="&#x303;" horiz-adv-x="547" 
d="M133 577c-5 5 -11 22 -11 44c0 47 30 91 85 91c65 0 80 -53 123 -53c27 0 36 38 36 57h54c3 -9 7 -24 7 -40c0 -60 -38 -107 -88 -107c-66 0 -78 53 -120 53c-25 0 -33 -27 -33 -45h-53z" />
    <glyph glyph-name="cedillacomb" unicode="&#x327;" horiz-adv-x="458" 
d="M227 -253c-90 0 -137 57 -137 57l32 61s38 -46 101 -46c38 0 58 18 58 42c0 25 -21 40 -49 40c-36 0 -53 -22 -53 -22l-42 18l75 137l65 -19l-34 -63c6 1 12 1 19 1c51 0 104 -27 104 -94c0 -69 -55 -112 -139 -112z" />
    <glyph glyph-name="arrowleft" unicode="&#x2190;" horiz-adv-x="774" 
d="M450 192l-175 3l175 -173h-93c-24 0 -45 7 -64 26l-193 194v2l193 193c19 19 40 26 64 26h93l-176 -173l176 3h244v-101h-244z" />
    <glyph glyph-name="arrowright" unicode="&#x2192;" horiz-adv-x="774" 
d="M417 22h-93l175 173l-175 -3h-244v101h244l176 -3l-176 173h93c24 0 45 -7 64 -26l193 -193v-2l-193 -194c-19 -19 -40 -26 -64 -26z" />
    <glyph glyph-name="arrowup" unicode="&#x2191;" horiz-adv-x="617" 
d="M359 196v-196h-101v196l3 165l-173 -146v75c0 25 7 46 26 63l194 167h2l193 -167c19 -17 26 -38 26 -63v-75l-173 147z" />
    <glyph glyph-name="arrowdown" unicode="&#x2193;" horiz-adv-x="617" 
d="M310 -12h-2l-194 167c-19 17 -26 38 -26 63v75l173 -146l-3 165v188h101v-188l-3 -166l173 147v-75c0 -25 -7 -46 -26 -63z" />
    <glyph glyph-name="triagup" unicode="&#x25b2;" horiz-adv-x="650" 
d="M80 0l240 510h10l240 -510h-490z" />
    <glyph glyph-name="triagdn" unicode="&#x25bc;" horiz-adv-x="650" 
d="M320 -12l-240 512h490l-240 -512h-10z" />
    <glyph glyph-name="triagrt" unicode="&#x25ba;" horiz-adv-x="617" 
d="M108 -10v520h8l413 -250v-10l-413 -260h-8z" />
    <glyph glyph-name="triaglf" unicode="&#x25c4;" horiz-adv-x="617" 
d="M501 -10l-413 260v10l413 250h8v-520h-8z" />
    <glyph glyph-name="arrowboth" unicode="&#x2194;" horiz-adv-x="1165" 
d="M357 22c-24 0 -45 7 -64 26l-193 194v2l193 193c19 19 40 26 64 26h93l-176 -173l176 3h265l177 -3l-177 173h94c23 0 45 -7 64 -26l192 -193v-2l-192 -194c-19 -19 -41 -26 -64 -26h-94l176 173l-176 -3h-265l-175 3l175 -173h-93z" />
    <glyph glyph-name="arrowupdn" unicode="&#x2195;" horiz-adv-x="617" 
d="M307 -12l-192 117c-22 12 -26 34 -26 61v54l172 -104l-3 114v48l3 114l-173 -104v53c0 28 6 51 26 62l194 117h2l193 -117c21 -11 26 -33 26 -61v-54l-173 104l3 -114v-48l-3 -114l174 104v-53c0 -28 -6 -51 -27 -62l-194 -117h-2z" />
    <glyph glyph-name="arrowupleft" unicode="&#x2196;" horiz-adv-x="662" 
d="M602 84l-76 -84l-334 326v-274l-68 48c-25 18 -36 38 -36 69v330l1 1h342c32 0 53 -12 69 -40l38 -60h-272z" />
    <glyph glyph-name="arrowupright" unicode="&#x2197;" horiz-adv-x="662" 
d="M470 52v274l-334 -326l-76 84l336 316h-272l38 60c16 28 37 40 69 40h342l1 -1v-330c0 -31 -11 -51 -36 -69z" />
    <glyph glyph-name="arrowdownright" unicode="&#x2198;" horiz-adv-x="662" 
d="M573 0h-344c-32 0 -53 12 -68 40l-38 60h273l-336 316l76 84l334 -326v277l68 -48c25 -18 36 -38 36 -69v-333z" />
    <glyph glyph-name="arrowdownleft" unicode="&#x2199;" horiz-adv-x="662" 
d="M433 0h-344l-1 1v333c0 31 11 51 36 69l68 48v-277l334 326l76 -84l-336 -316h273l-38 -60c-15 -28 -36 -40 -68 -40z" />
    <glyph glyph-name="gravecomb.case" horiz-adv-x="404" 
d="M180 783l-126 121h102c26 0 46 -11 59 -31l60 -90h-95z" />
    <glyph glyph-name="acutecomb.case" horiz-adv-x="431" 
d="M113 786l110 116h149l-156 -116h-103z" />
    <glyph glyph-name="dieresiscomb.case" horiz-adv-x="542" 
d="M374 776c-40 0 -70 31 -70 72s30 73 70 73c38 0 69 -32 69 -73s-31 -72 -69 -72zM161 776c-39 0 -70 31 -70 72s31 73 70 73c38 0 70 -32 70 -73s-32 -72 -70 -72z" />
    <glyph glyph-name="circumflexcomb.case" horiz-adv-x="539" 
d="M328 786l-55 60l-56 -60h-117l119 117h71c24 0 38 -5 55 -22l100 -95h-117z" />
    <glyph glyph-name="tildecomb.case" horiz-adv-x="545" 
d="M118 786c-4 5 -11 21 -11 43c0 46 32 89 93 89c70 0 87 -51 134 -51c29 0 39 36 39 55h58c5 -9 8 -24 8 -40c0 -58 -42 -103 -95 -103c-73 0 -86 50 -131 50c-28 0 -37 -26 -37 -43h-58z" />
    <glyph glyph-name="exclamdown.case" horiz-adv-x="272" 
d="M136 548c-44 0 -78 34 -78 78s34 79 78 79s79 -35 79 -79s-35 -78 -79 -78zM68 0l31 475h75l31 -475h-137z" />
    <glyph glyph-name="questiondown.case" horiz-adv-x="457" 
d="M302 548c-44 0 -79 34 -79 78s35 79 79 79s79 -35 79 -79s-35 -78 -79 -78zM256 -12c-161 0 -226 85 -226 189c0 140 106 203 223 213l6 87h87l8 -159c-92 0 -202 -27 -202 -123c0 -57 29 -103 118 -103c55 0 94 17 128 35l25 -104c-46 -23 -114 -35 -167 -35z" />
    <glyph glyph-name="braceleft.case" horiz-adv-x="373" 
d="M264 -12c-84 0 -161 30 -161 122c0 46 20 89 20 131c0 35 -21 59 -60 59h-17v92h17c39 0 60 24 60 58c0 43 -20 88 -20 134c0 92 77 121 161 121c28 0 49 -3 62 -6l1 -82c-47 0 -104 -11 -104 -64c0 -40 18 -73 18 -112c0 -62 -35 -89 -73 -94v-3c38 -6 73 -32 73 -93
c0 -38 -18 -71 -18 -110c0 -54 57 -65 104 -65l-1 -82c-13 -3 -34 -6 -62 -6z" />
    <glyph glyph-name="braceright.case" horiz-adv-x="373" 
d="M109 -12c-28 0 -49 3 -62 6l-1 82c47 0 104 11 104 65c0 39 -18 72 -18 110c0 61 35 87 73 93v3c-38 5 -73 32 -73 94c0 39 18 72 18 112c0 53 -57 64 -104 64l1 82c13 3 34 6 62 6c84 0 161 -29 161 -121c0 -46 -20 -91 -20 -134c0 -34 21 -58 60 -58h17v-92h-17
c-39 0 -60 -24 -60 -59c0 -42 20 -85 20 -131c0 -92 -77 -122 -161 -122z" />
    <glyph glyph-name="bracketleft.case" horiz-adv-x="344" 
d="M280 94v-94h-196v700h196v-94h-72v-512h72z" />
    <glyph glyph-name="bracketright.case" horiz-adv-x="344" 
d="M260 0h-196v94h72v512h-72v94h196v-700z" />
    <glyph glyph-name="emdash.case" horiz-adv-x="1108" 
d="M140 307v113h828v-113h-828z" />
    <glyph glyph-name="endash.case" horiz-adv-x="729" 
d="M90 307v113h549v-113h-549z" />
    <glyph glyph-name="hyphen.case" horiz-adv-x="497" 
d="M79 307v113h339v-113h-339z" />
    <glyph glyph-name="guillemotleft.case" horiz-adv-x="574" 
d="M395 112l-168 200v7l168 200h125l-170 -203l170 -204h-125zM206 112l-168 200v7l168 200h125l-170 -203l170 -204h-125z" />
    <glyph glyph-name="guillemotright.case" horiz-adv-x="575" 
d="M244 112l170 204l-170 203h125l168 -200v-7l-168 -200h-125zM54 112l170 204l-170 203h125l168 -200v-7l-168 -200h-125z" />
    <glyph glyph-name="guilsinglleft.case" horiz-adv-x="385" 
d="M206 111l-168 200v7l168 200h125l-170 -203l170 -204h-125z" />
    <glyph glyph-name="guilsinglright.case" horiz-adv-x="385" 
d="M54 112l170 204l-170 203h125l168 -200v-7l-168 -200h-125z" />
    <glyph glyph-name="arrowdown.case" horiz-adv-x="617" 
d="M310 -12h-2l-194 167c-19 17 -26 38 -26 63v75l173 -146l-3 165v388h101v-388l-3 -166l173 147v-75c0 -25 -7 -46 -26 -63z" />
    <glyph glyph-name="arrowup.case" horiz-adv-x="617" 
d="M359 380v-380h-101v380l3 166l-173 -147v75c0 26 7 47 26 63l194 168h2l193 -168c19 -16 26 -37 26 -63v-75l-173 147z" />
    <glyph glyph-name="arrowupdn.case" horiz-adv-x="617" 
d="M307 -12l-192 117c-22 12 -26 34 -26 61v54l172 -104l-3 114v233l3 113l-173 -104v54c0 27 6 51 26 62l194 117h2l193 -117c21 -12 26 -34 26 -61v-55l-173 105l3 -114v-233l-3 -114l174 104v-53c0 -28 -6 -51 -27 -62l-194 -117h-2z" />
    <glyph glyph-name="arrowboth.case" horiz-adv-x="1165" 
d="M357 137c-24 0 -45 7 -64 26l-193 194v2l193 192c19 19 40 27 64 27h93l-176 -174l176 4h265l177 -4l-177 174h94c23 0 45 -8 64 -27l192 -192v-2l-192 -194c-19 -19 -41 -26 -64 -26h-94l176 173l-176 -4h-265l-175 4l175 -173h-93z" />
    <glyph glyph-name="arrowleft.case" horiz-adv-x="774" 
d="M450 306l-175 4l175 -173h-93c-24 0 -45 7 -64 26l-193 194v2l193 192c19 19 40 27 64 27h93l-176 -174l176 4h244v-102h-244z" />
    <glyph glyph-name="arrowright.case" horiz-adv-x="774" 
d="M417 137h-93l175 173l-175 -4h-244v102h244l176 -4l-176 174h93c24 0 45 -8 64 -27l193 -192v-2l-193 -194c-19 -19 -40 -26 -64 -26z" />
    <glyph glyph-name="arrowdownleft.case" horiz-adv-x="875" 
d="M431 0h-342l-1 1v330c0 31 11 51 36 69l68 48v-275l546 529l77 -84l-549 -518h272l-38 -60c-16 -28 -37 -40 -69 -40z" />
    <glyph glyph-name="arrowdownright.case" horiz-adv-x="874" 
d="M785 0h-343c-31 0 -52 12 -68 40l-38 60h272l-548 518l76 84l546 -528v274l68 -48c25 -18 36 -38 36 -69v-330z" />
    <glyph glyph-name="arrowupleft.case" horiz-adv-x="873" 
d="M813 84l-77 -84l-544 527v-275l-68 48c-25 18 -36 38 -36 69v330l1 1h342c32 0 53 -12 69 -40l38 -60h-272z" />
    <glyph glyph-name="arrowupright.case" horiz-adv-x="872" 
d="M680 252v275l-544 -526l-76 84l546 515h-272l38 60c16 28 37 40 69 40h342l1 -1v-330c0 -31 -11 -51 -36 -69z" />
    <glyph glyph-name="at.case" horiz-adv-x="1016" 
d="M448 -157c-229 0 -391 172 -391 429c0 285 198 478 461 478c252 0 441 -173 441 -435c0 -199 -100 -281 -195 -281c-92 0 -148 70 -149 163v3c-26 -110 -96 -166 -174 -166c-104 0 -183 85 -183 232c0 165 107 291 271 291c49 0 91 -13 121 -29l47 18l17 -5v-341
c0 -55 28 -83 68 -83c46 0 96 52 96 198c0 222 -154 363 -360 363c-219 0 -380 -158 -380 -406c0 -217 127 -355 310 -355c45 0 89 9 116 19l20 -71c-38 -13 -86 -22 -136 -22zM467 142c55 0 128 81 128 280v33c-19 8 -41 14 -64 14c-83 0 -145 -77 -145 -198
c0 -80 33 -129 81 -129z" />
    <glyph glyph-name="colon.case" horiz-adv-x="321" 
d="M161 383c-45 0 -79 33 -79 78c0 44 34 78 79 78c43 0 78 -34 78 -78c0 -45 -35 -78 -78 -78zM161 105c-45 0 -79 34 -79 79c0 43 34 78 79 78c43 0 78 -35 78 -78c0 -45 -35 -79 -78 -79z" />
    <glyph glyph-name="periodcentered.case" horiz-adv-x="293" 
d="M147 281c-45 0 -79 34 -79 78s34 79 79 79c43 0 78 -35 78 -79s-35 -78 -78 -78z" />
    <glyph glyph-name="uni2116" unicode="&#x2116;" horiz-adv-x="1051" 
d="M854 416c-116 0 -166 89 -166 189s50 189 166 189s165 -89 165 -189s-49 -189 -165 -189zM854 498c43 0 64 39 64 107s-21 107 -64 107c-44 0 -64 -39 -64 -107s20 -107 64 -107zM467 37l-292 447l3 -484h-120v701h68c27 0 45 -9 59 -31l296 -453l-3 483h120v-700h-63
c-32 0 -52 11 -68 37zM714 261v90h279v-90h-279z" />
    <glyph glyph-name="house" unicode="&#x2302;" horiz-adv-x="819" 
d="M94 0v309l315 333l316 -333v-309h-631z" />
    <glyph glyph-name="uni25A1" unicode="&#x25a1;" horiz-adv-x="799" 
d="M53 0v700h693v-700h-693zM165 106h469v487h-469v-487z" />
    <glyph glyph-name="uni25A0" unicode="&#x25a0;" horiz-adv-x="799" 
d="M53 0v700h693v-700h-693z" />
    <glyph glyph-name="uni25AB" unicode="&#x25ab;" horiz-adv-x="601" 
d="M53 0v500h495v-500h-495zM154 96h293v308h-293v-308z" />
    <glyph glyph-name="uni25AA" unicode="&#x25aa;" horiz-adv-x="601" 
d="M53 0v500h495v-500h-495z" />
    <glyph glyph-name="uni25CB" unicode="&#x25cb;" horiz-adv-x="820" 
d="M410 -12c-199 0 -356 157 -356 357s157 360 356 360s356 -160 356 -360s-157 -357 -356 -357zM410 98c130 0 231 108 231 247c0 140 -101 249 -231 249c-131 0 -232 -109 -232 -249c0 -139 101 -247 232 -247z" />
    <glyph glyph-name="uni25CF" unicode="&#x25cf;" horiz-adv-x="820" 
d="M410 -12c-199 0 -356 157 -356 357s157 360 356 360s356 -160 356 -360s-157 -357 -356 -357z" />
    <glyph glyph-name="uni26AA" unicode="&#x26aa;" horiz-adv-x="624" 
d="M312 -12c-148 0 -262 117 -262 262c0 146 114 262 262 262s262 -116 262 -262c0 -145 -114 -262 -262 -262zM312 90c89 0 156 71 156 160c0 90 -67 161 -156 161c-87 0 -155 -71 -155 -161c0 -89 68 -160 155 -160z" />
    <glyph glyph-name="uni26AB" unicode="&#x26ab;" horiz-adv-x="624" 
d="M312 -12c-148 0 -262 117 -262 262c0 146 114 262 262 262s262 -116 262 -262c0 -145 -114 -262 -262 -262z" />
    <glyph glyph-name="uni22A0" unicode="&#x22a0;" horiz-adv-x="799" 
d="M53 0v700h693v-700h-693zM165 106h469v487h-469v-487zM486 204l-89 89l-89 -89l-58 58l89 89l-89 89l58 58l89 -89l89 89l58 -58l-89 -89l89 -89z" />
    <glyph glyph-name="uni2612" unicode="&#x2612;" horiz-adv-x="601" 
d="M53 0v500h495v-500h-495zM154 96h293v308h-293v-308zM376 128l-75 75l-75 -75l-45 45l75 75l-75 76l45 45l75 -75l75 75l46 -45l-75 -76l75 -75z" />
    <glyph glyph-name="uni2605" unicode="&#x2605;" horiz-adv-x="882" 
d="M646 -6l-205 152l-205 -152l-19 13l85 237l-212 142l7 22l258 -8l74 241h24l74 -241l258 8l7 -22l-212 -142l85 -237z" />
    <glyph glyph-name="uni263D" unicode="&#x263d;" horiz-adv-x="752" 
d="M450 -15c-226 0 -356 119 -356 328c0 189 130 327 356 327c70 0 152 -23 205 -63l13 -9l-13 -23l-14 4c-23 7 -44 12 -69 12c-117 0 -214 -94 -214 -241c0 -145 97 -255 215 -255c24 0 45 3 67 11l15 5l13 -24l-13 -9c-53 -40 -135 -63 -205 -63z" />
    <glyph glyph-name="spade" unicode="&#x2660;" horiz-adv-x="796" 
d="M294 0v21c43 52 81 134 90 248h-4c-27 -70 -80 -135 -160 -135c-78 0 -140 64 -140 147c0 94 85 154 170 219c59 46 117 94 143 159h10c26 -65 84 -114 142 -160c85 -66 171 -126 171 -218c0 -83 -62 -147 -140 -147c-80 0 -133 65 -160 135h-4c9 -114 49 -196 92 -248
v-21h-210z" />
    <glyph glyph-name="club" unicode="&#x2663;" horiz-adv-x="792" 
d="M291 0v22c40 51 80 128 89 238h-6c-27 -68 -76 -130 -154 -130s-140 62 -140 142c0 84 56 146 138 146c27 0 49 -9 67 -19l1 2c-17 27 -30 59 -30 95c0 80 60 146 140 146s140 -66 140 -146c0 -36 -13 -68 -30 -95l1 -2c18 10 40 19 67 19c82 0 138 -62 138 -146
c0 -80 -62 -142 -140 -142s-127 62 -154 130h-6c9 -110 50 -187 90 -238v-22h-211z" />
    <glyph glyph-name="heart" unicode="&#x2665;" horiz-adv-x="860" 
d="M429 -10c-286 213 -344 359 -344 464c0 92 63 160 166 160c107 0 151 -58 176 -122h6c25 64 69 122 176 122c103 0 166 -68 166 -160c0 -107 -60 -254 -344 -464h-2z" />
    <glyph glyph-name="diamond" unicode="&#x2666;" horiz-adv-x="738" 
d="M356 -7l-3 5c-66 110 -167 223 -273 309v28c106 85 207 199 273 308l3 5h26l3 -5c66 -109 167 -223 273 -308v-28c-106 -86 -207 -199 -273 -309l-3 -5h-26z" />
    <glyph glyph-name="uni29EB" unicode="&#x29eb;" horiz-adv-x="561" 
d="M274 -12l-209 323l210 325h12l209 -327l-209 -321h-13z" />
    <glyph glyph-name="uni2672" unicode="&#x2672;" horiz-adv-x="875" 
d="M615 432l-138 25l33 19l-58 100c-24 42 -73 46 -73 46h155c30 0 53 -1 73 -37l23 -39l34 19zM336 408l-120 69l54 95c4 7 14 18 27 25c47 28 115 2 132 -28zM675 190l-93 161l119 69l55 -94c4 -7 8 -20 8 -35c1 -55 -56 -101 -89 -101zM203 96l-76 134
c-14 26 -25 47 -4 83l23 39l-34 19l139 25l48 -133l-33 19s-56 -96 -58 -100c-24 -40 -3 -86 -3 -86h-2zM555 -8l-91 109l91 108v-39h116c47 0 76 41 76 41v-1l-76 -134c-17 -25 -28 -45 -71 -45h-45v-39zM305 31c-9 0 -23 3 -35 11c-49 28 -60 98 -43 128h186v-139h-108z
" />
    <glyph glyph-name="uni2460" unicode="&#x2460;" horiz-adv-x="820" 
d="M410 -12c-199 0 -356 157 -356 357s157 360 356 360s356 -160 356 -360s-157 -357 -356 -357zM284 181h257v81h-84v294h-24c-21 0 -39 -4 -58 -13l-86 -40v-86l79 34v-189h-84v-81z" />
    <glyph glyph-name="uni2461" unicode="&#x2461;" horiz-adv-x="820" 
d="M410 -12c-199 0 -356 157 -356 357s157 360 356 360s356 -160 356 -360s-157 -357 -356 -357zM287 177h252v80h-152v9c0 12 16 26 39 40l29 18c43 27 82 64 82 120c0 64 -55 108 -140 108c-44 0 -83 -13 -114 -27l22 -71c26 14 56 22 82 22c38 0 59 -20 59 -44
c0 -25 -16 -41 -45 -58l-30 -18c-39 -25 -84 -51 -84 -108v-71z" />
    <glyph glyph-name="uni2462" unicode="&#x2462;" horiz-adv-x="820" 
d="M410 -12c-199 0 -356 157 -356 357s157 360 356 360s356 -160 356 -360s-157 -357 -356 -357zM484 358v2h2zM404 157c99 0 140 53 140 120c0 41 -28 75 -58 83c25 15 47 50 47 85c0 53 -38 95 -127 95c-35 0 -83 -9 -106 -20l20 -70c24 8 46 15 73 15c37 0 49 -16 49 -36
c0 -24 -18 -37 -46 -37h-43v-73h44c37 0 56 -14 56 -39c0 -21 -12 -42 -55 -42c-29 0 -51 5 -73 14l-27 -74c29 -13 65 -21 106 -21z" />
    <glyph glyph-name="uni2463" unicode="&#x2463;" horiz-adv-x="820" 
d="M410 -12c-199 0 -356 157 -356 357s157 360 356 360s356 -160 356 -360s-157 -357 -356 -357zM405 169h84v79h43v75h-43v218h-102l-142 -225v-68h160v-79zM327 323l74 124v-124h-74z" />
    <glyph glyph-name="uni2464" unicode="&#x2464;" horiz-adv-x="820" 
d="M410 -12c-199 0 -356 157 -356 357s157 360 356 360s356 -160 356 -360s-157 -357 -356 -357zM377 152c108 0 165 57 165 142c0 74 -54 109 -113 109c-18 0 -34 -4 -47 -8v56h144v80h-222v-197l46 -12c10 8 28 13 47 13c37 0 57 -21 57 -46c0 -35 -27 -56 -75 -56
c-26 0 -55 8 -72 15l-29 -76c23 -13 60 -20 99 -20z" />
    <glyph glyph-name="uni2465" unicode="&#x2465;" horiz-adv-x="820" 
d="M410 -12c-199 0 -356 157 -356 357s157 360 356 360s356 -160 356 -360s-157 -357 -356 -357zM411 157c80 0 135 60 135 136c0 56 -41 111 -114 111c-35 0 -63 -15 -83 -36c5 73 38 93 84 94c32 0 56 -8 71 -15l15 74c-12 6 -37 18 -84 18c-82 0 -176 -47 -176 -187v-12
c0 -113 63 -183 152 -183zM407 237c-37 0 -57 33 -57 64v4c12 21 35 32 57 32c33 0 48 -25 48 -50c0 -28 -19 -50 -48 -50z" />
    <glyph glyph-name="uni2466" unicode="&#x2466;" horiz-adv-x="820" 
d="M410 -12c-199 0 -356 157 -356 357s157 360 356 360s356 -160 356 -360s-157 -357 -356 -357zM329 153h98c14 130 72 249 120 314l-1 58h-259v-81h168c-55 -70 -113 -173 -126 -291z" />
    <glyph glyph-name="uni2467" unicode="&#x2467;" horiz-adv-x="820" 
d="M410 -12c-199 0 -356 157 -356 357s157 360 356 360s356 -160 356 -360s-157 -357 -356 -357zM406 158c85 0 142 44 142 115c0 42 -21 76 -67 97c33 13 54 38 54 77c0 54 -50 94 -126 94s-126 -44 -126 -103c0 -43 21 -69 59 -88c-50 -16 -72 -51 -72 -89
c0 -63 55 -103 136 -103zM421 388l-8 2c-28 6 -43 23 -43 44c0 23 17 38 39 38c23 0 38 -16 38 -40c0 -17 -8 -33 -26 -44zM409 229c-31 0 -54 20 -54 49c0 20 14 43 47 50l12 -3c32 -8 49 -21 49 -47c0 -29 -23 -49 -54 -49z" />
    <glyph glyph-name="uni2468" unicode="&#x2468;" horiz-adv-x="820" 
d="M410 -12c-199 0 -356 157 -356 357s157 360 356 360s356 -160 356 -360s-157 -357 -356 -357zM417 349c-36 0 -58 25 -58 55c0 29 20 52 51 52c40 0 58 -32 58 -73v-18c-11 -9 -29 -16 -51 -16zM392 153c90 0 165 45 165 186v28c0 105 -57 169 -146 169
c-84 0 -142 -57 -142 -132c0 -67 45 -118 126 -118c32 0 55 10 72 23v-4c0 -55 -34 -73 -72 -73s-68 10 -85 24l-17 -73c16 -15 55 -30 99 -30z" />
    <glyph glyph-name="uni24EA" unicode="&#x24ea;" horiz-adv-x="820" 
d="M410 -12c-199 0 -356 157 -356 357s157 360 356 360s356 -160 356 -360s-157 -357 -356 -357zM410 157c103 0 147 92 147 193c0 98 -44 187 -147 187c-101 0 -144 -89 -144 -187c0 -101 43 -193 144 -193zM410 237c-32 0 -55 37 -55 113c0 73 23 106 55 106
c34 0 57 -33 57 -106c0 -77 -23 -113 -57 -113z" />
    <glyph glyph-name="LA.calt" horiz-adv-x="482" 
d="M58 0v700h123v-587h284l-35 -113h-372z" />
    <glyph glyph-name="ZA.calt" horiz-adv-x="548" 
d="M492 0h-458v23c0 47 4 65 24 96l302 468h-300v113h452v-30c0 -37 -4 -57 -18 -79l-305 -478h338z" />
    <glyph glyph-name="EA.calt" horiz-adv-x="538" 
d="M58 0v700h460v-113h-337v-168h306v-111h-306v-195h337l-34 -113h-426z" />
    <glyph glyph-name="EgraveA.calt" horiz-adv-x="538" 
d="M261 739l-126 121h101c26 0 46 -11 59 -31l61 -90h-95zM58 0v700h460v-113h-337v-168h306v-111h-306v-195h337l-34 -113h-426z" />
    <glyph glyph-name="EacuteA.calt" horiz-adv-x="538" 
d="M199 742l110 116h148l-155 -116h-103zM58 0v700h460v-113h-337v-168h306v-111h-306v-195h337l-34 -113h-426z" />
    <glyph glyph-name="EcircumflexA.calt" horiz-adv-x="538" 
d="M340 742l-55 60l-56 -60h-117l119 117h71c24 0 38 -5 55 -22l100 -95h-117zM58 0v700h460v-113h-337v-168h306v-111h-306v-195h337l-34 -113h-426z" />
    <glyph glyph-name="EdieresisA.calt" horiz-adv-x="538" 
d="M387 732c-39 0 -70 31 -70 72s31 73 70 73s70 -32 70 -73s-31 -72 -70 -72zM174 732c-39 0 -70 31 -70 72s31 73 70 73s70 -32 70 -73s-31 -72 -70 -72zM58 0v700h460v-113h-337v-168h306v-111h-306v-195h337l-34 -113h-426z" />
    <glyph glyph-name="LM.calt" horiz-adv-x="488" 
d="M58 0v700h123v-587h288l-22 -113h-389z" />
    <glyph glyph-name="EM.calt" horiz-adv-x="544" 
d="M58 0v700h460v-113h-337v-168h306v-111h-306v-195h337l-22 -113h-438z" />
    <glyph glyph-name="EgraveM.calt" horiz-adv-x="544" 
d="M261 739l-126 121h101c26 0 46 -11 59 -31l61 -90h-95zM58 0v700h460v-113h-337v-168h306v-111h-306v-195h337l-22 -113h-438z" />
    <glyph glyph-name="EacuteM.calt" horiz-adv-x="544" 
d="M199 742l110 116h148l-155 -116h-103zM58 0v700h460v-113h-337v-168h306v-111h-306v-195h337l-22 -113h-438z" />
    <glyph glyph-name="EcircumflexM.calt" horiz-adv-x="544" 
d="M340 742l-55 60l-56 -60h-117l119 117h71c24 0 38 -5 55 -22l100 -95h-117zM58 0v700h460v-113h-337v-168h306v-111h-306v-195h337l-22 -113h-438z" />
    <glyph glyph-name="EdieresisM.calt" horiz-adv-x="544" 
d="M387 732c-39 0 -70 31 -70 72s31 73 70 73s70 -32 70 -73s-31 -72 -70 -72zM174 732c-39 0 -70 31 -70 72s31 73 70 73s70 -32 70 -73s-31 -72 -70 -72zM58 0v700h460v-113h-337v-168h306v-111h-306v-195h337l-22 -113h-438z" />
    <glyph glyph-name="EW.calt" horiz-adv-x="555" 
d="M58 0v700h442l18 -113h-337v-168h306v-111h-306v-195h337v-113h-460z" />
    <glyph glyph-name="EgraveW.calt" horiz-adv-x="555" 
d="M261 739l-126 121h101c26 0 46 -11 59 -31l61 -90h-95zM58 0v700h442l18 -113h-337v-168h306v-111h-306v-195h337v-113h-460z" />
    <glyph glyph-name="EacuteW.calt" horiz-adv-x="555" 
d="M199 742l110 116h148l-155 -116h-103zM58 0v700h442l18 -113h-337v-168h306v-111h-306v-195h337v-113h-460z" />
    <glyph glyph-name="EcircumflexW.calt" horiz-adv-x="555" 
d="M340 742l-55 60l-56 -60h-117l119 117h71c24 0 38 -5 55 -22l100 -95h-117zM58 0v700h442l18 -113h-337v-168h306v-111h-306v-195h337v-113h-460z" />
    <glyph glyph-name="EdieresisW.calt" horiz-adv-x="555" 
d="M387 732c-39 0 -70 31 -70 72s31 73 70 73s70 -32 70 -73s-31 -72 -70 -72zM174 732c-39 0 -70 31 -70 72s31 73 70 73s70 -32 70 -73s-31 -72 -70 -72zM58 0v700h442l18 -113h-337v-168h306v-111h-306v-195h337v-113h-460z" />
    <glyph glyph-name="EV.calt" horiz-adv-x="547" 
d="M58 0v700h426l34 -113h-337v-168h306v-111h-306v-195h337v-113h-460z" />
    <glyph glyph-name="EgraveV.calt" horiz-adv-x="547" 
d="M261 739l-126 121h101c26 0 46 -11 59 -31l61 -90h-95zM58 0v700h426l34 -113h-337v-168h306v-111h-306v-195h337v-113h-460z" />
    <glyph glyph-name="EacuteV.calt" horiz-adv-x="547" 
d="M199 742l110 116h148l-155 -116h-103zM58 0v700h426l34 -113h-337v-168h306v-111h-306v-195h337v-113h-460z" />
    <glyph glyph-name="EcircumflexV.calt" horiz-adv-x="547" 
d="M340 742l-55 60l-56 -60h-117l119 117h71c24 0 38 -5 55 -22l100 -95h-117zM58 0v700h426l34 -113h-337v-168h306v-111h-306v-195h337v-113h-460z" />
    <glyph glyph-name="EdieresisV.calt" horiz-adv-x="547" 
d="M387 732c-39 0 -70 31 -70 72s31 73 70 73s70 -32 70 -73s-31 -72 -70 -72zM174 732c-39 0 -70 31 -70 72s31 73 70 73s70 -32 70 -73s-31 -72 -70 -72zM58 0v700h426l34 -113h-337v-168h306v-111h-306v-195h337v-113h-460z" />
    <glyph glyph-name="TW.calt" horiz-adv-x="555" 
d="M216 0v583l-191 19v98h489l17 -98l-192 -19v-583h-123z" />
    <glyph glyph-name="TV.calt" horiz-adv-x="548" 
d="M216 0v583l-191 19v98h478l28 -98l-192 -19v-583h-123z" />
    <glyph glyph-name="acute" unicode="&#xb4;" horiz-adv-x="431" 
d="M106 574l100 151h135l-139 -151h-96z" />
    <glyph glyph-name="cedilla" unicode="&#xb8;" horiz-adv-x="458" 
d="M227 -253c-90 0 -137 57 -137 57l32 61s38 -46 101 -46c38 0 58 18 58 42c0 25 -21 40 -49 40c-36 0 -53 -22 -53 -22l-42 18l75 137l65 -19l-34 -63c6 1 12 1 19 1c51 0 104 -27 104 -94c0 -69 -55 -112 -139 -112z" />
    <glyph glyph-name="circumflex" unicode="&#x2c6;" horiz-adv-x="555" 
d="M326 574l-49 82l-49 -82h-106l105 151h65c31 0 46 -10 61 -34l80 -117h-107z" />
    <glyph glyph-name="dieresis" unicode="&#xa8;" horiz-adv-x="542" 
d="M366 568c-39 0 -70 32 -70 73c0 40 31 73 70 73s70 -33 70 -73c0 -41 -31 -73 -70 -73zM168 568c-39 0 -70 32 -70 73c0 40 31 73 70 73s70 -33 70 -73c0 -41 -31 -73 -70 -73z" />
    <glyph glyph-name="grave" unicode="`" horiz-adv-x="404" 
d="M207 574l-116 151h93c26 0 45 -12 56 -32l58 -119h-91z" />
    <glyph glyph-name="tilde" unicode="&#x2dc;" horiz-adv-x="547" 
d="M133 577c-5 5 -11 22 -11 44c0 47 30 91 85 91c65 0 80 -53 123 -53c27 0 36 38 36 57h54c3 -9 7 -24 7 -40c0 -60 -38 -107 -88 -107c-66 0 -78 53 -120 53c-25 0 -33 -27 -33 -45h-53z" />
    </font>
</defs>
</svg>
