<?xml version="1.0" encoding="utf-8"?>
<!-- Generator: Adobe Illustrator 23.0.3, SVG Export Plug-In . SVG Version: 6.00 Build 0)  -->
<svg version="1.1" id="Layer_1" xmlns="http://www.w3.org/2000/svg" xmlns:xlink="http://www.w3.org/1999/xlink" x="0px" y="0px"
	 viewBox="0 0 119.5 15" style="enable-background:new 0 0 119.5 15;" xml:space="preserve">
<style type="text/css">
	.st0{fill:#1B0088;}
</style>
<g>
	<path class="st0" d="M1,9.7L1.6,9c0.5,0.5,1,0.7,1.5,0.7C3.9,9.7,5,9.3,5,7.3V0.5h1v6.9c0,2.5-1.7,3.3-2.8,3.3
		C2.3,10.6,1.6,10.3,1,9.7z"/>
	<path class="st0" d="M12.6,9.6c-0.4,0.7-1.3,1-2,1c-1.7,0-2.6-1-2.6-2.7V3.3h1v4.4c0,1.4,0.7,2,1.7,2c0.8,0,1.8-0.5,1.8-2V3.3h1
		v7.1h-0.8L12.6,9.6z"/>
	<path class="st0" d="M16.8,10.5h-1V3.3h0.5c0.2,0,0.3,0.1,0.3,0.3l0.1,0.6c0.4-0.7,1.3-1,2-1c1.7,0,2.6,1,2.6,2.7v4.6h-1V6
		c0-1.4-0.7-2-1.7-2c-0.8,0-1.8,0.5-1.8,2V10.5z"/>
	<path class="st0" d="M24.1,8.2V4.2L22.6,4V3.3h1.4V1.2h1v2.1h2.2v0.7l-2.2,0.2v3.9c0,1.2,0.5,1.6,1.3,1.6c0.3,0,0.5-0.1,0.8-0.2
		l0.2,0.8c-0.3,0.1-0.7,0.2-1.1,0.2C25.1,10.6,24.1,10,24.1,8.2z"/>
	<path class="st0" d="M28.5,6.9c0-2,0.9-3.7,3-3.7c2.1,0,3,1.7,3,3.7s-0.9,3.7-3,3.7C29.5,10.6,28.5,8.9,28.5,6.9z M33.5,6.9
		c0-1.4-0.5-2.8-2-2.8c-1.5,0-2,1.4-2,2.8s0.5,2.8,2,2.8C33,9.7,33.5,8.3,33.5,6.9z"/>
	<path class="st0" d="M36.1,10.1l0.3-0.8c0.4,0.2,1.1,0.4,1.9,0.4c1.6,0,1.9-0.7,1.9-1.2c0-0.6-0.4-1-1.4-1.3l-0.5-0.1
		c-1.4-0.4-2.1-0.9-2.1-2c0-0.9,0.8-1.9,2.7-1.9c0.8,0,1.5,0.1,2.1,0.4l-0.3,0.9c-0.5-0.2-1-0.4-1.8-0.4c-1.3,0-1.7,0.6-1.7,1.1
		c0,0.6,0.4,0.8,1.4,1.1L39,6.4c1.5,0.4,2.2,1,2.2,2c0,1.1-0.8,2.2-2.8,2.2C37.4,10.6,36.6,10.4,36.1,10.1z"/>
	<path class="st0" d="M42.6,12.4c0.5-0.4,0.8-0.9,0.8-1.5c0-0.4-0.2-0.7-0.4-0.8c0-0.4,0.3-0.8,0.7-0.8c0.6,0,0.8,0.5,0.8,1.1
		c0,1.3-1,2.2-1.6,2.4L42.6,12.4z"/>
	<path class="st0" d="M51.4,10.5h-1V3.3h0.5c0.2,0,0.3,0.1,0.3,0.3l0.1,0.6c0.4-0.7,1.3-1,2-1c1.2,0,2,0.5,2.4,1.4
		c0.3-0.9,1.3-1.4,2.1-1.4c1.7,0,2.6,1,2.6,2.7v4.6h-1V6c0-1.4-0.7-2-1.7-2c-0.8,0-1.8,0.5-1.8,2v4.4h-1V6c0-1.4-0.7-2-1.7-2
		c-0.8,0-1.8,0.5-1.8,2V10.5z"/>
	<path class="st0" d="M66.9,9.7c-0.3,0.4-1.1,0.9-2.1,0.9c-1.4,0-2.5-0.9-2.5-2.3c0-1.5,1.2-2.4,2.5-2.4c1.1,0,1.8,0.5,2.1,1V6
		c0-1.1-0.4-1.9-1.9-1.9c-0.8,0-1.4,0.2-1.9,0.4l-0.3-0.9c0.6-0.2,1.4-0.4,2.1-0.4c2.2,0,2.9,1.1,2.9,2.6v4.6H67L66.9,9.7z
		 M66.8,8.8L66.8,8.8c0-1.2-0.7-2.1-1.9-2.1c-0.9,0-1.6,0.6-1.6,1.5c0,0.9,0.7,1.5,1.8,1.5C65.7,9.7,66.5,9.4,66.8,8.8z"/>
	<path class="st0" d="M69.8,1.4c0-0.4,0.3-0.8,0.8-0.8c0.4,0,0.8,0.4,0.8,0.8c0,0.4-0.3,0.8-0.8,0.8C70.2,2.2,69.8,1.8,69.8,1.4z
		 M70.1,3.3h1v7.1h-1V3.3z"/>
	<path class="st0" d="M73.1,10.1l0.3-0.8c0.4,0.2,1.1,0.4,1.9,0.4c1.6,0,1.9-0.7,1.9-1.2c0-0.6-0.4-1-1.4-1.3l-0.5-0.1
		c-1.4-0.4-2.1-0.9-2.1-2c0-0.9,0.8-1.9,2.7-1.9c0.8,0,1.5,0.1,2.1,0.4l-0.3,0.9c-0.5-0.2-1-0.4-1.8-0.4c-1.3,0-1.7,0.6-1.7,1.1
		c0,0.6,0.4,0.8,1.4,1.1L76,6.4c1.5,0.4,2.2,1,2.2,2c0,1.1-0.8,2.2-2.8,2.2C74.4,10.6,73.6,10.4,73.1,10.1z"/>
	<path class="st0" d="M83.9,9.2v-9.5h1v9.4c0,0.4,0.2,0.5,0.6,0.5c0.2,0,0.3,0,0.5-0.1l0.2,0.8c-0.2,0.1-0.5,0.2-0.8,0.2
		C84.5,10.6,83.9,10.2,83.9,9.2z"/>
	<path class="st0" d="M87.1,6.9c0-2,0.9-3.7,3-3.7c2.1,0,3,1.7,3,3.7s-0.9,3.7-3,3.7C88.1,10.6,87.1,8.9,87.1,6.9z M92.1,6.9
		c0-1.4-0.5-2.8-2-2.8c-1.5,0-2,1.4-2,2.8s0.5,2.8,2,2.8C91.6,9.7,92.1,8.3,92.1,6.9z"/>
	<path class="st0" d="M96,10.5h-1V3.3h0.5c0.2,0,0.3,0.1,0.3,0.3L96,4.2c0.4-0.7,1.3-1,2-1c1.7,0,2.6,1,2.6,2.7v4.6h-1V6
		c0-1.4-0.7-2-1.7-2C97,4.1,96,4.6,96,6V10.5z"/>
	<path class="st0" d="M102,12c0-1,0.8-1.8,1.8-2.2c-0.2-0.2-0.3-0.4-0.3-0.6c0-0.4,0.3-0.8,0.9-1C103,8,102.2,7,102.2,5.8
		c0-1.4,1.1-2.6,2.8-2.6c0.5,0,0.9,0.1,1.3,0.3l2.1-0.4l0.2,0.8L107.8,4L107.1,4c0.4,0.5,0.7,1.1,0.7,1.7c0,1.5-1,2.2-2.1,2.5
		l-0.5,0.1c-0.4,0.1-0.5,0.3-0.5,0.5c0,0.2,0.2,0.4,0.6,0.5l1,0.1c1.4,0.2,2.2,0.9,2.2,2.1c0,1.7-1.6,2.6-3.4,2.6
		C103.4,14.2,102,13.5,102,12z M107.4,11.6c0-0.6-0.4-1.2-1.5-1.3l-1-0.1c-0.1,0-0.3,0-0.4-0.1c-0.9,0.3-1.6,0.9-1.6,1.7
		c0,1,0.9,1.4,2.1,1.4C106.2,13.3,107.4,12.8,107.4,11.6z M106.8,5.8c0-0.7-0.6-1.7-1.9-1.7c-1.1,0-1.8,0.7-1.8,1.7
		c0,0.9,0.7,1.7,1.9,1.7C106,7.5,106.8,6.8,106.8,5.8z"/>
	<path class="st0" d="M112.8,10.6c-2.3,0-3.3-1.7-3.3-3.7s0.9-3.7,3-3.7c2.1,0,2.8,1.5,2.8,3.4v0.5h-4.8c0.1,1.3,0.7,2.6,2.3,2.6
		c0.8,0,1.4-0.1,2-0.4l0.3,0.8C114.4,10.5,113.8,10.6,112.8,10.6z M110.5,6.3h3.8V6.2c0-1.1-0.5-2.2-1.8-2.2
		C111.2,4.1,110.7,5.1,110.5,6.3z"/>
	<path class="st0" d="M117.3,9.8c0-0.5,0.4-0.8,0.8-0.8c0.5,0,0.8,0.4,0.8,0.8c0,0.5-0.4,0.8-0.8,0.8
		C117.7,10.6,117.3,10.2,117.3,9.8z"/>
</g>
</svg>
