<?xml version="1.0" encoding="utf-8"?>
<!-- Generator: Adobe Illustrator 23.0.3, SVG Export Plug-In . SVG Version: 6.00 Build 0)  -->
<svg version="1.1" id="Layer_1" xmlns="http://www.w3.org/2000/svg" xmlns:xlink="http://www.w3.org/1999/xlink" x="0px" y="0px"
	 viewBox="0 0 127 67" style="enable-background:new 0 0 127 67;" xml:space="preserve">
<path d="M58.3,28.2L58.3,28.2c0.6-0.5,1.6-1.3,1.6-2.5c0-2.2-1.5-3.5-3.9-3.5h-3.1L63.5-0.2H0.3l13,27.6v-5.4l6.9,5l6.9-5v13.2h-3.5
	v-6.1h-0.1l-3.3,2.4L17,29.1h-0.1v5.8l15,31.7l14.9-31.4h-7.5v-13h0v0h3.5V32h5.5l1.9-4v7.2h6.5c2.4,0,4-1.5,4-3.9
	C60.7,29.6,59.6,28.7,58.3,28.2z M38,25.3h-5.4v1.8h4v3.1h-4V32H38v3.2h-9v-13h9V25.3z M53.7,25.1h1.9c0.5,0,0.9,0.6,0.9,1
	c0,0.5-0.4,1-0.9,1h-1.9V25.1z M55.9,32.2h-2.2v-2.6h2.2c0.6,0,1.1,0.6,1.1,1.3C57,31.6,56.5,32.2,55.9,32.2z"/>
<path d="M69.2,35.5c3.9,0,7.2-2.9,7.2-6.8c0-3.9-3.4-6.8-7.2-6.8c-3.9,0-7.2,2.9-7.2,6.8C62,32.5,65.3,35.5,69.2,35.5z M69.2,25.2
	c1.9,0,3.4,1.5,3.4,3.4s-1.5,3.4-3.4,3.4c-1.9,0-3.4-1.5-3.4-3.4S67.3,25.2,69.2,25.2z"/>
<path d="M83.6,35.5c3.5,0,5.6-1.8,5.6-5.2v-8.1h-3.6v8.3c0,1.2-0.8,2-2,2s-1.9-0.8-1.9-2v-8.3h-3.6v8.1
	C78.1,33.6,80.2,35.5,83.6,35.5z"/>
<path d="M102.2,26.9c0-2.7-2.2-4.7-4.9-4.7h-5.9v13h3.5v-3.5h1.7l1.6,3.5h4l-2.2-4.4C101.2,29.9,102.2,28.6,102.2,26.9z M97.1,28.4
	h-2.3v-3.1h2.3c0.8,0,1.3,0.9,1.3,1.5C98.4,27.5,97.9,28.4,97.1,28.4z"/>
<polygon points="111.4,27.9 111.3,27.9 103.9,21.9 103.9,35.2 107.4,35.2 107.4,29.4 107.5,29.4 114.9,35.4 114.9,22.1 111.4,22.1 
	"/>
<polygon points="117,35.2 126.8,35.2 126.8,32 120.5,32 120.5,30.2 125.1,30.2 125.1,27.1 120.5,27.1 120.5,25.3 126.8,25.3 
	126.8,22.1 117,22.1 "/>
<polygon points="53.9,47.1 51.7,41.9 50.1,41.9 53.2,49.1 54.6,49.1 57.8,41.9 56.1,41.9 "/>
<path d="M59.2,41.2c-0.5,0-0.9,0.4-0.9,0.9c0,0.5,0.4,0.8,0.9,0.8c0.5,0,0.9-0.4,0.9-0.8C60.1,41.6,59.7,41.2,59.2,41.2z"/>
<rect x="58.5" y="43.7" width="1.4" height="5.4"/>
<path d="M66.3,47.6L65,47.2c-0.3,0.6-0.7,0.8-1.3,0.8c-0.9,0-1.5-0.6-1.5-1.5c0-0.9,0.6-1.6,1.5-1.6c0.5,0,1,0.2,1.2,0.8l1.3-0.5
	c-0.5-1-1.4-1.6-2.5-1.6c-1.6,0-2.9,1.2-2.9,2.9c0,1.7,1.3,2.9,2.9,2.9C64.9,49.3,65.9,48.6,66.3,47.6z"/>
<path d="M69.7,49.3c0.5,0,0.8-0.1,1.4-0.4l-0.4-1.2c-0.3,0.2-0.6,0.3-0.9,0.3c-0.5,0-0.8-0.3-0.8-0.9v-2.1h1.8v-1.2H69v-1.6h-1.4
	v1.6h-1.2v1.2h1.2v2.2C67.6,48.6,68.4,49.3,69.7,49.3z"/>
<path d="M77.1,46.4c0-1.7-1.3-2.8-2.9-2.8c-1.6,0-2.9,1.1-2.9,2.8c0,1.7,1.3,2.8,2.9,2.8C75.7,49.2,77.1,48.1,77.1,46.4z M74.2,48
	c-0.8,0-1.6-0.6-1.6-1.6c0-1,0.8-1.6,1.6-1.6c0.7,0,1.5,0.6,1.5,1.6C75.7,47.4,74.9,48,74.2,48z"/>
<path d="M79.4,47.4c0-1.5,0.6-2.3,1.9-2.3h0.3l0.1-1.4c-0.1,0-0.2,0-0.4,0c-0.9,0-1.5,0.4-1.9,1.1v-1h-1.4v5.4h1.4V47.4z"/>
<path d="M83.1,41.2c-0.5,0-0.9,0.4-0.9,0.9c0,0.5,0.4,0.8,0.9,0.8c0.5,0,0.9-0.4,0.9-0.8C84,41.6,83.6,41.2,83.1,41.2z"/>
<rect x="82.4" y="43.7" width="1.4" height="5.4"/>
<path d="M89.2,49.1h1.4v-5.4h-1.4v0.4c-0.5-0.4-1-0.6-1.8-0.6c-1.4,0-2.6,1.2-2.6,2.9c0,1.7,1.3,2.9,2.6,2.9c0.7,0,1.3-0.2,1.8-0.6
	V49.1z M87.7,48c-0.9,0-1.5-0.6-1.5-1.6c0-1,0.6-1.6,1.5-1.6c0.8,0,1.5,0.6,1.5,1.6C89.2,47.4,88.5,48,87.7,48z"/>
<path d="M53.3,51.9l-3,7.2h1.6l0.6-1.5h3l0.6,1.5h1.6l-3-7.2H53.3z M53,56.3l1-2.6l1,2.6H53z"/>
<path d="M61.9,56.1c0,1.3-0.5,1.9-1.3,1.9c-0.7,0-1.1-0.5-1.1-1.3v-3H58V57c0,1.3,0.9,2.3,2.2,2.3c0.7,0,1.3-0.2,1.7-0.6v0.5h1.4
	v-5.4h-1.4V56.1z"/>
<path d="M67.5,56l-1.2-0.3c-0.4-0.1-0.5-0.3-0.5-0.5c0-0.2,0.2-0.5,0.7-0.5c0.5,0,0.8,0.2,1,0.5l1.3-0.4c-0.3-0.8-1.1-1.3-2.2-1.3
	c-1.4,0-2.2,0.7-2.2,1.8c0,0.8,0.6,1.3,1.5,1.5l1,0.2c0.5,0.1,0.6,0.3,0.6,0.5c0,0.3-0.3,0.5-0.8,0.5c-0.5,0-1-0.2-1.1-0.6l-1.4,0.6
	c0.3,0.9,1.3,1.2,2.3,1.2c1.4,0,2.4-0.6,2.4-1.8C68.9,56.8,68.5,56.2,67.5,56z"/>
<path d="M72.4,58c-0.5,0-0.8-0.3-0.8-0.9v-2.1h1.8v-1.2h-1.8v-1.6h-1.4v1.6h-1.2v1.2h1.2v2.2c0,1.5,0.8,2.2,2.1,2.2
	c0.5,0,0.8-0.1,1.4-0.4l-0.4-1.2C73.1,57.9,72.7,58,72.4,58z"/>
<path d="M75.7,54.7v-1h-1.4v5.4h1.4v-1.7c0-1.5,0.6-2.3,1.9-2.3H78l0.1-1.4c-0.1,0-0.2,0-0.4,0C76.8,53.7,76.2,54.1,75.7,54.7z"/>
<path d="M82.7,54.2c-0.5-0.4-1-0.6-1.8-0.6c-1.4,0-2.6,1.2-2.6,2.9c0,1.7,1.3,2.9,2.6,2.9c0.7,0,1.3-0.2,1.8-0.6v0.4h1.4v-5.4h-1.4
	V54.2z M81.2,58.1c-0.9,0-1.5-0.6-1.5-1.6c0-1,0.6-1.6,1.5-1.6c0.8,0,1.5,0.6,1.5,1.6C82.7,57.4,82,58.1,81.2,58.1z"/>
<rect x="85.4" y="51.4" width="1.4" height="7.8"/>
<rect x="88.2" y="53.7" width="1.4" height="5.4"/>
<path d="M89,51.3c-0.5,0-0.9,0.4-0.9,0.9c0,0.5,0.4,0.8,0.9,0.8c0.5,0,0.9-0.4,0.9-0.8C89.8,51.7,89.5,51.3,89,51.3z"/>
<path d="M95,54.2c-0.5-0.4-1-0.6-1.8-0.6c-1.4,0-2.6,1.2-2.6,2.9c0,1.7,1.3,2.9,2.6,2.9c0.7,0,1.3-0.2,1.8-0.6v0.4h1.4v-5.4H95V54.2
	z M93.5,58.1c-0.9,0-1.5-0.6-1.5-1.6c0-1,0.6-1.6,1.5-1.6c0.8,0,1.5,0.6,1.5,1.6C95,57.4,94.3,58.1,93.5,58.1z"/>
</svg>
